<?xml version="1.0" encoding="UTF-8" standalone="no"?>
<!-- Created with Inkscape (http://www.inkscape.org/) -->

<svg
   xmlns:dc="http://purl.org/dc/elements/1.1/"
   xmlns:cc="http://creativecommons.org/ns#"
   xmlns:rdf="http://www.w3.org/1999/02/22-rdf-syntax-ns#"
   xmlns:svg="http://www.w3.org/2000/svg"
   xmlns="http://www.w3.org/2000/svg"
   xmlns:sodipodi="http://sodipodi.sourceforge.net/DTD/sodipodi-0.dtd"
   xmlns:inkscape="http://www.inkscape.org/namespaces/inkscape"
   width="100"
   height="100"
   viewBox="0 0 100 99.999997"
   id="svg6102"
   version="1.1"
   inkscape:version="0.91 r13725"
   sodipodi:docname="goal.svg">
  <defs
     id="defs6104" />
  <sodipodi:namedview
     id="base"
     pagecolor="#ffffff"
     bordercolor="#666666"
     borderopacity="1.0"
     inkscape:pageopacity="0.0"
     inkscape:pageshadow="2"
     inkscape:zoom="5.6"
     inkscape:cx="12.651497"
     inkscape:cy="15.300978"
     inkscape:document-units="px"
     inkscape:current-layer="layer1"
     showgrid="false"
     fit-margin-top="0"
     fit-margin-left="0"
     fit-margin-right="0"
     fit-margin-bottom="0"
     inkscape:window-width="1920"
     inkscape:window-height="1027"
     inkscape:window-x="0"
     inkscape:window-y="27"
     inkscape:window-maximized="1"
     units="px"
     inkscape:snap-global="true"
     inkscape:object-paths="false"
     inkscape:snap-intersection-paths="false"
     inkscape:snap-page="true" />
  <metadata
     id="metadata6107">
    <rdf:RDF>
      <cc:Work
         rdf:about="">
        <dc:format>image/svg+xml</dc:format>
        <dc:type
           rdf:resource="http://purl.org/dc/dcmitype/StillImage" />
        <dc:title></dc:title>
      </cc:Work>
    </rdf:RDF>
  </metadata>
  <g
     inkscape:label="Ebene 1"
     inkscape:groupmode="layer"
     id="layer1"
     transform="translate(-652.7309,-1044.5673)">
    <path
       style="fill:#000000;fill-opacity:1;stroke:none;stroke-width:1.39999998;stroke-miterlimit:4;stroke-dasharray:none;stroke-opacity:1"
       d="m 652.7309,1063.5589 0,60.4707 11.69336,0 0,-6.2871 6.28711,6.2891 3.80469,0 8.1582,-8.1602 8.16016,8.1602 3.80078,0 8.16015,-8.1602 8.15821,8.1602 3.80468,0 8.15821,-8.1602 8.1582,8.1602 3.80078,0 6.16211,-6.1641 0,6.1621 11.69336,0 0,-60.4707 -100,0 z m 13.36719,11.9141 13.0332,0 -6.51562,6.5156 -6.51758,-6.5156 z m 20.12304,0 13.02735,0 -6.51367,6.5137 -6.51368,-6.5137 z m 20.11719,0 13.03321,0 -6.51758,6.5156 -6.51563,-6.5156 z m 20.12305,0 13.0293,0 -6.51563,6.5137 -6.51367,-6.5137 z m -43.78711,0.168 8.20312,8.2031 -8.20507,8.2031 -8.20118,-8.2012 8.20313,-8.205 z m 20.12109,0 8.20313,8.205 -8.20117,8.2012 -8.20508,-8.2031 8.20312,-8.2031 z m 20.1211,0 8.20117,8.2031 -8.20313,8.2031 -8.20117,-8.2012 8.20313,-8.205 z m -58.49219,1.8711 6.33203,6.3339 -6.33203,6.3321 0,-12.666 z m 76.61328,0.125 0,12.4101 -6.20508,-6.2031 6.20508,-6.207 z m -68.42187,8.0625 8.20117,8.2031 -8.20117,8.2031 -8.19141,-8.1914 0,-0.023 8.19141,-8.1914 z m 20.11914,0 8.20507,8.205 -8.20507,8.2051 -8.20508,-8.2051 8.20508,-8.205 z m 20.11914,0 8.20312,8.2031 -8.20312,8.2031 -8.20117,-8.2031 8.20117,-8.2031 z m 20.12109,0 8.0625,8.0625 0,0.2851 -8.0625,8.0625 -8.20508,-8.2051 8.20508,-8.205 z m -50.30273,10.0566 8.20507,8.2051 -8.20117,8.2011 -8.20508,-8.205 8.20118,-8.2012 z m 20.125,0 8.20117,8.2012 -8.20508,8.205 -8.20117,-8.2011 8.20508,-8.2051 z m 20.11718,0 8.20508,8.2051 -8.20312,8.2031 -8.20508,-8.2051 8.20312,-8.2031 z m -58.49023,1.8691 6.33398,6.334 -6.33398,6.334 0,-12.668 z m 76.61328,0.1309 0,12.4082 -6.20508,-6.2051 6.20508,-6.2031 z m -68.42383,8.0566 8.20508,8.2032 -8.20312,8.2031 -8.19141,-8.1895 0,-0.027 8.18945,-8.1895 z m 20.1211,0 8.20117,8.2032 -8.20117,8.2011 -8.20118,-8.2011 8.20118,-8.2032 z m 20.11914,0 8.20508,8.2032 -8.20508,8.2031 -8.20313,-8.2031 8.20313,-8.2032 z m 20.12109,0 8.0625,8.0625 0,0.2813 -8.0625,8.0586 -8.19922,-8.1992 8.19922,-8.2032 z"
       id="rect8103"
       inkscape:connector-curvature="0" />
  </g>
</svg>
