<?xml version="1.0" encoding="UTF-8" standalone="no"?>
<svg id="svg2" xmlns:rdf="http://www.w3.org/1999/02/22-rdf-syntax-ns#" xmlns="http://www.w3.org/2000/svg" height="1e3" width="1e3" version="1.1" xmlns:cc="http://creativecommons.org/ns#" xmlns:dc="http://purl.org/dc/elements/1.1/" viewBox="0 0 1000.1165 999.99938">
<g id="layer1" transform="translate(147 -51.08)">
<path id="path4445" style="color-rendering:auto;color:#000000;isolation:auto;mix-blend-mode:normal;shape-rendering:auto;solid-color:#000000;image-rendering:auto" d="m66.37 55.78c-26.47-0.00057-47.93 20.33-47.93 45.4 0.000102 25.07 21.46 45.4 47.93 45.4 20.89-0.007 39.37-12.83 45.68-31.69 40.97 16.62 90.5 36.24 120.7 57.78 31.04 22.14 62.39 31.02 97.46 125.1 19.37 51.97-28.34 170.1-28.34 170.1s43.46-70.3-5.283-156.5c-47.5-83.8-221.6 68.7-269.6 131.8-8.79-7.6-20.28-11.9-32.22-11.9-26.47-0.0006-47.93 20.33-47.93 45.4 0.000102 25.07 21.46 45.4 47.93 45.4 26.47-0.0005 47.93-20.33 47.93-45.4-0.000617-11.82-4.867-23.17-13.56-31.64l135.6-72.7s-6.313 47.02 3.152 107c0.1741 1.104 0.4515 1.849 0.8415 2.31-22.97 8.094-56.04 27.38-81.75 73.39-43.87 78.49-81.77 111.4-111.5 132.4-30.7 21.69-91.68 41.54-122.7 56.18 38.19 14.86 88.41 5.968 124.3 0.541 1.227 2.094 25.92 44.66 14.72 61.65-11.49 17.41-31.02 26.12-43.66 34.82-0.2576 0.1774-0.4949 0.3758-0.7231 0.584-0.06273 0.057-0.1241 0.1161-0.1848 0.1757-0.2163 0.2126-0.4238 0.4346-0.6107 0.6739l-0.01028 0.01c-0.1979 0.2544-0.3727 0.5268-0.5363 0.8086-0.03085 0.053-0.06068 0.1077-0.0905 0.1621-0.3105 0.5674-0.5539 1.183-0.7231 1.84-0.02571 0.099-0.04936 0.1998-0.07199 0.3008-0.04114 0.1845-0.07302 0.3723-0.1028 0.5625-0.6575 4.001 1.018 9.312 5.717 14.35 13.01 11.2-33.6 25.24-2.665 57.8 0 0-22.98 60.94-32.17 71.82-9.191 10.88-91.91 65.29-27.57 60.94 39.81-2.694 138.2 1.371 222.2-54.08 52.48-34.66 53.75-47.48 138.8-66.55 67.26-15.09 130.8-53.46 182.7-114.7 41.9-49.4 42.13-64.65 60.84-106.2 11.28 6.255 3.633 0.0165 15.13 7.957 77.99 53.87 174.2 21.23 247.3-21.85-115.2 1.7-125-82.6-186.8-155-61.7-72.3-74.3-74.7-152.2-45.2 47.3-23.7 153.1-115.4 73.6-260.5-73.9-134.8-345-123.2-377.4-121.4 1.159-3.923 1.755-7.977 1.772-12.05 0-25.09-21.46-45.42-47.93-45.42zm735.9 574.1c-26.47-0.0006-47.93 20.33-47.93 45.4 0.0001 25.07 21.46 45.4 47.93 45.4 26.47-0.0005 47.93-20.33 47.93-45.4-0.0001-25.07-21.46-45.4-47.93-45.4z" fill-opacity=".4599" fill="#787878"/>
<path id="path4385" style="color-rendering:auto;color:#000000;isolation:auto;mix-blend-mode:normal;shape-rendering:auto;solid-color:#000000;image-rendering:auto" d="m24.41 445.9c42.66-58.5 186-239.6 233.4-153.4 47.4 86.18 5.137 156.5 5.137 156.5s78.68-101.5 59.85-153.5c-34.1-94.11-64.58-103-94.76-125.1-30.19-22.14-80.29-42.27-120.7-59.18 0 0 253-20.69 330.4 124.4 77.36 145.1-25.52 236.8-71.56 260.5 75.73-29.57 87.98-27.14 148 45.19 60.04 72.33 132.2 116.3 244.4 114.8-71.04 43.08-199.8 67.87-275.6 14.01-75.84-53.87-149.8-67.57-181.4-59.88-31.6 7.695-5.394-116.6-108.1-136.6-19.12-1.827-26.91 12.4-28.26 3.551-9.204-60.02-3.065-107-3.065-107z" stroke="#000" stroke-width="4.696" fill="#d554a2"/>
<path id="path4443" style="color-rendering:auto;color:#000000;isolation:auto;mix-blend-mode:normal;shape-rendering:auto;solid-color:#000000;image-rendering:auto" d="m-20.6 741.6s25.7 44.62 14.52 62.03c-11.17 17.41-30.16 26.12-42.45 34.82-4.544 3.219-4.469 11.68 2.592 19.47 12.65 11.2-32.67 25.24-2.592 57.8 0 0-22.34 60.94-31.28 71.82-8.938 10.88-89.38 65.29-26.81 60.94 38.71-2.694 92.41 1.37 174.1-54.08 51.03-34.66 52.27-47.48 134.9-66.55 65.41-15.09 127.2-53.46 177.6-114.7 41.05-49.78 69.73-164.6 69.73-164.6-72.53-36.47-116.6-46.03-148.2-38.33-31.6 7.695-5.394-116.6-108.9-136.6 0 0-63.49 0.7601-106.2 79.25-42.66 78.49-79.52 111.4-108.5 132.4-29.85 21.69-89.15 41.54-119.3 56.18 58.68 23.49 146.7-12.39 162.5-0.0773s33.01-20.44 33.01-20.44" stroke="#000" stroke-width="4.696" fill="#f7ebce"/>
<path id="path4389" style="color-rendering:auto;color:#000000;isolation:auto;mix-blend-mode:normal;shape-rendering:auto;solid-color:#000000;image-rendering:auto" d="m-20.6 741.6s25.7 44.62 14.52 62.03c-11.17 17.41-30.16 26.12-42.45 34.82-12.29 8.706 28.8 76.6 140 24.91 89.9-41.9 215.9-102.9 107.5-100.2" stroke="#000" stroke-width="4.696" fill="none"/>
<path id="path4486" style="color-rendering:auto;color:#000000;isolation:auto;mix-blend-mode:normal;shape-rendering:auto;solid-color:#000000;image-rendering:auto" d="m174 637.4c35.75-10.88 56.67-37.16 56.67-37.16-28.91-80.67-99.31-50.24-135.9 7.754 0 0 43.46 40.28 79.21 29.4z" fill="#ddd"/>
<path id="path4488" style="color-rendering:auto;color:#000000;isolation:auto;mix-blend-mode:normal;shape-rendering:auto;solid-color:#000000;image-rendering:auto" d="m160.7 573.5c35.75-10.88 69.96 26.77 69.96 26.77-28.91-80.67-99.31-50.24-135.9 7.754 0 0 30.17-23.64 65.92-34.53z" fill="#a2a2a2"/>
<path id="path4393" style="color-rendering:auto;color:#000000;isolation:auto;mix-blend-mode:normal;shape-rendering:auto;solid-color:#000000;image-rendering:auto" d="m94.47 608.8s13.27-62.54 43.06-85.44c22.64-17.4 51.04-27.21 64.89-13.1 30.31 30.86 28.34 92.02 28.34 92.02-29.05-82.71-99.45-52.28-136.3 6.529z" stroke="#000" stroke-width="4.696" fill="none"/>
<path id="path4395" style="color-rendering:auto;color:#000000;isolation:auto;mix-blend-mode:normal;shape-rendering:auto;solid-color:#000000;image-rendering:auto" d="m95.03 607.2s43.18 41.1 78.93 30.22 56.53-39.2 56.53-39.2" stroke="#000" stroke-width="4.696" fill="none"/>
<path id="path4397" style="color-rendering:auto;color:#000000;isolation:auto;mix-blend-mode:normal;shape-rendering:auto;solid-color:#000000;image-rendering:auto" d="m197.3 583c0 17.88-14.88 32.38-33.24 32.38s-41.46-19.19-41.46-37.07c0-7.877 21.95-17.75 46.67-23.16 17.86-3.906 28.02 9.974 28.02 27.85z" stroke="#000" stroke-width="4.696"/>
<ellipse id="path4400" cy="474.3" stroke="#000" stroke-width="4.696" style="color-rendering:auto;color:#000000;isolation:auto;mix-blend-mode:normal;shape-rendering:auto;solid-color:#000000;image-rendering:auto" rx="46.61" ry="45.4" cx="-3.24"/>
<ellipse id="circle4402" cy="98.83" stroke="#000" stroke-width="4.696" style="color-rendering:auto;color:#000000;isolation:auto;mix-blend-mode:normal;shape-rendering:auto;solid-color:#000000;image-rendering:auto" rx="46.61" ry="45.4" cx="66.28"/>
<ellipse id="circle4404" cy="635.9" stroke="#000" stroke-width="4.696" style="color-rendering:auto;color:#000000;isolation:auto;mix-blend-mode:normal;shape-rendering:auto;solid-color:#000000;image-rendering:auto" rx="46.61" ry="45.4" cx="804.1"/>
<ellipse id="path4425" cy="454.6" stroke="#000" stroke-width="5" fill="#d554a2" style="color-rendering:auto;color:#000000;isolation:auto;mix-blend-mode:normal;shape-rendering:auto;solid-color:#000000;image-rendering:auto" rx="19.96" ry="17.61" cx="-17.9"/>
<circle id="path4427" style="color-rendering:auto;color:#000000;isolation:auto;mix-blend-mode:normal;shape-rendering:auto;solid-color:#000000;image-rendering:auto" cx="56.07" stroke="#000" cy="81.26" r="19.96" stroke-width="5" fill="#d554a2"/>
<ellipse id="path4429" cy="623.7" stroke="#000" stroke-width="5" fill="#d554a2" style="color-rendering:auto;color:#000000;isolation:auto;mix-blend-mode:normal;shape-rendering:auto;solid-color:#000000;image-rendering:auto" rx="19.96" ry="21.13" cx="793.4"/>
<ellipse id="path4431" style="color-rendering:auto;color:#000000;isolation:auto;mix-blend-mode:normal;shape-rendering:auto;solid-color:#000000;image-rendering:auto" rx="10.46" ry="10.57" cy="76.22" cx="54.55" fill="#fff"/>
<ellipse id="ellipse4433" style="color-rendering:auto;color:#000000;isolation:auto;mix-blend-mode:normal;shape-rendering:auto;solid-color:#000000;image-rendering:auto" rx="7.584" ry="7.661" cy="449.4" cx="-22.22" fill="#fff"/>
<ellipse id="ellipse4435" style="color-rendering:auto;color:#000000;isolation:auto;mix-blend-mode:normal;shape-rendering:auto;solid-color:#000000;image-rendering:auto" rx="7.584" ry="7.661" cy="616.1" cx="789.1" fill="#fff"/>
<ellipse id="ellipse4437" style="color-rendering:auto;color:#000000;isolation:auto;mix-blend-mode:normal;shape-rendering:auto;solid-color:#000000;image-rendering:auto" rx="7.584" ry="7.661" cy="598.8" cx="178.3" fill="#fff"/>
<ellipse id="ellipse4439" style="color-rendering:auto;color:#000000;isolation:auto;mix-blend-mode:normal;shape-rendering:auto;solid-color:#000000;image-rendering:auto" rx="4.263" ry="4.306" cy="592.2" cx="143.8" fill="#fff"/>
</g>
</svg>
