<svg xmlns="http://www.w3.org/2000/svg" width="294.612" height="281.987" viewBox="0 0 294.612 281.987">
  <path d="M292.714 1.874H1.874v31.354c0 207.103 145.013 246.815 145.013 246.815S292.51 240.24 292.245 33.158l.47-31.284" fill="#b1c700" id="background"/>
  <path d="M292.714 1.874H1.874v31.354c0 207.103 145.013 246.815 145.013 246.815S292.51 240.24 292.245 33.158l.47-31.284z" fill="none" stroke="#231f20" stroke-width="3.75"/>
  <path d="M56.17 26.743c-1.006 0-1.848-.272-2.525-.817-.694-.543-1.043-1.31-1.043-2.298v-7.284h2.674v8.18c0 .24.086.45.26.62.174.175.385.26.635.26s.45-.085.63-.26c.18-.17.26-.38.26-.62v-8.18h2.68v7.284c0 .988-.35 1.755-1.05 2.298-.67.545-1.51.817-2.5.817m11.19-10.4h2.52v10.09h-2.37l-3.14-5.76v5.76h-2.52v-10.09h2.37l3.14 5.574v-5.573m7.32 5.038v3.73h.9c.24 0 .45-.088.62-.267.18-.18.26-.39.26-.63v-1.938c0-.24-.08-.448-.26-.627-.17-.178-.38-.268-.62-.268h-.9zm0-1.308h.9c.24 0 .45-.088.62-.262.18-.173.26-.385.26-.635v-.922c0-.25-.08-.46-.26-.634-.17-.17-.38-.26-.62-.26-.25 0-.46.09-.63.26-.17.18-.26.38-.26.61v1.85zm-2.7 6.36V19.15c0-.65.17-1.218.51-1.704.34-.485.81-.85 1.41-1.102.56-.205 1.11-.308 1.66-.308.88 0 1.64.238 2.27.71.63.47 1 1.126 1.11 1.964-.12.926-.48 1.6-1.07 2.017.83.58 1.25 1.395 1.25 2.447v.146c0 .99-.35 1.756-1.05 2.3-.68.544-1.51.815-2.5.815H72m12.376.308c-1.007 0-1.85-.272-2.526-.817-.695-.543-1.043-1.31-1.043-2.298V23.6c0-1.06.42-1.874 1.257-2.444-.712-.498-1.122-1.167-1.23-2.006-.017-.14-.017-.29 0-.44.108-.838.496-1.492 1.164-1.964.686-.472 1.48-.71 2.38-.71.952 0 1.786.278 2.5.83.702.543 1.054 1.305 1.054 2.284v.135H85.26v-1.03c0-.25-.088-.46-.26-.634-.175-.17-.383-.26-.623-.26-.25 0-.46.09-.635.26-.173.18-.26.39-.26.64v1.35c0 .25.086.46.26.64.174.18.386.26.635.26h.882v1.35h-1.11c-.45.13-.67.41-.67.86v1.82c0 .24.09.45.26.62.17.18.38.26.63.26.24 0 .45-.08.62-.26.17-.17.26-.38.26-.62v-1.05h2.67v.15c0 .99-.36 1.76-1.06 2.3-.68.55-1.51.82-2.5.82m8.47 0c-1.03.06-1.85-.18-2.48-.69-.63-.51-.92-1.32-.87-2.42v-.24h2.46v.88c0 .24.08.45.26.62.17.18.38.26.62.26.25 0 .49-.07.72-.24.23-.16.33-.53.3-1.09-.01-.51-.36-.96-1.04-1.36-.67-.41-1.41-.96-2.24-1.64-.82-.69-1.14-1.55-.96-2.6.1-.67.43-1.21.99-1.59.55-.39 1.3-.58 2.24-.58 1.18.02 2.07.29 2.65.81.58.52.83 1.29.75 2.31v.1h-2.52v-.84c0-.25-.09-.46-.26-.63-.18-.17-.39-.26-.64-.26-.24 0-.45.09-.63.26s-.26.4-.26.68c-.08.66.39 1.31 1.43 1.94.99.59 1.73 1.16 2.21 1.71.45.48.7 1.16.75 2.03-.04.81-.3 1.46-.8 1.94-.49.47-1.4.69-2.72.69m4.96-10.4h6.853v1.79h-2.09v8.3H99.9v-8.3h-2.09v-1.8m11.866 10.4c-1.007 0-1.848-.27-2.526-.82-.695-.54-1.042-1.31-1.042-2.3v-.03c0-1.06.418-1.87 1.256-2.44-.713-.49-1.123-1.16-1.23-2-.017-.14-.017-.29 0-.44.107-.84.494-1.49 1.163-1.96.686-.47 1.48-.71 2.38-.71.952 0 1.786.28 2.498.83.71.54 1.06 1.3 1.06 2.28v.13h-2.67V18.3c0-.25-.086-.46-.26-.634-.173-.17-.38-.26-.62-.26-.25 0-.46.09-.635.26-.175.18-.26.39-.26.64v1.35c0 .25.085.46.26.635.173.17.385.26.634.26h.88v1.35h-1.11c-.445.12-.667.41-.667.85v1.82c0 .24.086.45.26.62.174.18.386.26.635.26.24 0 .448-.08.62-.26.175-.17.262-.38.262-.62V23.5h2.67v.15c0 .99-.352 1.754-1.056 2.3-.676.543-1.508.814-2.498.814m8.793 0c-1.01 0-1.85-.27-2.53-.815-.69-.55-1.04-1.31-1.04-2.3v-4.48c0-.97.35-1.73 1.04-2.29.716-.55 1.558-.83 2.53-.83.953 0 1.786.28 2.5.83.703.54 1.055 1.3 1.055 2.28v.25h-2.673v-1.15c0-.25-.09-.46-.263-.64-.174-.17-.38-.26-.62-.26-.25 0-.463.09-.636.26-.172.18-.26.39-.26.64v6.27c0 .24.088.44.26.62.175.17.387.26.637.26.24 0 .448-.09.62-.26.176-.18.263-.38.263-.62V23.2h2.67v.452c0 .986-.35 1.753-1.055 2.296-.68.546-1.51.818-2.5.818m5.4-10.4h2.68v4.15h1.78v-4.16H131v10.09h-2.673v-4.16h-1.78v4.157h-2.67V16.35m9.33-.004h2.673v8.3h3.566v1.79H133.2v-10.09m11.04 1.79v6.51h1.043v1.79h-4.45v-1.79h1.04v-6.51h-1.04v-1.79h4.45v1.79h-1.043m6.376 8.61c-1.007 0-1.85-.273-2.527-.818-.7-.543-1.05-1.31-1.05-2.298v-4.48c0-.97.35-1.73 1.04-2.285.71-.55 1.55-.83 2.52-.83.95 0 1.78.28 2.5.83.7.544 1.05 1.306 1.05 2.285v.254h-2.67v-1.15c0-.248-.09-.46-.26-.633-.17-.17-.38-.26-.62-.26-.25 0-.46.09-.64.26-.18.18-.26.39-.26.64v6.27c0 .24.08.45.26.62.17.18.38.26.63.26.24 0 .45-.08.62-.26.17-.17.26-.38.26-.62v-1.35h2.67v.46c0 .99-.35 1.76-1.06 2.3-.68.55-1.51.82-2.5.82m5.4-10.4h2.67v4.15h1.78v-4.16h2.67v10.09h-2.68v-4.16h-1.77v4.16H156V16.35m19.1 10.395c-1.02.052-1.85-.18-2.47-.695-.624-.518-.914-1.325-.867-2.42v-.24h2.46v.88c0 .24.083.45.26.62.17.176.38.26.62.26.25 0 .49-.076.72-.24.23-.166.33-.533.292-1.094-.02-.51-.368-.962-1.046-1.362-.67-.41-1.42-.96-2.25-1.644-.82-.69-1.14-1.56-.96-2.6.1-.68.43-1.21.99-1.6.55-.39 1.3-.59 2.24-.59 1.18.02 2.07.287 2.65.803.58.516.83 1.286.75 2.31v.094H176v-.84c0-.25-.086-.464-.26-.636-.173-.17-.385-.26-.635-.26-.24 0-.45.09-.625.26-.177.17-.26.4-.26.68-.085.66.393 1.3 1.43 1.94.994.59 1.734 1.16 2.215 1.71.452.49.702 1.16.746 2.04-.04.81-.3 1.46-.8 1.94-.49.47-1.4.69-2.72.68m8.8 0c-1.01 0-1.85-.27-2.52-.81-.69-.54-1.04-1.31-1.04-2.3v-.03c0-1.06.42-1.87 1.26-2.44-.71-.5-1.12-1.16-1.23-2-.01-.14-.01-.29 0-.44.11-.84.5-1.49 1.17-1.97.69-.47 1.48-.71 2.38-.71.95 0 1.79.28 2.5.83.7.55 1.06 1.31 1.06 2.29v.14h-2.67v-1.03c0-.25-.08-.46-.26-.63-.17-.17-.38-.26-.62-.26-.25 0-.46.09-.63.26-.18.18-.26.39-.26.64v1.35c0 .25.09.46.26.64.18.18.39.26.64.26h.88v1.35h-1.11c-.45.13-.67.41-.67.86v1.82c0 .24.09.45.26.62.17.18.39.26.64.26.24 0 .45-.08.62-.26.18-.17.26-.38.26-.62V23.5h2.68v.15c0 .99-.36 1.754-1.06 2.3-.68.54-1.51.814-2.5.814m8.8-8.61v6.51h1.04v1.79h-4.45v-1.79h1.04v-6.51h-1.04v-1.79h4.45v1.79h-1.05m2.46-1.79H202v1.79h-2.1v8.3h-2.67v-8.3h-2.084v-1.79M214.2 26.42h-2.674v-9.18h-1.777v-1.78h4.45v10.975m4.62-9.075v2.714c0 .24.08.447.26.62.17.174.38.26.63.26.24 0 .44-.086.62-.26.17-.173.26-.38.26-.62V17.36c0-.24-.09-.45-.26-.622-.18-.173-.38-.26-.62-.26-.25 0-.47.087-.64.26-.18.173-.26.38-.26.622zm.89-2.205c.99 0 1.82.27 2.5.815.7.544 1.05 1.305 1.05 2.285v5.373c0 .988-.35 1.755-1.06 2.298-.68.545-1.51.817-2.5.817-1.01 0-1.85-.272-2.53-.817-.7-.543-1.04-1.31-1.04-2.298v-.187h2.67v1.09c0 .24.09.45.26.62.17.18.38.26.63.26.24 0 .44-.08.62-.26.17-.17.26-.38.26-.62V22.2c-.29.053-.58.078-.88.078-1.01 0-1.85-.272-2.53-.814-.7-.545-1.05-1.306-1.05-2.286v-.923c0-.97.35-1.732 1.04-2.285.67-.544 1.52-.815 2.52-.815m8.02 2.205v2.714c0 .24.08.447.26.62.17.174.38.26.63.26s.45-.086.62-.26c.17-.173.26-.38.26-.62V17.36c0-.24-.09-.45-.26-.622-.18-.173-.38-.26-.63-.26s-.46.087-.63.26c-.18.173-.27.38-.27.622zm.89-2.205c.99 0 1.82.27 2.5.815.71.544 1.06 1.305 1.06 2.285v5.373c0 .988-.36 1.755-1.06 2.298-.68.545-1.51.817-2.5.817-1.01 0-1.85-.272-2.53-.817-.7-.543-1.04-1.31-1.04-2.298v-.187h2.67v1.09c0 .24.09.45.26.62.17.18.38.26.63.26.24 0 .45-.08.62-.26.17-.17.26-.38.26-.62V22.2c-.29.053-.58.078-.88.078-1.01 0-1.85-.272-2.53-.814-.7-.545-1.05-1.306-1.05-2.286v-.923c0-.97.35-1.732 1.04-2.285.68-.544 1.52-.815 2.53-.815m8.39 9.37c0 .24.09.45.26.62.17.174.39.26.632.26.24 0 .447-.086.62-.26.175-.17.26-.38.26-.62V21.81c0-.24-.085-.447-.26-.62-.173-.174-.38-.26-.62-.26-.25 0-.46.086-.635.26-.17.173-.26.38-.26.62v2.714zm.892 2.22c-1.006 0-1.85-.274-2.526-.82-.7-.542-1.05-1.31-1.05-2.297v-5.373c0-.97.34-1.732 1.04-2.285.68-.544 1.52-.815 2.52-.815.99 0 1.82.27 2.5.815.7.544 1.05 1.305 1.05 2.285v.028h-2.67v-.923c0-.24-.09-.45-.26-.622-.176-.173-.38-.26-.62-.26-.25 0-.464.087-.64.26-.17.173-.26.38-.26.622v2.325c.305-.052.6-.08.9-.08.99 0 1.82.27 2.5.816.702.55 1.055 1.31 1.055 2.29v.92c0 .99-.355 1.76-1.06 2.3-.675.55-1.51.82-2.5.82M146.9 247.53l6.887-3.62-1.316 7.666 5.57 5.428-7.69 1.118-3.44 6.974-3.44-6.974-7.69-1.118 5.57-5.428-1.31-7.666 6.89 3.62M22.88 16.168l6.885-3.62-1.316 7.666 5.56 5.427-7.7 1.12-3.45 6.98-3.44-6.97-7.7-1.12 5.57-5.42-1.32-7.66 6.88 3.62m248.01 0l6.88-3.62-1.32 7.67 5.57 5.43-7.7 1.12-3.44 6.98-3.44-6.97-7.7-1.12 5.57-5.42-1.3-7.67 6.88 3.62" fill="#fff"/>
  <path d="M76.416 143.844c1.42-3.99 2.624-8.018 3.624-12.073H55.35v12.08h14.062v55.98H87.44v-55.98H76.416m31.79 55.95h18.028v-49.09h-18.028v49.09z" fill="#231f20"/>
  <path d="M95.705 91.746c-3.606-2.826-7.12-4.867-10.544-6.13l17.58-29.476-18.02-.09-15.15 25.78V38.204H52.35v85.99h17.216V99.047c0-.778.21-1.546.63-2.3.42-.748.962-1.395 1.623-1.937.66-.54 1.41-.98 2.25-1.307.84-.332 1.68-.497 2.52-.497.84 0 1.68.165 2.52.497.84.328 1.59.766 2.25 1.306.66.54 1.2 1.18 1.62 1.93.42.75.63 1.52.63 2.3v3.15c0 14.24-2.41 28.12-7.21 41.64h25.17v-12.08h-7.66c.94-2.01 1.87-4.08 2.77-6.23 2.76-6.55 4.38-13.34 4.87-20.37l.09-.09v-2.88h-.18c-.55-4.21-2.47-7.69-5.77-10.46m63.82 34.6c-6.79 0-12.47-1.84-17.04-5.5-4.69-3.67-7.04-8.83-7.04-15.51V75.15c0-6.547 2.34-11.687 7.03-15.412 4.8-3.725 10.48-5.592 17.03-5.592 6.43 0 12.05 1.867 16.86 5.592 4.74 3.665 7.12 8.802 7.12 15.412v.904h-18.03v-6.94c0-1.684-.59-3.11-1.76-4.284-1.17-1.17-2.57-1.76-4.19-1.76-1.68 0-3.11.59-4.28 1.76-1.17 1.173-1.76 2.6-1.76 4.283v42.275c0 1.562.57 2.945 1.71 4.146 1.14 1.204 2.58 1.8 4.32 1.8 1.62 0 3.02-.583 4.19-1.756 1.17-1.173 1.75-2.57 1.75-4.19v-7.573h18.03v1.53c0 6.673-2.38 11.84-7.12 15.506-4.57 3.67-10.19 5.5-16.86 5.5m29.83-88.14h18.06v43.62l15.14-25.78 18.03.09L223 85.62c3.423 1.263 6.937 3.304 10.544 6.13 3.303 2.764 5.225 6.25 5.77 10.455h.18v2.89l-.09.09c-.45 6.545-1.89 12.88-4.31 19.01l-15.588-.01c1.306-7.225 1.96-14.55 1.96-21.974v-3.16c0-.78-.213-1.54-.633-2.3-.42-.75-.96-1.39-1.62-1.93-.66-.54-1.414-.98-2.254-1.3-.84-.33-1.69-.49-2.53-.49-.85 0-1.69.16-2.53.49-.84.33-1.59.77-2.25 1.31-.67.54-1.21 1.19-1.63 1.94-.42.76-.63 1.53-.63 2.3v25.15h-18.06v-86m-81.15 86.02h18.03V56.16H108.2v68.055zm-1.14 10.13s1.02-3.81 4.67-5.93c0 0-.28.26-.45 1.67-1.15 1.16-2.48 2.69-2.99 3.83-.5.13-.88.22-1.24.44m4.88-4.42c.33 0 2.68.15 3.73.52.43-.41 2.47-1.83 2.96-2.1-.3-.33-1.2-1.19-1.75-1.42-.59.04-2.34.16-3.7.77-.78.67-1.04 1.13-1.25 2.25m-.23.63s2.4.07 3.77.51l1.17 4.11-2.83 3.69-3.88-.65s-1-2.02-1.15-3.89c.42-.89 1.71-2.68 2.91-3.76m-3.54 4.05s-.91.25-1.37.69c-.14.63-.42 2.28.14 4.98l.92.92s.85-2.18 1.46-2.75c-.29-.63-1.04-2.58-1.16-3.83m1.67 4.24s-.72.71-1.47 2.91c.66 1.43 1.7 3.13 2.29 3.53.59.397 2.36.975 3.8.75.62-.79 1.47-2.34 1.67-2.853-.36-.37-2.25-2.9-2.38-3.65-.57-.095-3.79-.65-3.91-.675m-2.39 2.82s.82 1.68 1.25 2.13c-.24-.434-.87-1.644-.93-1.803-.13-.14-.32-.33-.32-.33m3.97 4.66s2.18 1.48 4.87 1.64c-.46-.29-1.766-1.29-1.766-1.29s-1.63.24-3.1-.35m5.312-2.894s2.26-.25 4.47-1.18c1.55 1.2 2.42 1.83 2.42 1.83s-.46 1.71-1.938 2.87c-1.45.79-3.71 1.04-4.01 1.04-.33-.144-1.96-1.07-2.6-1.67.38-.534 1.362-2 1.65-2.88m-.08-.63s2.933-.41 4.29-1.144c.183-.84.5-3.604.353-4.434-.95-.37-3.62-1.55-4.16-1.55-.39.46-2.79 3.59-2.79 3.59s.9 2.04 2.3 3.54m.63-7.763s1.76.46 4.29 1.607c1.14-.78 2.95-2.2 3.01-2.32 0-.19-.26-2.03-1.21-3.84-1.52-.923-2.3-1.27-4.19-1.73 0 0-2.064 1.268-3.08 2.2l1.18 4.08m.9-8.035c.45.04 3.44.3 6.15 2.77-.41.08-.65.14-.65.14s-1.41-1.13-4.36-1.774c-.39-.4-.9-.99-1.14-1.15m5.92 3.48l.8-.11s2.28 2.35 2.67 5.89c-.98-1.07-1.97-1.76-2.34-1.96-.01-.46-.59-2.95-1.13-3.82m.86 4.38s1.84 1.25 2.29 2.05c.01 1.354-.053 3.446-.263 4.196-.51.79-1.73 1.86-2.94 2.44l-2.45-1.82s.51-2.85.37-4.56c1.29-.9 3-2.3 3-2.3m1.09 8.17s-1.61 2.275-2.46 2.723c.3-.61.566-1.11.657-1.58.51-.24 1.5-.87 1.8-1.148" fill="#fff"/>
  <path d="M165.715 145.044c0-1.675-.584-3.098-1.752-4.266-1.168-1.168-2.56-1.752-4.177-1.752-1.676 0-3.1.584-4.266 1.75-1.168 1.17-1.75 2.593-1.75 4.268v24.162c0 1.678.582 3.085 1.75 4.222 1.167 1.138 2.59 1.706 4.266 1.706 1.618 0 3.01-.568 4.176-1.706 1.17-1.137 1.753-2.544 1.753-4.222v-24.162zm-5.93 38.984c-2.215 0-4.22-.18-6.016-.54v16.527H135.8v-48.952c0-9.042 4.28-15.33 12.843-18.863 3.774-1.377 7.487-2.066 11.14-2.066 6.407 0 12.004 1.857 16.795 5.57 4.73 3.652 7.098 8.772 7.098 15.36v12.125c0 6.58-2.368 11.7-7.098 15.35-4.55 3.65-10.148 5.48-16.796 5.48m59.516-38.99c0-1.68-.584-3.1-1.75-4.27-1.17-1.17-2.56-1.75-4.18-1.75-1.675 0-3.098.58-4.265 1.75-1.167 1.17-1.75 2.59-1.75 4.26v24.17c0 1.68.583 3.08 1.75 4.22s2.59 1.7 4.266 1.7c1.62 0 3.01-.57 4.18-1.71 1.16-1.14 1.75-2.55 1.75-4.22v-24.16zm-5.93 38.98c-2.215 0-4.22-.18-6.016-.54V200H189.39v-48.95c0-9.04 4.28-15.33 12.844-18.862 3.772-1.378 7.485-2.067 11.137-2.067 6.41 0 12.01 1.86 16.8 5.57 4.73 3.66 7.1 8.78 7.1 15.36v12.13c0 6.59-2.36 11.71-7.09 15.36-4.55 3.66-10.15 5.48-16.79 5.48" fill="#231f20"/>
  <path d="M118.897 207.706c2.333 0 4.3.643 5.897 1.924 1.66 1.282 2.49 3.08 2.49 5.393v.062c0 .863-.194 1.756-.583 2.68-.39.925-.89 1.85-1.51 2.775-.62.926-1.32 1.845-2.11 2.76-.79.914-1.57 1.78-2.35 2.6-.78.82-1.51 1.588-2.2 2.302-.69.717-1.27 1.347-1.73 1.892h10.5v4.226h-16.81v-4.226c1.33-1.513 2.62-2.87 3.88-4.068 1.26-1.197 2.38-2.42 3.36-3.672.98-1.25 1.77-2.618 2.37-4.1.6-1.48.9-3.263.9-5.345 0-.57-.2-1.06-.61-1.47-.41-.41-.9-.62-1.46-.62-.59 0-1.09.2-1.5.61-.41.41-.61.9-.61 1.46v3.18h-6.31V215c0-2.29.82-4.09 2.46-5.39 1.6-1.28 3.58-1.925 5.96-1.925m17.53 22.105c0 .57.21 1.056.62 1.467.41.41.91.615 1.5.615.57 0 1.06-.2 1.47-.612.41-.41.62-.9.62-1.47v-16.9c0-.57-.2-1.055-.61-1.464-.41-.41-.9-.615-1.46-.615-.58 0-1.08.21-1.49.62-.41.41-.61.9-.61 1.47v16.9zm2.11 5.235c-2.37 0-4.36-.64-5.95-1.92-1.64-1.28-2.46-3.09-2.46-5.42v-12.68c0-2.29.82-4.09 2.46-5.395 1.6-1.28 3.58-1.925 5.96-1.925 2.34 0 4.3.644 5.9 1.925 1.66 1.28 2.49 3.08 2.49 5.396v12.68c0 2.335-.83 4.14-2.49 5.425-1.6 1.28-3.56 1.93-5.9 1.93m22.23-.72h-6.31v-21.69h-4.2v-4.19h10.5v25.89m11.1-4.59c0 .57.21 1.06.62 1.47.41.41.91.62 1.5.62.57 0 1.05-.2 1.46-.61.41-.41.62-.9.62-1.47v-6.4c0-.56-.2-1.05-.61-1.46-.41-.41-.9-.62-1.46-.62-.58 0-1.09.21-1.5.61-.41.41-.61.9-.61 1.47v6.4zm2.11 5.24c-2.37 0-4.36-.64-5.96-1.92-1.64-1.28-2.46-3.09-2.46-5.42v-12.68c0-2.29.82-4.09 2.46-5.39 1.6-1.28 3.59-1.92 5.96-1.92 2.34 0 4.3.64 5.9 1.93 1.66 1.28 2.5 3.07 2.5 5.39v.07h-6.31v-2.18c0-.57-.2-1.06-.61-1.47-.41-.41-.89-.61-1.46-.61-.59 0-1.09.2-1.5.61-.41.41-.61.9-.61 1.47v5.49c.72-.12 1.42-.18 2.11-.18 2.34 0 4.3.64 5.9 1.93 1.66 1.28 2.49 3.08 2.49 5.39v2.177c0 2.34-.83 4.15-2.49 5.43-1.6 1.29-3.57 1.93-5.9 1.93" fill="#fff"/>
</svg>
