<?xml version="1.0" encoding="UTF-8" standalone="no"?>
<svg
   xmlns:dc="http://purl.org/dc/elements/1.1/"
   xmlns:cc="http://creativecommons.org/ns#"
   xmlns:rdf="http://www.w3.org/1999/02/22-rdf-syntax-ns#"
   xmlns:svg="http://www.w3.org/2000/svg"
   xmlns="http://www.w3.org/2000/svg"
   xmlns:sodipodi="http://sodipodi.sourceforge.net/DTD/sodipodi-0.dtd"
   xmlns:inkscape="http://www.inkscape.org/namespaces/inkscape"
   xml:space="preserve"
   enable-background="new 0 0 100 100"
   viewBox="0 0 1000 1000"
   height="1000"
   width="1000"
   y="0px"
   x="0px"
   id="Layer_1"
   version="1.1"
   inkscape:version="0.91 r13725"
   sodipodi:docname="arrow-up-down.svg"><sodipodi:namedview
     pagecolor="#ffffff"
     bordercolor="#666666"
     borderopacity="1"
     objecttolerance="10"
     gridtolerance="10"
     guidetolerance="10"
     inkscape:pageopacity="0"
     inkscape:pageshadow="2"
     inkscape:window-width="1920"
     inkscape:window-height="1027"
     id="namedview8"
     showgrid="false"
     inkscape:zoom="0.59"
     inkscape:cx="942.39874"
     inkscape:cy="439.02793"
     inkscape:window-x="0"
     inkscape:window-y="27"
     inkscape:window-maximized="1"
     inkscape:current-layer="Layer_1" /><metadata
     id="metadata11"><rdf:RDF><cc:Work
         rdf:about=""><dc:format>image/svg+xml</dc:format><dc:type
           rdf:resource="http://purl.org/dc/dcmitype/StillImage" /><dc:title></dc:title></cc:Work></rdf:RDF></metadata><defs
     id="defs9" /><g
     id="g3"
     transform="matrix(1.0530209,1.0530209,-1.0530209,1.0530209,-198.6524,304.53704)" /><g
     transform="matrix(-8.9454311,-8.9454311,8.9454311,-8.9454311,499.99866,1397.8766)"
     id="g4141"><path
       id="path4143"
       transform="matrix(-1,0,0,-1,99.999849,100)"
       d="m 23.542969,53.044922 24.496093,34.240234 c 0.471,0.66 1.232969,1.050735 2.042969,1.052735 l 0.0059,0 c 0.815,-0.002 1.575828,-0.397547 2.048828,-1.060547 L 76.470703,53.042969 Z M 76.457031,46.955078 51.960938,12.714844 c -0.471,-0.66 -1.232969,-1.050735 -2.042969,-1.052735 l -0.0059,0 c -0.815,0.002 -1.575828,0.397547 -2.048828,1.060547 L 23.529297,46.957031 Z"
       inkscape:connector-curvature="0" /></g></svg>