<?xml version="1.0" encoding="UTF-8" standalone="no"?>
<!-- Generator: Adobe Illustrator 17.0.0, SVG Export Plug-In . SVG Version: 6.00 Build 0)  -->

<svg
   xmlns:dc="http://purl.org/dc/elements/1.1/"
   xmlns:cc="http://creativecommons.org/ns#"
   xmlns:rdf="http://www.w3.org/1999/02/22-rdf-syntax-ns#"
   xmlns:svg="http://www.w3.org/2000/svg"
   xmlns="http://www.w3.org/2000/svg"
   xmlns:sodipodi="http://sodipodi.sourceforge.net/DTD/sodipodi-0.dtd"
   xmlns:inkscape="http://www.inkscape.org/namespaces/inkscape"
   id="Layer_1"
   enable-background="new 0 0 100 100"
   xml:space="preserve"
   height="1000"
   viewBox="0 0 1000 1000"
   width="1000"
   version="1.1"
   y="0px"
   x="0px"
   inkscape:version="0.91 r13725"
   sodipodi:docname="like.svg"><defs
     id="defs9" /><sodipodi:namedview
     pagecolor="#ffffff"
     bordercolor="#666666"
     borderopacity="1"
     objecttolerance="10"
     gridtolerance="10"
     guidetolerance="10"
     inkscape:pageopacity="0"
     inkscape:pageshadow="2"
     inkscape:window-width="1920"
     inkscape:window-height="1027"
     id="namedview7"
     showgrid="false"
     inkscape:zoom="0.295"
     inkscape:cx="5.7888801"
     inkscape:cy="396.22313"
     inkscape:window-x="0"
     inkscape:window-y="27"
     inkscape:window-maximized="1"
     inkscape:current-layer="Layer_1"
     showguides="true"
     inkscape:guide-bbox="true"><sodipodi:guide
       position="-349.15254,203.38983"
       orientation="0,1"
       id="guide4137" /></sodipodi:namedview><metadata
     id="metadata13"><rdf:RDF><cc:Work
         rdf:about=""><dc:format>image/svg+xml</dc:format><dc:type
           rdf:resource="http://purl.org/dc/dcmitype/StillImage" /><dc:title></dc:title></cc:Work></rdf:RDF></metadata><g
     id="g3"
     transform="matrix(11.239744,0,0,11.239744,-62.020919,-115.69808)"><path
       id="path5"
       d="m 82.49,74.33 c 0,-0.12 -0.019,-0.234 -0.035,-0.35 l 0,-26.92 -0.001,0 c 0,-0.003 0.001,-0.006 0.001,-0.009 0,-1.401 -1.136,-2.536 -2.537,-2.536 -0.047,0 -0.09,0.011 -0.136,0.014 l -4.799,0 0,0.018 c -1.361,0.04 -2.452,1.145 -2.461,2.513 l -0.008,0 0,27.5 0.043,0 c 0.12,1.257 1.147,2.243 2.426,2.287 l 0,0.022 4.971,0 c 1.4,0 2.536,-1.136 2.536,-2.537 z"
       inkscape:connector-curvature="0" /><path
       id="path7"
       d="m 67.49,78.55 0,-8.341 0,-28.15 c 0,-0.003 0.001,-0.006 0.001,-0.009 0,-1.401 -1.136,-2.536 -2.537,-2.536 -0.046,0 -0.09,0.011 -0.136,0.014 l -9.932,0 c -0.15,-0.244 -0.334,-0.453 -0.536,-0.637 l -9.88,-17.12 -0.025,0.015 c -0.99,-1.753 -2.848,-2.936 -4.98,-2.936 -3.171,0 -5.742,2.608 -5.742,5.825 l -0.058,0 0,3.257 0,0.105 0,11.48 -13.68,0 0,0.018 c -1.361,0.04 -2.452,1.145 -2.461,2.513 l -0.008,0 0,28.15 0.006,0 c 0,0.323 0.124,0.646 0.368,0.894 l -0.003,0.003 9.764,9.764 0.024,-0.024 c 0.281,0.231 0.626,0.318 0.967,0.272 l 36.1,0 c 0.073,0.006 0.143,0.022 0.217,0.022 1.355,0 2.454,-1.066 2.523,-2.405 l 0.008,0 0,-0.078 c 0,-0.018 0.005,-0.035 0.005,-0.053 0,-0.018 -0.003,-0.035 -0.004,-0.053 z m -46.98,-8.342 0.042,0.047 -0.047,-0.047 0.005,0 z"
       inkscape:connector-curvature="0" /></g></svg>