<svg id="svg2" xmlns:rdf="http://www.w3.org/1999/02/22-rdf-syntax-ns#" xmlns="http://www.w3.org/2000/svg" height="2667" width="4001" version="1.1" xmlns:cc="http://creativecommons.org/ns#" xmlns:xlink="http://www.w3.org/1999/xlink" viewBox="0 0 3.7508009 2.50053" xmlns:dc="http://purl.org/dc/elements/1.1/">
 <metadata id="metadata600">
  <rdf:RDF>
   <cc:Work rdf:about="">
    <dc:format>image/svg+xml</dc:format>
    <dc:type rdf:resource="http://purl.org/dc/dcmitype/StillImage"/>
    <dc:title/>
   </cc:Work>
  </rdf:RDF>
 </metadata>
 <path id="path4" fill="#c60b1e" d="m-0.0000293 1.875h3.751v0.6251h-3.751zm0-1.875h3.751v0.6251h-3.751z"/>
 <path id="path6" fill="#ffc400" d="m-0.0000293 0.6251h3.751v1.25h-3.751z"/>
 <g id="g8" stroke-width="0.39" stroke="#000000" transform="matrix(.004168 0 0 .004168 -.00002930 0)">
  <g id="g10" transform="matrix(1.2 .0004817 -.0004817 1.2 0 0)">
   <g id="g12" stroke-width="0.26">
    <path id="path14" stroke-linejoin="round" fill="#ad1519" d="m168 222.2s-0.51 0-0.79-0.16-1.13-0.96-1.13-0.96l-0.68-0.49-0.62-0.85s-0.73-1.18-0.4-2.09c0.34-0.91 0.91-1.23 1.42-1.5 0.51-0.26 1.58-0.59 1.58-0.59s0.85-0.37 1.13-0.42c0.28-0.06 1.3-0.32 1.3-0.32s0.28-0.16 0.56-0.27c0.29-0.11 0.68-0.11 0.91-0.16 0.22-0.06 0.79-0.24 1.13-0.26 0.52-0.02 1.36 0.1 1.64 0.1s1.24 0.05 1.64 0.05c0.39 0 1.8-0.11 2.2-0.11 0.39 0 0.68-0.05 1.13 0 0.45 0.06 1.24 0.32 1.47 0.43s1.58 0.59 2.09 0.75 1.75 0.37 2.32 0.64c0.56 0.27 0.91 0.72 1.19 1.1 0.28 0.37 0.34 0.78 0.45 1.05 0.11 0.26 0.11 0.84 0 1.11-0.11 0.26-0.51 0.81-0.51 0.81l-0.62 1.02-0.79 0.64s-0.57 0.54-1.02 0.48c-0.45-0.04-5.03-0.86-7.97-0.86s-7.64 0.86-7.64 0.86h0.01z"/>
    <g id="g16" fill="#c8b100">
     <ellipse id="ellipse18" cy="215.7" cx="175.7" rx="1.38" ry="2.5"/>
     <ellipse id="ellipse20" cy="215.7" cx="175.7" rx="0.64" ry="2.3"/>
     <ellipse id="ellipse22" rx="0.93" ry=".87" cy="213" cx="175.7"/>
     <path id="path24" stroke-width="0.3" d="m177 212.7v0.58h-2.53v-0.58h0.94v-1.32h-0.62v-0.57h0.62v-0.57h0.6v0.57h0.62v0.57h-0.62v1.32h0.99"/>
     <path id="path26" fill="none" d="m175.9 212.2"/>
     <path id="path28" d="m175.7 222.1h-4.81l-0.11-1.18-0.23-1.23-0.23-1.53c-1.33-1.75-2.55-2.9-2.96-2.65 0.1-0.32 0.22-0.56 0.47-0.71 1.18-0.7 3.61 0.98 5.44 3.74 0.16 0.25 0.32 0.5 0.46 0.75h3.97c0.14-0.25 0.3-0.5 0.46-0.75 1.82-2.76 4.26-4.44 5.43-3.74 0.26 0.15 0.37 0.39 0.47 0.71-0.41-0.24-1.62 0.9-2.96 2.65l-0.23 1.53-0.23 1.23-0.1 1.18h-4.84z"/>
     <path id="path30" fill="none" d="m167.6 215.4c0.91-0.53 3.02 1.14 4.73 3.74m11.55-3.74c-0.91-0.53-3.01 1.14-4.73 3.74"/>
    </g>
    <g id="a" fill="#c8b100">
     <path id="path33" d="m168.6 224.2c-0.2-0.57-0.58-1.08-0.58-1.08 1.95-0.57 4.66-0.93 7.67-0.94 3.01 0.01 5.75 0.37 7.69 0.94 0 0-0.22 0.38-0.52 0.91-0.17 0.3-0.39 0.81-0.38 0.81-1.75-0.54-4.02-0.81-6.8-0.82-2.79 0.01-5.46 0.35-6.86 0.86 0.02 0-0.1-0.32-0.23-0.68h0.01"/>
     <path id="path35" d="m175.7 226.7c2.43-0.01 5.11-0.38 6.1-0.63 0.66-0.2 1.05-0.49 0.98-0.84-0.04-0.16-0.18-0.3-0.37-0.38-1.46-0.47-4.07-0.8-6.71-0.8-2.63 0-5.27 0.33-6.72 0.8-0.19 0.08-0.33 0.22-0.37 0.38-0.07 0.35 0.32 0.64 0.98 0.84 0.99 0.25 3.68 0.62 6.11 0.63zm7.81-4.65-0.59-0.53s-0.57 0.34-1.28 0.24c-0.7-0.11-0.93-0.97-0.93-0.97s-0.79 0.67-1.44 0.62c-0.65-0.06-1.07-0.62-1.07-0.62s-0.71 0.51-1.33 0.46c-0.62-0.06-1.21-0.83-1.21-0.83s-0.63 0.8-1.25 0.86c-0.62 0.05-1.13-0.54-1.13-0.54s-0.28 0.59-1.07 0.72-1.47-0.62-1.47-0.62-0.45 0.73-0.99 0.92c-0.54 0.18-1.24-0.27-1.24-0.27s-0.12 0.27-0.2 0.43-0.31 0.19-0.31 0.19l0.18 0.47c1.93-0.56 4.56-0.91 7.53-0.91s5.67 0.35 7.61 0.92l0.2-0.54h-0.01z"/>
     <path id="path37" d="m175.7 219.5 0.28 0.05c-0.05 0.12-0.06 0.24-0.06 0.38 0 0.58 0.5 1.05 1.12 1.05 0.49 0 0.91-0.31 1.06-0.73 0.01 0.01 0.11-0.38 0.15-0.38 0.03 0 0.03 0.41 0.05 0.41 0.07 0.53 0.55 0.89 1.1 0.89 0.62 0 1.11-0.47 1.11-1.06 0-0.04 0-0.08-0.01-0.12l0.35-0.35 0.19 0.44c-0.07 0.14-0.1 0.29-0.1 0.46 0 0.56 0.47 1.01 1.06 1.01 0.37 0 0.69-0.18 0.88-0.45l0.23-0.29v0.36c0 0.34 0.14 0.66 0.49 0.71 0 0 0.38 0.03 0.91-0.38 0.52-0.41 0.8-0.75 0.8-0.75l0.03 0.42s-0.51 0.84-0.97 1.1c-0.25 0.15-0.64 0.31-0.95 0.25-0.32-0.05-0.55-0.31-0.67-0.61-0.23 0.14-0.51 0.22-0.8 0.22-0.63 0-1.2-0.35-1.42-0.86-0.29 0.31-0.69 0.5-1.16 0.5-0.51 0-0.97-0.23-1.26-0.58-0.28 0.27-0.67 0.43-1.09 0.43-0.55 0-1.05-0.28-1.33-0.69-0.29 0.41-0.78 0.69-1.34 0.69-0.42 0-0.81-0.16-1.09-0.43-0.29 0.35-0.75 0.58-1.25 0.58-0.48 0-0.88-0.19-1.17-0.5-0.22 0.51-0.79 0.86-1.42 0.86-0.29 0-0.56-0.08-0.79-0.22-0.12 0.3-0.35 0.56-0.68 0.61-0.3 0.06-0.69-0.1-0.94-0.25-0.47-0.26-1.02-1.1-1.02-1.1l0.07-0.42s0.29 0.34 0.81 0.75 0.91 0.38 0.91 0.38c0.34-0.05 0.49-0.37 0.49-0.71v-0.36l0.22 0.29c0.19 0.27 0.51 0.45 0.88 0.45 0.59 0 1.06-0.45 1.06-1.01 0-0.17-0.02-0.32-0.1-0.46l0.19-0.44 0.35 0.35c-0.01 0.04-0.01 0.08-0.01 0.12 0 0.59 0.49 1.06 1.11 1.06 0.55 0 1.03-0.36 1.11-0.89 0.01 0 0.01-0.41 0.04-0.41 0.05 0 0.14 0.39 0.16 0.38 0.14 0.42 0.56 0.73 1.06 0.73 0.61 0 1.11-0.47 1.11-1.05 0-0.14 0-0.26-0.05-0.38l0.29-0.05h0.01z"/>
     <path id="path39" stroke-linejoin="round" d="m175.7 222.2c-3.01 0.01-5.72 0.37-7.67 0.94-0.13 0.04-0.29-0.06-0.33-0.17-0.04-0.13 0.05-0.28 0.18-0.32 1.95-0.6 4.73-0.98 7.82-0.98s5.88 0.38 7.83 0.98c0.13 0.04 0.22 0.19 0.18 0.32-0.04 0.11-0.2 0.21-0.33 0.17-1.95-0.57-4.67-0.93-7.68-0.94z"/>
     <path id="path41" d="m165.4 221c-0.01 0.01-0.38-0.48-0.65-0.73-0.2-0.18-0.68-0.33-0.68-0.33 0-0.08 0.28-0.28 0.58-0.28 0.18 0 0.35 0.07 0.45 0.2l0.04-0.2s0.24 0.05 0.35 0.32c0.12 0.29 0.05 0.72 0.05 0.72s-0.05 0.2-0.14 0.3zm1.89-0.78-0.11 0.66-1.4 0.15-0.21-0.12 0.04-0.23 1.06-0.87 0.62 0.41"/>
     <path id="path43" d="m165.4 220.8c0.12-0.12 0.36-0.09 0.53 0.06 0.18 0.15 0.24 0.38 0.12 0.5-0.12 0.13-0.36 0.1-0.53-0.06-0.18-0.15-0.24-0.38-0.12-0.5zm2.57 0.13c-0.06-0.18 0-0.37 0.13-0.42 0.14-0.03 0.3 0.09 0.37 0.27 0.06 0.19 0 0.38-0.14 0.42-0.13 0.04-0.29-0.08-0.36-0.27zm0.65-0.84 0.51 0.48 1.22-0.66 0.09-0.21-0.17-0.17-1.4-0.12-0.25 0.68"/>
     <path id="path45" d="m170.1 217.8-0.67 0.64 0.86 1.14 0.23 0.09 0.17-0.18 0.3-1.37-0.89-0.32"/>
     <path id="path47" d="m172.4 219.3-0.26 0.63-1.4-0.13-0.18-0.16 0.1-0.22 1.22-0.64 0.52 0.52"/>
     <ellipse id="ellipse49" cy="219.6" cx="170.5" rx="0.49" ry=".47"/>
     <path id="path51" d="m172.9 220c-0.03-0.2 0.07-0.37 0.21-0.39s0.28 0.13 0.3 0.33c0.03 0.19-0.07 0.37-0.21 0.38-0.14 0.02-0.28-0.13-0.3-0.32zm0.91-0.71 0.4 0.57 1.34-0.42 0.14-0.18-0.15-0.2-1.33-0.39-0.4 0.62"/>
     <path id="path53" d="m175.7 217.2-0.86 0.52 0.64 1.38 0.22 0.14 0.22-0.14 0.64-1.38-0.86-0.52"/>
     <path id="path55" d="m177.6 219.2-0.39 0.57-1.34-0.42-0.14-0.18 0.14-0.2 1.34-0.39 0.39 0.62"/>
     <ellipse id="ellipse57" cy="219.2" cx="175.7" rx="0.49" ry=".47"/>
     <path id="path59" d="m178.5 220c0.02-0.2-0.08-0.37-0.22-0.39s-0.28 0.13-0.3 0.33c-0.02 0.19 0.07 0.37 0.21 0.38 0.14 0.02 0.28-0.13 0.31-0.32zm0.49-0.65 0.26 0.63 1.4-0.13 0.18-0.16-0.1-0.22-1.22-0.64-0.52 0.52"/>
     <path id="path61" d="m181.3 217.8 0.67 0.64-0.86 1.14-0.23 0.09-0.17-0.18-0.3-1.37 0.89-0.32"/>
     <path id="path63" d="m182.7 220-0.51 0.48-1.22-0.66-0.1-0.21 0.19-0.17 1.4-0.12 0.24 0.68"/>
     <ellipse id="ellipse65" cy="219.6" cx="180.9" rx="0.49" ry=".47"/>
     <path id="path67" d="m183.3 220.9c0.06-0.18 0-0.37-0.13-0.42-0.14-0.03-0.3 0.09-0.37 0.27-0.06 0.19 0 0.38 0.14 0.42 0.13 0.04 0.29-0.08 0.36-0.27zm2.39 0.12c0.01 0.01 0.38-0.48 0.66-0.73 0.19-0.18 0.67-0.33 0.67-0.33 0-0.08-0.28-0.28-0.58-0.28-0.18 0-0.35 0.07-0.45 0.2l-0.04-0.2s-0.24 0.05-0.36 0.32c-0.11 0.29-0.03 0.72-0.03 0.72s0.04 0.2 0.13 0.3zm-1.89-0.78 0.11 0.66 1.4 0.15 0.21-0.12-0.05-0.23-1.05-0.87-0.62 0.41"/>
     <path id="path69" d="m185.7 220.8c-0.11-0.12-0.35-0.09-0.53 0.06s-0.24 0.38-0.12 0.5c0.12 0.13 0.36 0.1 0.54-0.06 0.18-0.15 0.23-0.38 0.11-0.5z"/>
    </g>
    <g id="b" fill="none">
     <path id="path72" fill="#ad1519" d="m168 224.3 0.31-0.5 0.65 0.13-0.38 0.56-0.58-0.19"/>
     <path id="path74" fill="#058e6e" d="m170.8 223.8-0.69 0.11c-0.18 0.02-0.35-0.09-0.38-0.26-0.02-0.17 0.1-0.32 0.27-0.35l0.7-0.1 0.71-0.11c0.18-0.02 0.34 0.09 0.37 0.25 0.02 0.17-0.1 0.33-0.27 0.35l-0.71 0.11"/>
     <ellipse id="ellipse76" rx=".44" ry=".41" cy="223.3" cx="173.2" fill="#ffffff"/>
     <path id="path78" fill="#ad1519" d="m175.7 223.5h-0.96c-0.18 0-0.33-0.14-0.33-0.31s0.14-0.31 0.32-0.31h1.96c0.19 0 0.33 0.14 0.33 0.31s-0.15 0.31-0.33 0.31h-0.99"/>
     <ellipse id="ellipse80" rx=".44" ry=".41" cy="223.3" cx="178.2" fill="#ffffff"/>
     <path id="path82" fill="#058e6e" d="m180.5 223.8 0.69 0.11c0.18 0.02 0.35-0.09 0.38-0.26 0.02-0.17-0.09-0.32-0.27-0.35l-0.7-0.1-0.71-0.11c-0.18-0.02-0.35 0.09-0.37 0.25-0.03 0.17 0.09 0.33 0.27 0.35l0.71 0.11"/>
     <path id="path84" fill="#ad1519" d="m183.2 224.3-0.25-0.53-0.67 0.06 0.32 0.59 0.6-0.12"/>
     <path id="path86" stroke-linejoin="round" fill="#ad1519" d="m175.7 226.2c-2.43 0-4.63-0.22-6.3-0.65 1.67-0.43 3.87-0.69 6.3-0.7 2.44 0 4.65 0.27 6.33 0.7-1.68 0.43-3.89 0.65-6.33 0.65z"/>
     <path id="path88" stroke-width=".01" d="m176.8 226.1v-1.16m-0.58 1.2 0.01-1.23m-0.43 1.25v-1.26"/>
     <path id="path90" stroke-width=".02" d="m175.4 226.2v-1.27"/>
     <path id="path92" stroke-width=".03" d="m175.1 226.2v-1.27"/>
     <path id="path94" stroke-width=".04" d="m174.8 226.2v-1.27m-0.33 1.27v-1.27"/>
     <path id="path96" stroke-width=".05" d="m174.2 226.2v-1.27"/>
     <path id="path98" stroke-width=".06" d="m173.6 226.1-0.01-1.15m0.27 1.17v-1.21"/>
     <path id="path100" stroke-width=".07" d="m173.1 226v-1.06m0.26 1.09-0.01-1.13"/>
     <path id="path102" stroke-width=".08" d="m172.4 226v-0.93m0.23 0.94v-0.98m0.23 1.02v-1.02"/>
     <path id="path104" stroke-width=".09" d="m172.2 226v-0.9"/>
     <path id="path106" stroke-width=".1" d="m172 225.9v-0.85"/>
     <path id="path108" stroke-width=".11" d="m171.7 225.9v-0.78"/>
     <path id="path110" stroke-width=".12" d="m171.2 225.8-0.01-0.62m0.26 0.66v-0.7m-0.5 0.61v-0.55"/>
     <path id="path112" stroke-width=".13" d="m170.8 225.7v-0.46"/>
     <path id="path114" stroke-width=".14" d="m170.5 225.7v-0.36"/>
     <path id="path116" stroke-width="0.15" d="m170.3 225.6v-0.27"/>
     <path id="path118" stroke-width="0.18" d="m170 225.6v-0.13"/>
    </g>
   </g>
   <g id="c">
    <g id="g121" fill="#005bbf">
     <path id="path123" d="m191.3 330.7c-1.54 0-2.91-0.33-3.93-0.87-1-0.51-2.36-0.82-3.86-0.82-1.51 0-2.9 0.32-3.91 0.83-1.01 0.53-2.4 0.86-3.92 0.86-1.54 0-2.92-0.36-3.93-0.9-1-0.49-2.33-0.79-3.79-0.79-1.52 0-2.86 0.29-3.86 0.81-1.02 0.54-2.42 0.88-3.95 0.88v2.41c1.53 0 2.93-0.35 3.95-0.88 1-0.52 2.34-0.82 3.86-0.82 1.45 0 2.79 0.31 3.79 0.8 1.01 0.53 2.39 0.9 3.93 0.9 1.52 0 2.91-0.33 3.92-0.86 1.01-0.52 2.4-0.84 3.91-0.84 1.5 0 2.86 0.32 3.86 0.83 1.02 0.54 2.37 0.87 3.91 0.87l0.02-2.41z"/>
     <path id="path125" fill="#cccccc" d="m191.3 333.1c-1.54 0-2.91-0.33-3.93-0.87-1-0.51-2.36-0.83-3.86-0.83-1.51 0-2.9 0.32-3.91 0.84-1.01 0.53-2.4 0.86-3.92 0.86-1.54 0-2.92-0.37-3.93-0.9-1-0.49-2.33-0.8-3.79-0.8-1.52 0-2.86 0.3-3.86 0.82-1.02 0.53-2.42 0.88-3.95 0.88v2.41c1.53 0 2.93-0.35 3.95-0.88 1-0.52 2.34-0.82 3.86-0.82 1.45 0 2.79 0.31 3.79 0.8 1.01 0.54 2.39 0.9 3.93 0.9 1.52 0 2.91-0.34 3.92-0.86s2.4-0.84 3.91-0.84c1.5 0 2.86 0.32 3.86 0.84 1.02 0.53 2.37 0.86 3.91 0.86l0.02-2.41"/>
     <path id="path127" d="m191.3 335.5c-1.54 0-2.91-0.33-3.93-0.86-1-0.52-2.36-0.84-3.86-0.84-1.51 0-2.9 0.32-3.91 0.84s-2.4 0.86-3.92 0.86c-1.54 0-2.92-0.36-3.93-0.9-1-0.49-2.33-0.8-3.79-0.8-1.52 0-2.86 0.3-3.86 0.82-1.02 0.53-2.42 0.88-3.95 0.88v2.4c1.53 0 2.93-0.34 3.95-0.88 1-0.51 2.34-0.8 3.86-0.8 1.45 0 2.79 0.3 3.79 0.79 1.01 0.54 2.39 0.89 3.93 0.89 1.52 0 2.91-0.32 3.92-0.85 1.01-0.52 2.4-0.83 3.91-0.83 1.5 0 2.86 0.31 3.86 0.82 1.02 0.55 2.37 0.86 3.91 0.86l0.02-2.4"/>
     <path id="path129" fill="#cccccc" d="m191.3 340.3c-1.54 0-2.89-0.33-3.91-0.87-1-0.51-2.36-0.82-3.86-0.82-1.51 0-2.9 0.31-3.91 0.83s-2.4 0.86-3.92 0.86c-1.54 0-2.92-0.37-3.93-0.9-1-0.5-2.33-0.79-3.79-0.79-1.52 0-2.86 0.29-3.86 0.81-1.02 0.53-2.42 0.88-3.95 0.88v-2.4c1.53 0 2.93-0.36 3.95-0.9 1-0.51 2.34-0.8 3.86-0.8 1.45 0 2.79 0.3 3.79 0.79 1.01 0.54 2.39 0.89 3.93 0.89 1.52 0 2.91-0.32 3.92-0.85 1.01-0.52 2.4-0.83 3.91-0.83 1.5 0 2.86 0.31 3.86 0.82 1.02 0.55 2.39 0.86 3.93 0.86l-0.02 2.42"/>
     <path id="path131" d="m191.3 342.7c-1.54 0-2.89-0.33-3.91-0.86-1-0.52-2.36-0.84-3.86-0.84-1.51 0-2.9 0.32-3.91 0.84s-2.4 0.86-3.92 0.86c-1.54 0-2.92-0.37-3.93-0.9-1-0.5-2.33-0.8-3.79-0.8-1.52 0-2.86 0.3-3.86 0.82-1.02 0.53-2.42 0.88-3.95 0.88v-2.39c1.53 0 2.93-0.37 3.95-0.9 1-0.52 2.34-0.81 3.86-0.81 1.45 0 2.79 0.3 3.79 0.79 1.01 0.53 2.39 0.9 3.93 0.9 1.52 0 2.91-0.34 3.92-0.86s2.4-0.83 3.91-0.83c1.5 0 2.86 0.31 3.86 0.82 1.02 0.54 2.38 0.87 3.93 0.87l-0.02 2.41z"/>
    </g>
    <g id="g133" fill="#c8b100">
     <path id="path135" stroke-linejoin="round" d="m166.9 320.8c0.05 0.21 0.13 0.4 0.13 0.62 0 1.46-1.27 2.63-2.81 2.63h22.94c-1.55 0-2.81-1.17-2.81-2.63 0-0.21 0.04-0.41 0.09-0.62-0.13 0.05-0.29 0.06-0.44 0.06h-16.69c-0.13 0-0.29-0.02-0.41-0.06z"/>
     <path id="path137" d="m167.3 319.3h16.69c0.57 0 1.02 0.35 1.02 0.78s-0.45 0.79-1.02 0.79h-16.69c-0.56 0-1.02-0.36-1.02-0.79s0.46-0.78 1.02-0.78zm-3.06 10.59h22.87v-5.83h-22.87v5.83z"/>
    </g>
    <path id="path139" fill="#cccccc" d="m167.6 318.3h16.25v-79.63h-16.25v79.63z"/>
    <path id="path141" fill="none" d="m179.1 238.8v79.46m1.83-79.46v79.46"/>
    <g id="g143" fill="#c8b100">
     <path id="path145" d="m164.6 232.4h22.29v-5.84h-22.29v5.84z"/>
     <path id="path147" stroke-linejoin="round" d="m166.9 236.3c0.14-0.06 0.24-0.07 0.41-0.07h16.69c0.17 0 0.32 0.03 0.46 0.08-0.58-0.19-0.99-0.71-0.99-1.32s0.45-1.14 1.03-1.33c-0.14 0.04-0.33 0.08-0.49 0.08h-16.7c-0.17 0-0.33-0.01-0.47-0.06l0.09 0.02c0.6 0.18 0.94 0.71 0.94 1.29 0 0.56-0.38 1.13-0.97 1.31z"/>
     <path id="path149" d="m167.3 236.2h16.69c0.57 0 1.02 0.35 1.02 0.78 0 0.44-0.45 0.79-1.02 0.79h-16.69c-0.56 0-1.02-0.35-1.02-0.79 0-0.43 0.46-0.78 1.02-0.78zm0-3.82h16.7c0.57 0 1.03 0.3 1.03 0.66 0 0.37-0.46 0.67-1.03 0.67h-16.7c-0.56 0-1.02-0.3-1.02-0.67 0-0.36 0.46-0.66 1.02-0.66z"/>
    </g>
   </g>
   <g id="d" fill="#ad1519">
    <path id="path152" d="m162.5 298.6c-2.26 1.3-3.8 2.64-3.55 3.31 0.12 0.61 0.84 1.07 1.87 1.75 1.62 1.13 2.6 3.14 1.83 4.07 1.34-1.08 2.19-2.69 2.19-4.49 0-1.87-0.9-3.56-2.34-4.64z"/>
    <path id="path154" stroke-linejoin="round" d="m200.4 268.5c-3.54-1.46-9.57-2.55-16.49-2.78-2.39 0.02-5.04 0.25-7.79 0.7-9.72 1.63-17.13 5.51-16.54 8.67 0.01 0.06 0.04 0.2 0.05 0.26 0 0-3.64-8.21-3.7-8.52-0.65-3.51 7.56-7.82 18.35-9.62 3.39-0.57 6.69-0.79 9.56-0.76 6.9 0 12.9 0.89 16.52 2.23l0.04 9.82"/>
    <path id="path156" d="m167.5 278.5c-4.51-0.32-7.58-1.53-7.94-3.41-0.28-1.5 1.25-3.17 3.97-4.68 1.21 0.14 2.58 0.3 4 0.3l-0.03 7.79m16.31-6.09c2.82 0.43 4.93 1.13 5.98 1.99l0.1 0.17c0.5 1.03-1.97 3.22-6.11 5.67l0.03-7.83"/>
    <path id="path158" stroke-linejoin="round" d="m157.4 293.8c-0.43-1.28 3.97-3.86 10.18-6.14 2.84-1.01 5.18-2.07 8.09-3.35 8.63-3.82 15-8.2 14.22-9.79l-0.09-0.17c0.46 0.38 1.18 8.24 1.18 8.24 0.78 1.46-5.05 5.78-13 9.58-2.54 1.22-7.91 3.2-10.44 4.09-4.54 1.57-9.04 4.54-8.63 5.64l-1.51-8.09v-0.01z"/>
   </g>
   <g id="g160" stroke-width="0.26">
    <path id="path162" stroke-width="0.27" fill="#ad1519" d="m324.8 220.4s-0.74 0.78-1.28 0.89c-0.53 0.1-1.21-0.49-1.21-0.49s-0.48 0.51-1.08 0.64c-0.59 0.14-1.41-0.66-1.41-0.66s-0.57 0.8-1.07 0.99c-0.51 0.18-1.13-0.24-1.13-0.24s-0.23 0.39-0.65 0.61c-0.18 0.09-0.48-0.05-0.48-0.05l-0.6-0.38-0.68-0.72-0.62-0.24s-0.28-0.91-0.31-1.07c-0.02-0.16-0.08-0.57-0.08-0.57-0.13-0.65 0.87-1.4 2.3-1.72 0.82-0.19 1.54-0.18 2.06-0.02 0.57-0.48 1.78-0.82 3.2-0.82 1.29 0 2.42 0.27 3.04 0.7 0.61-0.43 1.74-0.7 3.03-0.7 1.42 0 2.62 0.34 3.19 0.82 0.53-0.16 1.24-0.17 2.07 0.02 1.42 0.32 2.43 1.07 2.3 1.72 0 0-0.06 0.41-0.08 0.57-0.03 0.16-0.32 1.07-0.32 1.07l-0.62 0.24-0.68 0.72-0.58 0.38s-0.3 0.14-0.48 0.05c-0.43-0.21-0.66-0.61-0.66-0.61s-0.62 0.42-1.13 0.24c-0.51-0.19-1.07-0.99-1.07-0.99s-0.82 0.8-1.42 0.66c-0.59-0.13-1.07-0.64-1.07-0.64s-0.68 0.59-1.21 0.49c-0.54-0.11-1.27-0.89-1.27-0.89z"/>
    <g id="g164" fill="#c8b100">
     <ellipse id="ellipse166" cy="216.2" cx="324.8" rx="1.38" ry="1.96"/>
     <ellipse id="ellipse168" cy="216.2" cx="324.9" rx=".63" ry="1.81"/>
     <ellipse id="ellipse170" rx="0.93" ry=".88" cy="214" cx="324.8"/>
     <path id="path172" stroke-width="0.3" d="m326.1 213.6v0.58h-2.53v-0.58h0.94v-1.3h-0.62v-0.58h0.62v-0.58h0.61v0.58h0.61v0.58h-0.61v1.3h0.98"/>
     <path id="path174" fill="none" d="m325.1 213.1"/>
    </g>
    <g id="g176" stroke-width="0.21" fill="none">
     <g stroke-width="0.26">
      <path id="path178" stroke-linecap="round" d="m314.4 220c-0.13-0.33-0.22-0.7-0.22-1.08 0-1.59 1.26-2.88 2.83-2.88 0.5 0 0.96 0.13 1.37 0.37"/>
      <path id="path180" d="m319.5 217.9c-0.15-0.26-0.29-0.54-0.29-0.84 0-1.15 1.19-2.08 2.64-2.08 0.62 0 1.2 0.17 1.65 0.45m6.69 2.5c0.15-0.26 0.25-0.57 0.25-0.87 0-1.15-1.18-2.08-2.64-2.08-0.62 0-1.19 0.17-1.64 0.45"/>
      <path id="path182" stroke-linecap="round" d="m335.2 220c0.13-0.33 0.21-0.7 0.21-1.08 0-1.59-1.26-2.88-2.82-2.88-0.5 0-0.97 0.13-1.38 0.37"/>
     </g>
     <ellipse id="ellipse184" cy="218.7" cx="313.6" rx="0.45" ry="0.43"/>
     <ellipse id="ellipse186" cy="217.1" cx="313.7" rx="0.45" ry="0.43"/>
     <ellipse id="ellipse188" cy="215.9" cx="314.8" rx="0.45" ry="0.43"/>
     <ellipse id="ellipse190" cy="215.2" cx="316.1" rx="0.45" ry="0.43"/>
     <ellipse id="ellipse192" cy="215.3" cx="317.5" rx="0.45" ry="0.43"/>
     <ellipse id="ellipse194" rx="0.45" ry="0.43" cy="217.1" cx="318.4" fill="#ffffff"/>
     <ellipse id="ellipse196" cy="215.6" cx="318.7" rx="0.45" ry="0.43"/>
     <ellipse id="ellipse198" cy="214.6" cx="319.8" rx="0.45" ry="0.43"/>
     <ellipse id="ellipse200" cy="214.2" cx="321.2" rx="0.45" ry="0.43"/>
     <ellipse id="ellipse202" cy="214.2" cx="322.7" rx="0.45" ry="0.43"/>
     <ellipse id="ellipse204" cy="214.2" cx="326.9" rx="0.45" ry="0.43"/>
     <ellipse id="ellipse206" cy="214.2" cx="328.4" rx="0.45" ry="0.43"/>
     <ellipse id="ellipse208" cy="214.6" cx="329.8" rx="0.45" ry="0.43"/>
     <ellipse id="ellipse210" cy="215.6" cx="330.9" rx="0.45" ry="0.43"/>
     <ellipse id="ellipse212" rx="0.45" ry="0.43" cy="217.1" cx="331.2" fill="#ffffff"/>
     <ellipse id="ellipse214" cy="215.3" cx="332.1" rx="0.45" ry="0.43"/>
     <ellipse id="ellipse216" cy="215.2" cx="333.5" rx="0.45" ry="0.43"/>
     <ellipse id="ellipse218" cy="215.9" cx="334.9" rx="0.45" ry="0.43"/>
     <ellipse id="ellipse220" cy="217.1" cx="335.9" rx="0.45" ry="0.43"/>
     <ellipse id="ellipse222" cy="218.7" cx="336" rx="0.45" ry="0.43"/>
    </g>
    <use id="use224" xlink:href="#a" height="100%" width="100%" y="0" x="149.17"/>
    <use id="use226" xlink:href="#b" height="100%" width="100%" y="0" x="149.17"/>
   </g>
   <use id="use228" xlink:href="#c" height="100%" width="100%" y="0" x="149.17"/>
   <use id="use230" xlink:href="#d" transform="matrix(-1 0 0 1 500.6 0)" height="100%" width="100%" y="0" x="0"/>
   <path id="path232" fill="#c8b100" d="m166.4 264.6c1.99-0.72 3.29-1.58 2.66-3.14-0.41-1-1.43-1.19-2.97-0.63l-2.71 0.99 2.44 6.03c0.27-0.12 0.54-0.24 0.81-0.34 0.28-0.1 0.57-0.18 0.85-0.26l-1.08-2.64v-0.01zm-1.18-2.91 0.69-0.25c0.57-0.21 1.21 0.1 1.5 0.8 0.21 0.53 0.16 1.13-0.5 1.55-0.21 0.13-0.46 0.23-0.7 0.33l-0.99-2.43m7.54-2.52c-0.29 0.08-0.57 0.16-0.86 0.22-0.29 0.05-0.59 0.09-0.88 0.12l1.41 6.28 4.38-0.88c-0.05-0.12-0.12-0.26-0.14-0.38-0.03-0.14-0.03-0.28-0.04-0.41-0.77 0.22-1.61 0.46-2.61 0.66l-1.26-5.61m8.78 5.41c0.82-2.28 1.82-4.46 2.81-6.67-0.18 0.03-0.36 0.06-0.54 0.07s-0.37 0.01-0.54 0c-0.53 1.61-1.18 3.21-1.87 4.8-0.82-1.51-1.73-2.99-2.43-4.51-0.34 0.04-0.69 0.09-1.03 0.12-0.34 0.02-0.7 0.01-1.04 0.02 1.26 2.06 2.48 4.11 3.64 6.23 0.16-0.03 0.32-0.06 0.5-0.08 0.16-0.01 0.33 0.01 0.5 0.02m9.16-4.83c0.15-0.31 0.31-0.6 0.48-0.89-0.24-0.22-0.96-0.55-1.81-0.63-1.79-0.18-2.81 0.61-2.93 1.69-0.26 2.26 3.31 2.07 3.14 3.57-0.07 0.64-0.75 0.9-1.48 0.83-0.81-0.08-1.41-0.53-1.51-1.19l-0.22-0.02c-0.12 0.39-0.29 0.77-0.48 1.15 0.53 0.34 1.21 0.53 1.85 0.59 1.83 0.19 3.22-0.54 3.35-1.74 0.23-2.15-3.37-2.27-3.23-3.54 0.06-0.53 0.47-0.88 1.4-0.79 0.67 0.07 1.08 0.43 1.26 0.95l0.18 0.02m119.6 5.18c0.62-2.33 1.41-4.58 2.19-6.87-0.17 0.05-0.35 0.09-0.53 0.11-0.17 0.03-0.36 0.04-0.54 0.05-0.37 1.64-0.88 3.29-1.42 4.94-0.96-1.44-2-2.84-2.83-4.3-0.34 0.07-0.68 0.15-1.02 0.2s-0.69 0.07-1.04 0.11c1.45 1.94 2.85 3.89 4.2 5.91 0.16-0.04 0.32-0.1 0.5-0.12 0.16-0.02 0.33-0.02 0.49-0.03m6.18-6.82c-0.29 0.01-0.59 0.04-0.88 0.03-0.3 0-0.6-0.04-0.89-0.06l-0.12 6.41 4.49 0.08c-0.03-0.13-0.06-0.28-0.06-0.41s0.04-0.27 0.07-0.4c-0.81 0.05-1.68 0.1-2.71 0.08l0.1-5.73m7.04 1.05c0.72 0.06 1.41 0.19 2.1 0.31-0.01-0.13-0.03-0.27-0.02-0.41 0.01-0.13 0.06-0.26 0.1-0.39l-6.07-0.5c0.01 0.14 0.03 0.27 0.02 0.4-0.01 0.14-0.06 0.27-0.1 0.4 0.62-0.02 1.37-0.02 2.21 0.05l-0.53 5.77c0.29 0 0.59 0 0.88 0.03 0.3 0.02 0.59 0.07 0.88 0.11l0.53-5.77m2.49 6.32c0.29 0.05 0.59 0.09 0.88 0.15 0.28 0.06 0.57 0.15 0.85 0.23l0.72-2.94 0.08 0.01c0.16 0.41 0.38 0.9 0.49 1.19l0.9 2.22c0.36 0.06 0.71 0.11 1.05 0.18 0.36 0.08 0.7 0.18 1.04 0.28l-0.31-0.67c-0.48-1-0.99-2.01-1.41-3.02 1.12 0.04 1.98-0.36 2.2-1.26 0.15-0.62-0.1-1.11-0.68-1.53-0.44-0.31-1.28-0.47-1.83-0.6l-2.44-0.53-1.54 6.29m3.14-5.42c0.71 0.16 1.59 0.27 1.59 1.07-0.01 0.21-0.03 0.35-0.06 0.48-0.23 0.94-0.94 1.26-2.13 0.91l0.6-2.46m8.42 7.35c-0.05 0.69-0.18 1.37-0.31 2.1 0.3 0.14 0.61 0.27 0.9 0.44 0.3 0.16 0.57 0.34 0.86 0.52l0.6-7.23c-0.14-0.06-0.27-0.12-0.41-0.19-0.13-0.07-0.25-0.15-0.37-0.24l-6.38 4.05c0.17 0.08 0.35 0.16 0.51 0.25 0.17 0.09 0.31 0.19 0.47 0.28 0.54-0.45 1.1-0.82 1.74-1.3l2.39 1.31v0.01zm-1.81-1.66 2.13-1.37-0.25 2.4-1.88-1.03"/>
  </g>
  <path id="path234" stroke-width=".3120" fill="#ad1519" d="m299.5 219.4c7.968 0.003 15.07 1.194 19.69 3.02 2.64 1.2 6.192 2.08 10.08 2.608 2.964 0.397 5.772 0.47 8.22 0.29 3.276-0.07 8.003 0.893 12.74 2.983 3.912 1.74 7.187 3.854 9.358 5.895l-1.885 1.68-0.542 4.75-5.162 5.903-2.58 2.195-6.11 4.882-3.12 0.25-0.95 2.7-39.49-4.648-39.63 4.616-0.947-2.7-3.132-0.253-6.094-4.887-2.58-2.197-5.157-5.9-0.526-4.75-1.89-1.68c2.19-2.04 5.45-4.15 9.36-5.89 4.74-2.08 9.47-3.04 12.75-2.97 2.45 0.18 5.26 0.11 8.22-0.28 3.89-0.52 7.44-1.4 10.08-2.6 4.64-1.82 11.33-3 19.3-3z"/>
  <g id="g236" fill="#c8b100" transform="matrix(1.2 .0004817 -.0004817 1.2 0 0)">
   <path id="path238" d="m225.3 191.4 1.38 1.11 2.08-3.4c-2.25-1.38-3.8-3.78-3.8-6.51 0-0.31 0.02-0.61 0.06-0.91 0.21-4.34 5.5-7.92 12.2-7.92 3.48 0 6.63 0.95 8.84 2.48 0.06-0.67 0.12-1.25 0.21-1.86-2.43-1.42-5.6-2.28-9.05-2.28-7.71 0-13.74 4.39-14.03 9.57-0.03 0.31-0.05 0.61-0.05 0.92 0 2.76 1.26 5.26 3.26 6.99l-1.1 1.81"/>
   <path id="path240" d="m225.4 191.5c-2.63-1.97-4.27-4.64-4.27-7.58 0-3.38 2.22-6.4 5.58-8.41-2.07 1.67-3.33 3.83-3.51 6.23-0.03 0.31-0.05 0.61-0.05 0.92 0 2.76 1.26 5.26 3.26 6.99l-1.01 1.85"/>
   <path id="path242" d="m202.2 194.9c-1.48-1.65-2.38-3.79-2.38-6.12 0-1.41 0.33-2.75 0.91-3.95 2.13-4.38 8.82-7.57 16.76-7.57 2.16 0 4.23 0.23 6.14 0.67-0.42 0.46-0.75 0.97-1.08 1.48-1.59-0.31-3.29-0.48-5.06-0.48-7.27 0-13.36 2.83-15.12 6.65-0.47 0.97-0.73 2.06-0.73 3.2 0 2.32 1.09 4.4 2.79 5.82l-2.63 4.3-1.41-1.12 1.81-2.88z"/>
   <path id="path244" d="m204.9 180.5c-1.91 1.21-3.36 2.69-4.16 4.34-0.58 1.2-0.91 2.54-0.91 3.95 0 2.33 0.9 4.47 2.38 6.12l-1.6 2.59c-1.53-1.96-2.42-4.26-2.42-6.7 0-4.2 2.67-7.87 6.71-10.3zm45.14-9.21c1.76 0 3.28 1.16 3.64 2.73 0.23 1.38 0.38 2.95 0.41 4.62 0.01 0.18-0.01 0.35-0.01 0.52 0 0.2 0.04 0.41 0.05 0.61 0.06 3.52 0.56 6.62 1.27 8.52l-5.36 5.14-5.43-5.14c0.72-1.9 1.22-5 1.29-8.52 0-0.2 0.04-0.41 0.04-0.61 0-0.17-0.01-0.34-0.01-0.52 0.03-1.67 0.18-3.24 0.41-4.62 0.36-1.57 1.94-2.73 3.7-2.73z"/>
   <path id="path246" d="m250 172.9c0.91 0 1.68 0.58 1.87 1.39 0.23 1.31 0.37 2.8 0.4 4.38 0 0.16-0.01 0.32-0.01 0.48 0 0.2 0.03 0.39 0.04 0.59 0.05 3.32 0.53 6.25 1.21 8.05l-3.54 3.35-3.54-3.35c0.67-1.8 1.15-4.73 1.21-8.05 0-0.2 0.04-0.39 0.04-0.59 0-0.16-0.01-0.32-0.01-0.48 0.03-1.58 0.17-3.07 0.4-4.38 0.18-0.81 1.02-1.39 1.93-1.39zm24.66 18.48-1.39 1.11-2.08-3.4c2.26-1.38 3.81-3.78 3.81-6.51 0-0.31-0.02-0.61-0.06-0.91-0.21-4.34-5.5-7.92-12.2-7.92-3.49 0-6.63 0.95-8.84 2.48-0.06-0.67-0.12-1.25-0.22-1.86 2.44-1.42 5.6-2.28 9.06-2.28 7.71 0 13.74 4.39 14.03 9.57 0.03 0.31 0.05 0.61 0.05 0.92 0 2.76-1.27 5.26-3.27 6.99l1.11 1.81"/>
   <path id="path248" d="m274.6 191.5c2.63-1.97 4.27-4.64 4.27-7.58 0-3.38-2.22-6.4-5.58-8.41 2.07 1.67 3.33 3.83 3.51 6.23 0.03 0.31 0.05 0.61 0.05 0.92 0 2.76-1.27 5.26-3.27 6.99l1.02 1.85"/>
   <path id="path250" d="m297.8 194.9c1.47-1.65 2.38-3.79 2.38-6.12 0-1.41-0.33-2.75-0.91-3.95-2.14-4.38-8.82-7.57-16.76-7.57-2.16 0-4.23 0.23-6.15 0.67 0.43 0.46 0.76 0.97 1.09 1.48 1.58-0.31 3.29-0.48 5.06-0.48 7.27 0 13.35 2.83 15.11 6.65 0.47 0.97 0.73 2.06 0.73 3.2 0 2.32-1.09 4.4-2.79 5.82l2.63 4.3 1.42-1.12-1.81-2.88z"/>
   <path id="path252" d="m295.1 180.5c1.91 1.21 3.36 2.69 4.16 4.34 0.58 1.2 0.91 2.54 0.91 3.95 0 2.33-0.91 4.47-2.38 6.12l1.6 2.59c1.53-1.96 2.41-4.26 2.41-6.7 0-4.2-2.67-7.87-6.7-10.3z"/>
   <ellipse id="ellipse254" rx="4.43" ry="4.2" cy="167.3" cx="250" stroke-width="0.26" fill="#005bbf"/>
   <path id="path256" stroke-width="0.26" d="m248.9 155.5v2.26h-2.42v2.3h2.42v6.61h-3.05c-0.03 0.21-0.22 0.37-0.22 0.59 0 0.58 0.12 1.14 0.35 1.64 0 0.02 0.02 0.02 0.03 0.03h8.12c0-0.01 0.02-0.01 0.03-0.03 0.22-0.5 0.35-1.06 0.35-1.64 0-0.22-0.19-0.38-0.22-0.59h-2.96v-6.61h2.42v-2.3h-2.42v-2.26h-2.43z"/>
  </g>
  <g id="g258" fill="#ffffff" transform="matrix(1.2 .0004817 -.0004817 1.2 0 0)">
   <ellipse id="ellipse260" cy="188.9" cx="250" rx="1.91" ry="1.8"/>
   <ellipse id="ellipse262" cy="185.4" cx="250" rx="1.91" ry="1.8"/>
   <ellipse id="ellipse264" cy="181.6" cx="250" rx="1.52" ry="1.44"/>
   <ellipse id="ellipse266" cy="178.2" cx="250" rx="1.1" ry="1.04"/>
   <ellipse id="ellipse268" cy="175.2" cx="250" rx=".88" ry="0.83"/>
   <ellipse id="ellipse270" cy="198.7" cx="198.9" rx="1.1" ry="1.04"/>
   <ellipse id="ellipse272" cy="196" cx="197.4" rx="1.1" ry="1.04"/>
   <ellipse id="ellipse274" cy="192.9" cx="196.4" rx="1.1" ry="1.04"/>
   <ellipse id="ellipse276" cy="189.6" cx="196.3" rx="1.1" ry="1.04"/>
   <ellipse id="ellipse278" cy="186.4" cx="197.1" rx="1.1" ry="1.04"/>
   <ellipse id="ellipse280" cy="183.4" cx="198.8" rx="1.1" ry="1.04"/>
   <ellipse id="ellipse282" cy="181" cx="201.1" rx="1.1" ry="1.04"/>
   <ellipse id="ellipse284" cy="179" cx="203.7" rx="1.1" ry="1.04"/>
   <ellipse id="ellipse286" cy="177.4" cx="206.8" rx="1.1" ry="1.04"/>
   <ellipse id="ellipse288" cy="176.2" cx="210" rx="1.1" ry="1.04"/>
   <ellipse id="ellipse290" cy="175.5" cx="213.7" rx="1.1" ry="1.04"/>
   <ellipse id="ellipse292" cy="175.4" cx="217.1" rx="1.1" ry="1.04"/>
   <ellipse id="ellipse294" cy="175.5" cx="220.5" rx="1.1" ry="1.04"/>
   <ellipse id="ellipse296" cy="190.3" cx="224.2" rx="1.1" ry="1.04"/>
   <ellipse id="ellipse298" cy="187.6" cx="222.3" rx="1.1" ry="1.04"/>
   <ellipse id="ellipse300" cy="184.8" cx="221.4" rx="1.1" ry="1.04"/>
   <ellipse id="ellipse302" cy="181.6" cx="221.5" rx="1.1" ry="1.04"/>
   <ellipse id="ellipse304" cy="178.4" cx="222.2" rx="1.1" ry="1.04"/>
   <ellipse id="ellipse306" cy="175.5" cx="223.8" rx="1.1" ry="1.04"/>
   <ellipse id="ellipse308" cy="173.5" cx="226.4" rx="1.1" ry="1.04"/>
   <ellipse id="ellipse310" cy="171.8" cx="229.4" rx="1.1" ry="1.04"/>
   <ellipse id="ellipse312" cy="170.8" cx="232.7" rx="1.1" ry="1.04"/>
   <ellipse id="ellipse314" cy="170.2" cx="236.1" rx="1.1" ry="1.04"/>
   <ellipse id="ellipse316" cy="170.3" cx="239.5" rx="1.1" ry="1.04"/>
   <ellipse id="ellipse318" cy="170.9" cx="243" rx="1.1" ry="1.04"/>
   <ellipse id="ellipse320" cy="172" cx="246.2" rx="1.1" ry="1.04"/>
   <ellipse id="ellipse322" cy="172" cx="253.8" rx="1.1" ry="1.04"/>
   <ellipse id="ellipse324" cy="170.9" cx="257" rx="1.1" ry="1.04"/>
   <ellipse id="ellipse326" cy="170.3" cx="260.5" rx="1.1" ry="1.04"/>
   <ellipse id="ellipse328" cy="170.2" cx="263.9" rx="1.1" ry="1.04"/>
   <ellipse id="ellipse330" cy="170.8" cx="267.3" rx="1.1" ry="1.04"/>
   <ellipse id="ellipse332" cy="171.8" cx="270.6" rx="1.1" ry="1.04"/>
   <ellipse id="ellipse334" cy="173.5" cx="273.6" rx="1.1" ry="1.04"/>
   <ellipse id="ellipse336" cy="175.5" cx="276.2" rx="1.1" ry="1.04"/>
   <ellipse id="ellipse338" cy="178.4" cx="277.9" rx="1.1" ry="1.04"/>
   <ellipse id="ellipse340" cy="181.6" cx="278.6" rx="1.1" ry="1.04"/>
   <ellipse id="ellipse342" cy="184.8" cx="278.7" rx="1.1" ry="1.04"/>
   <ellipse id="ellipse344" cy="187.6" cx="277.7" rx="1.1" ry="1.04"/>
   <ellipse id="ellipse346" cy="190.3" cx="275.8" rx="1.1" ry="1.04"/>
   <ellipse id="ellipse348" cy="175.5" cx="279.6" rx="1.1" ry="1.04"/>
   <ellipse id="ellipse350" cy="175.4" cx="282.9" rx="1.1" ry="1.04"/>
   <ellipse id="ellipse352" cy="175.5" cx="286.4" rx="1.1" ry="1.04"/>
   <ellipse id="ellipse354" cy="176.2" cx="290" rx="1.1" ry="1.04"/>
   <ellipse id="ellipse356" cy="177.4" cx="293.2" rx="1.1" ry="1.04"/>
   <ellipse id="ellipse358" cy="179" cx="296.4" rx="1.1" ry="1.04"/>
   <ellipse id="ellipse360" cy="181" cx="299" rx="1.1" ry="1.04"/>
   <ellipse id="ellipse362" cy="183.4" cx="301.2" rx="1.1" ry="1.04"/>
   <ellipse id="ellipse364" cy="186.4" cx="302.9" rx="1.1" ry="1.04"/>
   <ellipse id="ellipse366" cy="189.6" cx="303.7" rx="1.1" ry="1.04"/>
   <ellipse id="ellipse368" cy="192.9" cx="303.6" rx="1.1" ry="1.04"/>
   <ellipse id="ellipse370" cy="196" cx="302.6" rx="1.1" ry="1.04"/>
   <ellipse id="ellipse372" cy="198.7" cx="301.1" rx="1.1" ry="1.04"/>
  </g>
  <g id="g374" fill="#c8b100" transform="matrix(1.2 .0004817 -.0004817 1.2 0 0)">
   <path id="path376" d="m250.2 226.2c-12.26-0.02-23.25-1.47-31.09-3.83-0.57-0.18-0.87-0.7-0.84-1.25-0.01-0.52 0.29-1 0.84-1.17 7.84-2.36 18.83-3.81 31.09-3.83 12.27 0.02 23.25 1.47 31.09 3.83 0.55 0.17 0.84 0.65 0.83 1.17 0.03 0.55-0.27 1.07-0.83 1.25-7.84 2.36-18.82 3.81-31.09 3.83"/>
   <path id="path378" d="m250.1 216.1c-12.41 0.03-23.55 1.58-31.39 4 0.65-0.31 0.59-1.12-0.22-3.2-0.98-2.53-2.5-2.42-2.5-2.42 8.66-2.56 20.73-4.16 34.16-4.18 13.44 0.02 25.6 1.62 34.27 4.18 0 0-1.53-0.11-2.51 2.42-0.81 2.08-0.87 2.89-0.21 3.2-7.84-2.42-19.19-3.97-31.6-4"/>
   <path id="path380" d="m250.1 210.3c-13.43 0.02-25.5 1.62-34.16 4.18-0.58 0.17-1.19-0.05-1.38-0.6s0.12-1.18 0.7-1.35c8.71-2.67 21.08-4.35 34.84-4.38 13.77 0.03 26.19 1.71 34.9 4.38 0.58 0.17 0.89 0.8 0.7 1.35s-0.8 0.77-1.38 0.6c-8.67-2.56-20.78-4.16-34.22-4.18"/>
   <path id="path382" d="m250.2 199.8 1.23 0.22c-0.19 0.5-0.24 1.05-0.24 1.63 0 2.57 2.21 4.65 4.92 4.65 2.18 0 4.04-1.35 4.67-3.21 0.08 0.05 0.47-1.68 0.68-1.66 0.17 0.02 0.15 1.8 0.22 1.77 0.31 2.34 2.46 3.93 4.87 3.93 2.71 0 4.91-2.08 4.91-4.65 0-0.19-0.01-0.38-0.04-0.57l1.54-1.52 0.83 1.94c-0.33 0.61-0.46 1.3-0.46 2.03 0 2.46 2.1 4.44 4.69 4.44 1.63 0 3.06-0.78 3.9-1.97l0.99-1.25-0.01 1.53c0 1.55 0.66 2.93 2.16 3.18 0 0 1.73 0.1 4.03-1.7 2.29-1.8 3.55-3.29 3.55-3.29l0.2 1.8s-1.9 2.95-3.97 4.15c-1.14 0.66-2.86 1.35-4.23 1.13-1.44-0.24-2.48-1.4-3.01-2.74-1.03 0.61-2.25 0.97-3.55 0.97-2.81 0-5.33-1.54-6.32-3.86-1.29 1.4-3.09 2.25-5.2 2.25-2.24 0-4.29-1.01-5.57-2.56-1.27 1.16-2.98 1.87-4.88 1.87-2.48 0-4.69-1.22-5.94-3.05-1.25 1.83-3.46 3.05-5.94 3.05-1.89 0-3.61-0.71-4.87-1.87-1.28 1.55-3.34 2.56-5.58 2.56-2.11 0-3.9-0.85-5.19-2.25-1 2.32-3.52 3.86-6.32 3.86-1.31 0-2.52-0.36-3.55-0.97-0.54 1.34-1.57 2.5-3.02 2.74-1.36 0.22-3.08-0.47-4.22-1.13-2.08-1.2-3.98-4.15-3.98-4.15l0.2-1.8s1.27 1.49 3.56 3.29c2.29 1.81 4.02 1.7 4.02 1.7 1.51-0.25 2.16-1.63 2.16-3.18l-0.01-1.53 0.99 1.25c0.84 1.19 2.28 1.97 3.9 1.97 2.59 0 4.69-1.98 4.69-4.44 0-0.73-0.13-1.42-0.46-2.03l0.83-1.94 1.54 1.52c-0.02 0.19-0.04 0.38-0.04 0.57 0 2.57 2.2 4.65 4.91 4.65 2.42 0 4.56-1.59 4.88-3.93 0.06 0.03 0.05-1.75 0.22-1.77 0.2-0.02 0.6 1.71 0.67 1.66 0.64 1.86 2.49 3.21 4.68 3.21 2.71 0 4.91-2.08 4.91-4.65 0-0.58-0.03-1.13-0.24-1.63l1.29-0.22"/>
   <path id="path384" d="m208.4 206.3c-0.11-0.37-0.35-0.75-0.72-1.06-0.79-0.68-1.84-0.79-2.36-0.25-0.07 0.07-0.13 0.17-0.17 0.25 0 0-1.11-2.08-2.41-2.78-1.29-0.7-3.49-0.52-3.49-0.52 0-1.6 1.3-2.89 2.99-2.89 0.99 0 1.92 0.41 2.48 1.11l0.23-1.07s1.36 0.27 1.98 1.82-0.06 3.8-0.06 3.8 0.34-0.96 0.85-1.61c0.51-0.64 1.81-1.34 2.49-1.66 0.67-0.31 1.37-0.79 1.37-0.79s0.03 0.18 0.05 0.61c0.03 0.51-0.01 0.83-0.01 0.83 1.24-0.17 2.69 0.04 3.83 0.48-0.49 0.95-1.41 1.84-2.62 2.3 0 0 0.44 0.36 0.83 0.75 0.34 0.34 0.44 0.49 0.44 0.49s-0.85 0.13-1.27 0.19c-0.43 0.05-1.84 0.28-2.69 0.22-0.62-0.04-1.32-0.14-1.74-0.22"/>
   <path id="path386" fill="#ad1519" d="m205.3 205c0.52-0.54 1.57-0.43 2.36 0.25 0.8 0.67 1.02 1.66 0.51 2.19-0.51 0.54-1.57 0.42-2.36-0.25-0.79-0.68-1.02-1.66-0.51-2.19"/>
   <path id="path388" fill="#ffffff" d="m216.4 205.9c-0.28-0.83-0.03-1.65 0.57-1.83 0.6-0.19 1.32 0.33 1.6 1.16s0.03 1.65-0.57 1.84c-0.6 0.18-1.31-0.34-1.6-1.17"/>
   <path id="path390" d="m226.1 201.9c-0.33-0.27-0.59-0.64-0.67-1.08s0.01-0.87 0.23-1.23c0 0-0.88-0.44-1.83-0.69-0.72-0.19-1.99-0.2-2.37-0.2-0.38-0.02-1.15-0.03-1.15-0.03s0.07 0.17 0.28 0.55c0.27 0.46 0.5 0.75 0.5 0.75-1.27 0.29-2.35 1.12-3.03 2.09 0.99 0.68 2.3 1.1 3.6 0.97 0 0-0.12 0.34-0.2 0.86-0.06 0.43-0.06 0.61-0.06 0.61s0.71-0.26 1.07-0.39c0.35-0.13 1.54-0.55 2.15-0.96 0.8-0.54 1.48-1.25 1.48-1.25"/>
   <path id="path392" d="m225.7 191.6c1.06 0.67 1.98 1.79 2.3 3.03 0 0 0.13-0.25 0.71-0.59 0.59-0.33 1.09-0.32 1.09-0.32s-0.17 0.97-0.25 1.32c-0.09 0.34-0.09 1.38-0.32 2.32-0.23 0.93-0.63 1.68-0.63 1.68-0.42-0.34-0.99-0.51-1.58-0.41-0.58 0.1-1.06 0.44-1.32 0.9 0 0-0.66-0.58-1.21-1.38-0.55-0.81-0.93-1.78-1.13-2.08-0.21-0.3-0.72-1.15-0.72-1.15s0.47-0.18 1.14-0.05c0.67 0.12 0.88 0.32 0.88 0.32-0.14-1.28 0.28-2.62 1.04-3.59"/>
   <path id="path394" d="m229 201.4c0.22-0.35 0.32-0.79 0.24-1.23s-0.32-0.81-0.66-1.07c0 0 0.67-0.71 1.47-1.26 0.6-0.41 1.8-0.82 2.15-0.95 0.36-0.13 1.07-0.4 1.07-0.4s0 0.18-0.06 0.61c-0.08 0.52-0.2 0.87-0.2 0.87 1.3-0.14 2.62 0.29 3.61 0.98-0.69 0.97-1.77 1.79-3.04 2.08 0 0 0.23 0.28 0.5 0.74 0.21 0.39 0.28 0.56 0.28 0.56l-1.15-0.03c-0.38 0-1.65-0.01-2.37-0.2-0.95-0.25-1.84-0.69-1.84-0.69"/>
   <ellipse id="ellipse396" rx="2.17" ry="2.06" cy="200.4" cx="227.4" fill="#ad1519"/>
   <path id="path398" fill="#ffffff" d="m237.8 201.8c-0.11-0.87 0.31-1.63 0.93-1.7 0.63-0.07 1.23 0.57 1.34 1.44 0.11 0.86-0.3 1.63-0.93 1.7-0.62 0.07-1.22-0.57-1.34-1.44"/>
   <path id="path400" d="m248.5 199.8c-0.32-0.36-0.53-0.82-0.53-1.33 0-0.5 0.19-0.97 0.51-1.32 0 0-0.89-0.67-1.89-1.12-0.77-0.35-2.18-0.59-2.6-0.67l-1.28-0.24s0.04 0.2 0.2 0.67c0.2 0.56 0.4 0.93 0.4 0.93-1.47 0.08-2.85 0.81-3.81 1.76 0.96 0.94 2.34 1.66 3.81 1.75 0 0-0.2 0.36-0.4 0.93-0.16 0.46-0.2 0.67-0.2 0.67l1.28-0.24c0.42-0.08 1.83-0.32 2.6-0.67 1-0.46 1.91-1.11 1.91-1.11"/>
   <path id="path402" d="m250.1 188.4c1.05 0.95 1.85 2.36 1.95 3.82 0 0 0.19-0.27 0.91-0.53 0.73-0.26 1.28-0.16 1.28-0.16s-0.39 1.05-0.55 1.42c-0.17 0.37-0.39 1.53-0.84 2.53-0.44 1-1.05 1.76-1.05 1.76-0.4-0.45-1-0.75-1.67-0.75-0.68 0-1.27 0.3-1.67 0.75 0 0-0.61-0.76-1.05-1.76-0.45-1-0.67-2.16-0.84-2.53s-0.56-1.42-0.56-1.42 0.56-0.1 1.28 0.16 0.92 0.53 0.92 0.53c0.1-1.46 0.86-2.87 1.89-3.82"/>
   <path id="path404" d="m251.8 199.8c0.33-0.36 0.53-0.82 0.53-1.33 0-0.5-0.19-0.97-0.51-1.32 0 0 0.89-0.67 1.9-1.12 0.76-0.35 2.17-0.59 2.6-0.67l1.26-0.24s-0.02 0.2-0.19 0.67c-0.2 0.56-0.4 0.93-0.4 0.93 1.47 0.08 2.86 0.81 3.81 1.76-0.95 0.94-2.33 1.66-3.81 1.75 0 0 0.2 0.36 0.4 0.93 0.16 0.46 0.19 0.67 0.19 0.67l-1.26-0.24c-0.43-0.08-1.84-0.32-2.6-0.67-1.01-0.46-1.92-1.11-1.92-1.11"/>
   <ellipse id="ellipse406" rx="2.17" ry="2.06" cy="198.5" cx="250.1" fill="#ad1519"/>
   <path id="path408" fill="#ffffff" d="m262.6 201.8c0.11-0.87-0.3-1.63-0.93-1.7s-1.23 0.57-1.34 1.44c-0.11 0.86 0.31 1.63 0.93 1.7 0.63 0.07 1.23-0.57 1.34-1.44"/>
   <path id="path410" d="m271.4 201.4c-0.22-0.35-0.32-0.79-0.25-1.23 0.09-0.44 0.33-0.81 0.67-1.07 0 0-0.67-0.71-1.47-1.26-0.61-0.41-1.8-0.82-2.16-0.95-0.35-0.13-1.06-0.4-1.06-0.4s-0.01 0.18 0.06 0.61c0.08 0.52 0.19 0.87 0.19 0.87-1.29-0.14-2.61 0.29-3.6 0.98 0.68 0.97 1.77 1.79 3.03 2.08 0 0-0.23 0.28-0.49 0.74-0.22 0.39-0.28 0.56-0.28 0.56l1.14-0.03c0.38 0 1.66-0.01 2.37-0.2 0.95-0.25 1.84-0.69 1.84-0.69"/>
   <path id="path412" d="m274.7 191.6c-1.06 0.67-1.98 1.79-2.31 3.03 0 0-0.12-0.25-0.71-0.59-0.58-0.33-1.09-0.32-1.09-0.32s0.17 0.97 0.26 1.32c0.09 0.34 0.09 1.38 0.31 2.32 0.23 0.93 0.64 1.68 0.64 1.68 0.42-0.34 0.99-0.51 1.57-0.41 0.59 0.1 1.06 0.44 1.33 0.9 0 0 0.66-0.58 1.21-1.38 0.54-0.81 0.92-1.78 1.12-2.08 0.21-0.3 0.72-1.15 0.72-1.15s-0.47-0.18-1.14-0.05c-0.67 0.12-0.88 0.32-0.88 0.32 0.15-1.28-0.28-2.62-1.03-3.59"/>
   <path id="path414" d="m274.2 201.9c0.34-0.27 0.6-0.64 0.67-1.08 0.09-0.44 0-0.87-0.22-1.23 0 0 0.88-0.44 1.83-0.69 0.72-0.19 1.99-0.2 2.36-0.2 0.39-0.02 1.15-0.03 1.15-0.03s-0.06 0.17-0.28 0.55c-0.26 0.46-0.49 0.75-0.49 0.75 1.26 0.29 2.34 1.12 3.03 2.09-0.99 0.68-2.31 1.1-3.6 0.97 0 0 0.11 0.34 0.19 0.86 0.06 0.43 0.06 0.61 0.06 0.61s-0.71-0.26-1.06-0.39c-0.36-0.13-1.55-0.55-2.16-0.96-0.79-0.54-1.48-1.25-1.48-1.25"/>
   <ellipse id="ellipse416" rx="2.17" ry="2.06" cy="200.4" cx="273" fill="#ad1519"/>
   <path id="path418" fill="#ffffff" d="m284 205.9c0.28-0.83 0.03-1.65-0.57-1.83-0.6-0.19-1.32 0.33-1.61 1.16-0.28 0.83-0.03 1.65 0.57 1.84 0.6 0.18 1.32-0.34 1.61-1.17"/>
   <path id="path420" d="m292 206.3c0.11-0.37 0.36-0.75 0.72-1.06 0.79-0.68 1.85-0.79 2.36-0.25 0.07 0.07 0.14 0.17 0.18 0.25 0 0 1.1-2.08 2.4-2.78s3.5-0.52 3.5-0.52c0-1.6-1.31-2.89-3-2.89-0.99 0-1.92 0.41-2.47 1.11l-0.23-1.07s-1.36 0.27-1.98 1.82 0.05 3.8 0.05 3.8-0.33-0.96-0.84-1.61c-0.51-0.64-1.81-1.34-2.49-1.66-0.68-0.31-1.37-0.79-1.37-0.79s-0.03 0.18-0.06 0.61c-0.02 0.51 0.02 0.83 0.02 0.83-1.25-0.17-2.7 0.04-3.83 0.48 0.48 0.95 1.4 1.84 2.61 2.3 0 0-0.43 0.36-0.83 0.75-0.33 0.34-0.43 0.49-0.43 0.49s0.85 0.13 1.27 0.19c0.43 0.05 1.84 0.28 2.68 0.22 0.63-0.04 1.32-0.14 1.74-0.22"/>
   <path id="path422" fill="#ad1519" d="m295 205c-0.51-0.54-1.57-0.43-2.36 0.25-0.79 0.67-1.02 1.66-0.51 2.19 0.51 0.54 1.57 0.42 2.36-0.25 0.79-0.68 1.02-1.66 0.51-2.19"/>
  </g>
  <g id="g424" fill="none">
   <path id="path426" stroke-linejoin="round" d="m300 269.6c-13.27-0.017-25.28-1.558-34.42-3.925 9.14-2.37 21.15-3.8 34.42-3.82 13.29 0.03 25.36 1.47 34.49 3.84-9.13 2.36-21.2 3.89-34.49 3.9z" stroke-width=".4680" fill="#ad1519"/>
   <path id="path428" stroke-width=".06" d="m309.5 269.3 0.003-7.212m-3.627 7.45 0.05-7.643m-2.69 7.74 0.003-7.79"/>
   <path id="path430" stroke-width=".108" d="m301 269.7 0.003-7.885"/>
   <path id="path432" stroke-width=".168" d="m298.9 269.7 0.003-7.884"/>
   <path id="path434" stroke-width=".2160" d="m296.9 269.7 0.003-7.884"/>
   <path id="path436" stroke-width=".2760" d="m294.9 269.7 0.003-7.884"/>
   <path id="path438" stroke-width=".336" d="m293.1 269.7 0.003-7.884"/>
   <path id="path440" stroke-width=".396" d="m289.7 269.3-0.045-7.164m1.665 7.26 0.003-7.5"/>
   <path id="path442" stroke-width=".4440" d="m286.5 268.9 0.003-6.6m1.593 6.793-0.045-7.032"/>
   <path id="path444" stroke-width=".5040" d="m282.3 268.6 0.003-5.808m1.377 5.905 0.003-6.096m1.425 6.288 0.003-6.336"/>
   <path id="path446" stroke-width=".5520" d="m280.8 268.5 0.002-5.616"/>
   <path id="path448" stroke-width=".6120" d="m279.5 268.2 0.002-5.232"/>
   <path id="path450" stroke-width=".6720" d="m278 268.1 0.002-4.872"/>
   <path id="path452" stroke-width="0.72" d="m275 267.6-0.047-3.864m1.595 4.057v-4.343"/>
   <path id="path454" stroke-width=".7560" d="m273.4 267.3v-3.408"/>
   <path id="path456" stroke-width=".8160" d="m272 267 0.002-2.833"/>
   <path id="path458" stroke-width=".8760" d="m270.4 266.7v-2.22"/>
   <path id="path460" stroke-width=".9240" d="m268.8 266.5v-1.656"/>
   <path id="path462" stroke-width="1.092" d="m267.2 266.1v-0.805"/>
   <g stroke-width=".4680">
    <path id="path464" d="m264 266.1c9.3-2.612 21.95-4.215 36-4.234 14.06 0.03 26.77 1.643 36.07 4.263"/>
    <path id="path466" fill="#ad1519" d="m260 260.7 1.464-1.907 4.044 0.51-3.23 2.35-2.28-0.96"/>
    <path id="path468" fill="#ffffff" d="m268.7 258.4c0-0.696 0.59-1.248 1.32-1.248 0.733 0 1.32 0.553 1.32 1.25 0 0.683-0.588 1.247-1.32 1.246-0.732 0-1.32-0.564-1.32-1.248"/>
    <path id="path470" fill="#058e6e" d="m280.3 258.2-2.832 0.322c-0.732 0.08-1.404-0.4-1.487-1.08-0.096-0.69 0.42-1.31 1.152-1.38l2.844-0.34 2.91-0.34c0.72-0.09 1.38 0.39 1.47 1.08 0.09 0.68-0.43 1.3-1.15 1.39l-2.89 0.33"/>
    <path id="path472" fill="#ffffff" d="m288.5 256.1c0-0.696 0.59-1.248 1.32-1.248 0.72 0 1.32 0.553 1.32 1.25 0 0.683-0.6 1.247-1.32 1.246-0.732 0-1.32-0.564-1.32-1.248"/>
    <path id="path474" fill="#ad1519" d="m300.1 257.1h-3.948c-0.72 0-1.34-0.554-1.34-1.238 0-0.696 0.59-1.247 1.32-1.247l7.97 0.003c0.73 0 1.32 0.553 1.32 1.25 0 0.683-0.61 1.234-1.33 1.234l-4-0.002"/>
    <path id="path476" fill="#ffffff" d="m309 256.1c0-0.696 0.6-1.248 1.32-1.247 0.732 0 1.32 0.552 1.32 1.248 0 0.684-0.59 1.248-1.32 1.248-0.72 0-1.32-0.565-1.32-1.25"/>
    <path id="path478" fill="#058e6e" d="m319.9 258.2 2.832 0.326c0.72 0.084 1.404-0.396 1.49-1.08 0.083-0.684-0.433-1.308-1.153-1.38l-2.844-0.337-2.903-0.33c-0.732-0.08-1.38 0.4-1.465 1.08-0.096 0.69 0.432 1.31 1.152 1.39l2.89 0.34"/>
    <path id="path480" fill="#ffffff" d="m328.8 258.5c0-0.696 0.59-1.248 1.32-1.247 0.733 0 1.32 0.56 1.32 1.25s-0.588 1.25-1.32 1.25-1.32-0.56-1.32-1.25"/>
    <path id="path482" fill="#ad1519" d="m340.2 260.7-1.452-1.91-4.044 0.514 3.227 2.354 2.27-0.96"/>
   </g>
  </g>
  <g id="g484" stroke-width="0.52">
   <g stroke-width=".6240">
    <path id="path486" fill="#cccccc" d="m300.4 413.3c-15.7-0.007-31.26-3.853-44.34-10.27-9.634-4.78-16.03-14.4-16.02-25.43l0.016-39.96 120.5 0.05-0.016 39.96c-0.004 11.03-6.392 20.65-16.04 25.42-13.08 6.41-28.4 10.24-44.1 10.23z"/>
    <path id="path488" fill="#ffd691" d="m303.3 395.6c2.508 0.757 3.78 2.63 3.778 4.813 0 2.856-2.76 5.015-6.36 5.014-3.59-0.01-6.5-2.17-6.5-5.02 0-2.15 1.2-4.56 3.7-4.73 0 0-0.07-0.23-0.29-0.6-0.26-0.28-0.76-0.8-0.76-0.8s0.95-0.18 1.5 0.02c0.56 0.21 0.93 0.56 0.93 0.56s0.25-0.52 0.63-0.92c0.36-0.4 0.84-0.64 0.84-0.64s0.55 0.45 0.73 0.76c0.18 0.32 0.3 0.71 0.3 0.71s0.51-0.42 0.95-0.59c0.45-0.18 1.01-0.32 1.01-0.32s-0.15 0.55-0.26 0.83-0.17 0.86-0.17 0.86"/>
    <path id="path490" fill="#058e6e" d="m300.2 408.5s-4.775-3.218-6.838-3.65c-2.652-0.566-5.628-0.11-6.912-0.184 0.036 0.04 1.547 1.12 2.207 1.78s2.867 1.98 4.115 2.3c3.864 0.98 7.428-0.23 7.428-0.23m1.368 0.29s3.05-3.19 6.253-3.62c3.79-0.53 6.27 0.32 7.73 0.7 0.04 0-1.21 0.59-1.87 1.05-0.66 0.44-2.36 1.88-4.97 1.91-2.61 0.04-5.49-0.28-5.96-0.2-0.48 0.07-1.17 0.18-1.17 0.18"/>
    <path id="path492" fill="#ad1519" d="m300.7 404.9c-1.2-1.117-1.943-2.7-1.943-4.465 0-1.752 0.746-3.336 1.958-4.45 1.19 1.115 1.94 2.7 1.93 4.452 0 1.764-0.74 3.347-1.94 4.463"/>
    <path id="path494" fill="#058e6e" d="m299.4 411.4s0.734-1.823 0.806-3.395c0.073-1.308-0.18-2.605-0.18-2.605h0.962s0.468 1.393 0.467 2.605c0 1.224-0.217 2.844-0.217 2.844s-0.66 0.1-0.876 0.21c-0.227 0.11-0.96 0.35-0.96 0.35"/>
    <g id="g496" fill="#c8b100">
     <path id="path498" fill="#ad1519" d="m300.2 377.6c-0.006 15.79-13.4 28.58-30.07 28.57-16.67-0.005-30.18-12.8-30.17-28.6l0.017-40.02 60.24 0.025-0.02 40.02"/>
     <path id="path500" d="m239.9 377c0.176 8.424 3.534 14.7 6.868 18.81l0.024-59.36-6.792-0.003-0.1 40.56zm13.25 24.14c1.884 0.996 4.463 2.665 7.235 3.327l-0.153-68.35-7.056-0.002-0.02 65.03zm13.44 4.83c2.76 0.276 4.812 0.23 7.044 0.002l0.028-69.85-7.044-0.003-0.02 69.85zm13.25-1.496c2.76-0.55 5.88-2.265 7.236-3.153l0.02-65.2-7.06-0.01-0.21 68.35zm13.79-9.306c2.94-2.615 5.704-8.542 6.715-15.31l0.185-43.73-7.044-0.01 0.14 59.04z"/>
    </g>
   </g>
   <g id="g502" transform="matrix(1.2 .0004817 -.0004817 1.2 0 0)">
    <path id="path504" fill="#ad1519" d="m300.6 281.2v33.35c0 13.16-11.28 23.82-25.17 23.82-13.9 0-25.16-10.66-25.16-23.82v-33.35h50.33"/>
    <path id="e" d="m272.7 306.1c0.05-0.14 0.12-0.27 0.19-0.4l-4.26-4.74-1.67 0.72-3.06-3.39 1-1.46-5.34-5.99c-0.07 0.02-0.2 0.02-0.27 0.04l0.03 4.02 1.75 0.5v4.46l-1.75 0.48-0.03 4.08c0.84 0.26 1.48 0.88 1.74 1.67l3.21 0.01 0.51-1.67h4.72l0.5 1.67zm-6.98-18.5v1.61h2.76v-1.61zm-7.3 20.37c0.64 0 1.16-0.49 1.16-1.1s-0.52-1.11-1.16-1.11c-0.65 0-1.17 0.5-1.17 1.11s0.52 1.1 1.17 1.1zm15.99-9.73-1.76-0.48v-4.46l1.76-0.5-0.01-1.92c-0.85-0.25-1.51-0.87-1.79-1.67h-2.68l-0.51 1.67h-4.71l-0.51-1.67h-3.09c-0.08 0.22-0.17 0.42-0.29 0.61l5.38 5.96 1.67-0.71 3.06 3.4-1 1.45 4.18 4.64c0.09-0.04 0.18-0.08 0.28-0.12zm-7.25-1.39-1.29 1.04 1.77 1.98 1.29-1.05zm8.004 36.19c-1.24-0.065-2.255-0.902-2.514-2.016-1.67-0.23-3.25-0.66-4.73-1.3l0.84-1.43c1.29 0.55 2.66 0.91 4.08 1.11 0.31-0.66 0.86-1.16 1.58-1.4l0.01-5.62-1.76-0.49v-4.46l1.76-0.48v-7.64c-0.07-0.02-0.13-0.05-0.2-0.09l-3.98 4.42 1 1.44-3.06 3.4-1.67-0.71-3.3 3.67c0.57 0.87 0.55 2-0.11 2.85 0.94 1.05 2.03 1.98 3.24 2.75l-0.84 1.44c-1.42-0.89-2.7-1.99-3.79-3.22-0.87 0.26-1.86 0.11-2.6-0.5-1.15-0.93-1.29-2.56-0.3-3.64l0.14-0.16c-0.69-1.56-1.16-3.24-1.32-5l1.71 0.01c0.14 1.5 0.51 2.93 1.09 4.27 0.49-0.06 1-0.01 1.46 0.16l3.32-3.68-1-1.45 3.06-3.4 1.67 0.72 3.99-4.43c-0.09-0.14-0.15-0.29-0.21-0.46l-2.76 0.01-0.5 1.67h-4.72l-0.51-1.67-3.24-0.01c-0.27 0.76-0.9 1.36-1.69 1.62l-0.01 4.04-1.71-0.01v-4.01c-1.1-0.33-1.91-1.31-1.91-2.47 0-1.15 0.82-2.15 1.92-2.48l0.01-4.05-1.76-0.48v-4.46l1.76-0.5v-4.05c-1.08-0.35-1.84-1.32-1.84-2.45 0-1.43 1.22-2.58 2.73-2.58 1.22 0 2.25 0.74 2.61 1.78h3.09l0.51-1.67h4.71l0.51 1.67h2.68c0.357-1.03 1.363-1.767 2.56-1.78l0.07 8.37h-0.85v2.61h0.845l-0.02 21.59h-0.785v2.61h0.78zm-5.914-18.31-1.29-1.04-1.78 1.98 1.29 1.04zm-9.96-18.44h-1.69l-0.01 2.61h1.7zm9.16 11.41v-1.6h-2.85v1.6zm-10.6 9.69-1.76-0.39-0.25-4.45 1.75-0.58v2.56c0 0.99 0.09 1.92 0.26 2.86zm1.46-5.52 1.75 0.41s0.09 2.87 0.05 2.22c-0.04-0.74 0.19 2.24 0.19 2.24l-1.76 0.58c-0.18-0.9-0.24-1.84-0.24-2.79zm10.81 16.93 0.39-1.7c-1.52-0.48-2.93-1.18-4.17-2.09l-1.26 1.11c1.48 1.15 3.19 2.08 5.04 2.68zm-0.85 1.44-1.3 1.22c-1.47-0.54-2.86-1.26-4.12-2.11l0.38-1.77c1.5 1.13 3.21 2.03 5.04 2.66z" stroke="#c8b100" stroke-width="0.26" fill="#c8b100"/>
    <use id="use507" xlink:href="#e" transform="matrix(-1 0 0 1 550.4 0)" height="100%" width="100%" y="0" x="0"/>
    <path id="path509" fill="#058e6e" d="m272.6 306.9c0-1.44 1.23-2.6 2.74-2.6s2.73 1.16 2.73 2.6c0 1.43-1.22 2.58-2.73 2.58s-2.74-1.15-2.74-2.58"/>
   </g>
   <g id="g511" stroke-width="0.46" fill="#c8b100">
    <path id="path513" stroke-width=".6240" fill="#ad1519" d="m240 337.6 60.22 0.025 0.027-66.86-60.21-0.02-0.02 66.87z"/>
    <g stroke-width=".5520">
     <path id="path515" d="m260.7 286.2h-1.104v-1.105h-1.95v4.427h1.94v3.06h-4.17l-0.01 8.86h2.22l-0.01 17.75h-4.44l-0.01 9.15 34.1 0.01v-9.16h-4.43v-17.75h2.22v-8.87h-4.16v-3.06h1.94v-4.43h-1.94v1.1h-1.12v-1.11h-1.93v1.1h-1.4v-1.11h-1.94v4.43h1.95v3.06h-4.15v-9.71h2.21v-4.44h-2.21v1.11h-1.12v-1.11h-1.95v1.11h-1.1v-1.11h-2.22v4.44h2.22l-0.01 9.71-4.16-0.01v-3.06h1.95v-4.43h-1.909v1.1h-1.1v-1.11h-2.22v1.1zm-7.505 42.15 34.1 0.013m-34.1-2.233 34.1 0.013m-34.11-2.233 34.1 0.013m-34.11-2.233 34.1 0.013m-34.11-2.51 34.1 0.014m-29.66-1.957 25.24 0.02m-25.24-2.23 25.23 0.01m-25.23-2.5 25.23 0.01m-25.24-2.22 25.24 0.01m-25.23-2.23 25.24 0.01m-25.23-2.23 25.23 0.01m-25.23-2.23 25.23 0.01m-27.46-2.23 29.67 0.01m-29.67-2.23 29.68 0.01m-29.67-2.23 29.68 0.01m-29.68-2.22 29.67 0.01m-25.51-2.23 21.34 0.01m-12.76-2.22h4.16m-4.16-2.22h4.16m-4.17-2.22h4.16m-4.16-2.22h4.16m-6.38-2.77 8.59 0.01m-14.97 9.43 4.43 0.004m-6.37-2.776 8.32 0.007m-8.33 40.76v-2.22m0-2.22v-2.22m-2.22 2.22v2.22m4.16 0v-2.22m2.21 4.44v-2.22m0-2.22v-2.22m0.01-2.497v-1.947m0-2.22v-2.49m-2.21 9.16v-2.5m-4.166 2.49v-2.5m8.59 0v2.5m1.95-2.49v-1.94m-6.37-2.22v2.22m4.43-2.22v2.22m4.16-2.21v2.22m-2.22-2.22v-2.5m2.22-2.21v2.21m0.005-6.64v2.22m-2.22-4.44v2.22m2.22-4.44v2.22m-4-2.7v2.22m-4.43-2.22v2.22m-1.94-4.44v2.22m4.15-2.22v2.22m4.164-2.22v2.22m2.22-4.44v2.22m-4.16-2.22v2.22m-4.43-2.22v2.22m-1.94-4.43v2.21m8.315-2.2v2.21m-4.16-6.65v2.22m19.14-2.21h-4.44m6.38-2.77h-8.33m8.31 40.77v-2.22m0-2.22v-2.22m2.22 2.22v2.22m-4.16 0v-2.22m-2.22 4.44v-2.22m0-2.22v-2.22m0.01-2.5v-1.95m0-2.22v-2.5m2.22 9.16v-2.496m4.16 2.5v-2.496m-8.6-0.003v2.5m-1.95-2.5v-1.95m6.39-2.22v2.22m-4.44-2.22v2.22m-4.15-2.22v2.22m2.21-2.22v-2.495m-2.21-2.21v2.21m0-6.65v2.22m2.21-4.44-0.01 2.22m-2.21-4.44v2.22m4.15-2.22v2.22m4.44-2.21v2.22m1.95-4.44v2.22m-4.17-2.22v2.22m-4.17-2.22v2.22m-2.2-4.44v2.22m4.15-2.22v2.22m4.44-2.22v2.22m1.94-4.422v2.208m-8.33-2.212v2.21m4.16-6.643v2.22m-8.6 22.45v-2.5m0-6.65v-2.22m0 6.66v-2.22m0-6.66v-2.22m0-2.22v-2.21m0-4.44v-2.22m0-2.22v-2.22m-10.54 5.82h4.4m4.17-6.64h4.16m4.15 6.65h4.44"/>
     <path id="path517" d="m275.9 328.4 0.003-5.833c0-1.104-0.55-4.44-5.81-4.443-4.99-0.002-5.54 3.334-5.54 4.438v5.832l11.37 0.005z"/>
     <path id="path519" d="m266.5 322.8-2.77-0.278c0-1.104 0.276-2.772 1.116-3.324l2.495 1.945c-0.28 0.276-0.84 1.104-0.85 1.656zm4.718-2.77 1.393-2.497c-0.56-0.276-1.67-0.552-2.5-0.553-0.55 0-1.67 0.276-2.22 0.552l1.38 2.496h1.94zm2.77 2.772 2.773-0.275c0-1.104-0.28-2.772-1.11-3.324l-2.5 1.943c0.27 0.276 0.82 1.104 0.82 1.656zm-8.036-9.7 0.003-6.107c0-1.656-1.103-3.05-3.047-3.05s-3.05 1.39-3.05 3.047l-0.002 6.108 6.096 0.003zm8.592 0.004 0.003-6.108c0-1.656 1.117-3.047 3.06-3.047 1.933 0.01 3.048 1.4 3.048 3.05l-0.003 6.11h-6.108zm-10.53-14.98 0.28-5.544-5.27-0.002 0.562 5.544 4.428 0.002zm8.328 0.004 0.555-5.544-5.268-0.003 0.273 5.545h4.44zm4.152 0-0.55-5.543 5.545 0.002-0.555 5.54h-4.44z"/>
    </g>
    <path id="path521" fill="#0039f0" d="m274 328.4 0.002-4.992c0-0.84-0.55-3.336-3.874-3.338-3.048 0-3.613 2.495-3.614 3.335l-0.002 4.992 7.488 0.003zm-8.584-15.82v-5.27c0-1.38-0.826-2.772-2.494-2.772s-2.497 1.39-2.497 2.77l-0.01 5.27h4.99zm9.707 0.002 0.002-5.268c0-1.38 0.82-2.77 2.49-2.77 1.65 0 2.49 1.392 2.49 2.772v5.268l-5-0.002z"/>
   </g>
   <path id="path523" stroke-width=".6240" fill="#cccccc" d="m300.2 337.6 60.38 0.025 0.027-66.86-60.38-0.02-0.02 66.87z"/>
   <path id="path525" stroke-width=".4680" fill="#db4446" d="m331 287.2 0.06-0.744 0.11-0.4s-1.933 0.16-2.953-0.13-1.93-0.71-2.88-1.5c-0.947-0.81-1.32-1.32-2.003-1.41-1.63-0.26-2.88 0.48-2.88 0.48s1.224 0.45 2.136 1.57c0.91 1.13 1.907 1.69 2.34 1.84 0.707 0.22 3.19 0.07 3.863 0.09 0.684 0.04 2.208 0.23 2.208 0.23z"/>
   <g id="g527" fill="none">
    <path id="path529" stroke-width=".4680" fill="#ed72aa" d="m340 284.5s0.01 0.864 0.095 1.68c0.072 0.804-0.264 1.487-0.133 1.932 0.132 0.44 0.192 0.79 0.36 1.11 0.168 0.31 0.25 1.13 0.25 1.13s-0.454-0.34-0.886-0.65c-0.42-0.33-0.72-0.53-0.72-0.53l0.12 1.23c0.047 0.37 0.263 1.07 0.61 1.49 0.35 0.39 1.044 1.07 1.26 1.59 0.216 0.54 0.168 1.73 0.168 1.73s-0.552-0.9-1.044-1.07c-0.468-0.17-1.512-0.75-1.512-0.75s0.948 0.95 0.947 1.86c0 0.9-0.384 1.92-0.384 1.92s-0.44-0.82-1-1.34c-0.57-0.54-1.36-1.08-1.36-1.08s0.62 1.4 0.62 2.34-0.18 2.96-0.18 2.96-0.47-0.77-0.95-1.15-1.05-0.7-1.23-0.94c-0.17-0.25 0.57 0.77 0.65 1.39 0.08 0.61 0.38 2.82 2.3 5.63 1.13 1.64 2.86 4.52 6.6 3.57 3.73-0.94 2.35-5.97 1.56-8.31-0.78-2.34-1.18-4.94-1.13-5.85 0.05-0.9 0.69-3.57 0.61-4.07s-0.29-2.4 0.17-3.94c0.48-1.6 0.88-2.22 1.14-2.88 0.25-0.66 0.47-1.03 0.56-1.61 0.08-0.58 0.08-1.65 0.08-1.65s0.69 1.27 0.87 1.72c0.17 0.45 0.17 1.8 0.17 1.8s0.13-1.35 1.17-2.01 2.26-1.36 2.56-1.73 0.39-0.61 0.39-0.61-0.1 2.3-0.75 3.2c-0.43 0.59-2.12 2.5-2.12 2.5s0.87-0.33 1.47-0.36c0.61-0.04 1.04 0.01 1.04 0.01s-0.75 0.57-1.7 1.97c-0.96 1.39-0.57 1.51-1.26 2.67-0.7 1.15-1.26 1.2-2.14 1.89-1.29 1.04-0.6 5.21-0.43 5.83 0.18 0.61 2.43 5.71 2.48 6.95 0.03 1.23 0.25 3.99-1.92 5.76-1.4 1.13-3.69 1.15-4.22 1.47-0.52 0.34-1.55 1.35-1.55 3.49 0 2.15 0.77 2.47 1.38 3.01 0.61 0.53 1.39 0.24 1.56 0.66 0.18 0.41 0.26 0.65 0.53 0.9 0.25 0.24 0.43 0.53 0.35 0.98-0.1 0.45-1.1 1.47-1.44 2.22-0.35 0.73-1.05 2.67-1.05 2.96 0 0.28-0.08 1.18 0.22 1.64 0 0 1.09 1.27 0.34 1.51-0.48 0.17-0.94-0.3-1.16-0.24-0.65 0.17-1 0.56-1.18 0.54-0.43-0.09-0.43-0.3-0.48-0.91-0.03-0.61-0.01-0.86-0.2-0.86-0.27 0-0.4 0.21-0.45 0.54-0.05 0.32-0.05 1.06-0.35 1.06s-0.73-0.54-1-0.66-1-0.24-1.04-0.58c-0.03-0.32 0.43-1.02 0.91-1.15 0.48-0.12 0.91-0.36 0.61-0.61-0.31-0.24-0.61-0.24-0.91 0-0.3 0.25-0.94 0.05-0.91-0.32 0.05-0.37 0.13-0.83 0.09-1.03-0.04-0.21-0.57-0.61 0.12-0.99 0.71-0.37 1.01 0.32 1.7 0.2s1.03-0.37 1.29-0.78 0.21-1.27-0.27-1.8c-0.47-0.54-0.95-0.63-1.13-0.96-0.17-0.33-0.43-1.11-0.43-1.11s0.13 1.44 0.04 1.65c-0.09 0.2-0.05 1.06-0.05 1.06s-0.47-0.54-0.86-0.95-0.78-1.65-0.78-1.65-0.04 1.15-0.04 1.61c0 0.44 0.51 0.864 0.34 1.03-0.18 0.155-1-0.865-1.23-1.03-0.22-0.17-0.91-0.7-1.21-1.28s-0.53-1.39-0.62-1.69c-0.08-0.29-0.228-1.57-0.08-1.9 0.21-0.48 0.56-1.35 0.56-1.35h-1.69c-0.91 0-1.56-0.28-1.91 0.33s-0.18 1.85 0.25 3.454c0.44 1.597 0.69 2.377 0.57 2.665-0.13 0.29-0.7 0.95-0.91 1.07-0.23 0.13-0.83 0.08-1.09-0.04-0.25-0.12-0.68-0.32-1.51-0.32s-1.347 0.03-1.647-0.04c-0.31-0.085-1.05-0.46-1.4-0.37-0.348 0.08-0.948 0.38-0.78 0.86 0.263 0.73-0.25 0.9-0.61 0.864-0.35-0.05-0.64-0.17-1.08-0.29-0.43-0.13-1.08 0-0.998-0.51 0.09-0.49 0.27-0.53 0.48-0.885 0.22-0.388 0.3-0.628 0.05-0.65-0.3-0.027-0.61-0.06-0.84 0.13-0.24 0.19-0.61 0.61-0.91 0.46-0.31-0.17-0.55-0.52-0.55-1.3 0-0.77-0.82-1.44-0.06-1.41 0.74 0.04 1.69 0.58 1.86 0.16s0.07-0.61-0.34-0.935c-0.4-0.32-0.91-0.513-0.37-0.92 0.54-0.42 0.67-0.42 0.89-0.643 0.206-0.21 0.49-0.94 0.88-0.76 0.74 0.36 0.02 0.87 0.78 1.7 0.74 0.83 1.21 1.13 2.47 1 1.25-0.13 1.593-0.28 1.594-0.64 0-0.35-0.1-0.99-0.14-1.25-0.024-0.25 0.18-1.19 0.18-1.19s-0.576 0.36-0.756 0.704c-0.16 0.35-0.507 0.96-0.507 0.96s-0.134-0.72-0.1-1.3c0.025-0.35 0.146-0.95 0.134-1.07-0.04-0.33-0.28-1.13-0.28-1.13s-0.19 0.877-0.34 1.13c-0.13 0.25-0.19 1.28-0.19 1.28s-0.8-0.7-0.58-1.86c0.16-0.9-0.14-2.09 0.13-2.47 0.26-0.393 0.9-1.97 2.47-2.024 1.56-0.06 2.77 0.06 3.328 0.034 0.54-0.03 2.47-0.39 2.47-0.39s-3.56-1.83-4.368-2.38c-0.81-0.54-2.07-1.96-2.48-2.59-0.41-0.65-0.78-1.9-0.78-1.9s-0.632 0.02-1.22 0.346c-0.575 0.32-1.15 0.8-1.49 1.18-0.33 0.39-0.87 1.26-0.87 1.26s0.1-1.122 0.1-1.47c0-0.35-0.07-1.035-0.07-1.035s-0.4 1.54-1.22 2.11c-0.82 0.59-1.766 1.38-1.766 1.38s0.097-0.85 0.097-1.05c0-0.19 0.21-1.19 0.21-1.19s-0.57 0.87-1.45 1.03c-0.89 0.16-2.17 0.13-2.28 0.67-0.09 0.54 0.24 1.29 0.04 1.67-0.2 0.39-0.65 0.65-0.65 0.65s-0.5-0.42-0.94-0.453c-0.43-0.034-0.85 0.19-0.85 0.19s-0.37-0.48-0.23-0.8c0.13-0.31 0.8-0.79 0.65-0.994-0.18-0.19-0.72 0.075-1.052 0.23-0.34 0.17-1.06 0.32-0.985-0.23 0.06-0.54 0.24-0.862 0.06-1.25-0.17-0.38-0.06-0.63 0.216-0.73 0.27-0.09 1.35 0.03 1.45-0.22s-0.26-0.58-0.98-0.73c-0.703-0.17-1.05-0.59-0.68-0.94 0.385-0.36 0.48-0.46 0.65-0.77 0.17-0.324 0.24-0.912 0.89-0.612 0.64 0.29 0.5 1 1.19 1.21 0.67 0.23 2.27-0.1 2.6-0.29 0.34-0.19 1.43-0.99 1.8-1.18 0.37-0.18 1.93-1.34 1.93-1.34s-0.91-0.63-1.26-0.96c-0.33-0.32-0.93-1.09-1.24-1.26-0.3-0.15-1.8-0.73-2.31-0.77-0.5-0.02-2.06-0.57-2.06-0.57s0.71-0.23 0.95-0.42c0.23-0.19 0.77-0.67 1.05-0.64 0.26 0.03 0.333 0.03 0.333 0.03s-1.45-0.06-1.768-0.16c-0.3-0.095-1.19-0.65-1.52-0.65-0.34 0-1.01 0.134-1.01 0.134s0.91-0.58 1.65-0.71c0.746-0.12 1.32-0.1 1.32-0.1s-1.15-0.322-1.426-0.7c-0.26-0.39-0.54-0.96-0.74-1.22-0.205-0.25-0.336-0.67-0.71-0.71-0.37-0.03-1.02 0.46-1.395 0.42-0.37-0.03-0.65-0.26-0.68-0.8-0.03-0.55 0-0.36-0.12-0.64-0.15-0.29-0.69-0.96-0.18-1.114 0.51-0.17 1.59 0.1 1.7-0.09 0.1-0.19-0.57-0.78-1.02-0.99-0.44-0.23-1.15-0.61-0.78-0.93 0.37-0.31 0.75-0.45 0.95-0.73 0.2-0.29 0.44-1.1 0.89-0.84 0.43 0.25 1.04 1.51 1.39 1.41 0.335-0.09 0.36-0.99 0.3-1.38-0.07-0.38 0-1.05 0.335-0.99 0.33 0.06 0.61 0.51 1.15 0.55 0.54 0.02 1.35-0.13 1.28 0.25-0.06 0.39-0.37 0.85-0.75 1.27-0.36 0.43-0.54 1.26-0.3 1.8 0.24 0.55 0.85 1.43 1.39 1.776s1.56 0.61 2.21 1.02c0.63 0.42 2.13 1.61 2.64 1.74 0.5 0.13 1.02 0.385 1.02 0.385s0.57-0.25 1.35-0.25 2.57 0.12 3.254-0.17c0.69-0.29 1.56-0.77 1.3-1.38-0.275-0.617-1.76-1.158-1.63-1.638s0.686-0.52 1.6-0.556c0.91-0.026 2.16 0.17 2.4-1.13 0.24-1.27 0.31-2.017-0.97-2.306-1.3-0.29-2.246-0.32-2.486-1.25s-0.47-1.16-0.2-1.41c0.28-0.25 0.748-0.38 1.69-0.44 0.96-0.08 2.04-0.07 2.35-0.3 0.3-0.22 0.36-0.83 0.74-1.09 0.37-0.26 1.83-0.48 1.83-0.48s1.75 0.85 3.36 2.05c1.45 1.08 2.76 2.68 2.76 2.68"/>
    <path id="path531" stroke-width=".4680" d="m322.7 292.2s-0.96 0.275-1.32 0.803c-0.445 0.64-0.41 1.29-0.41 1.29s0.817-0.67 1.873-0.39c1.044 0.29 1.152 0.4 1.596 0.36 0.444-0.03 1.524-0.42 1.524-0.42s-0.888 1.04-0.78 1.74c0.095 0.7 0.227 1.02 0.203 1.38-0.08 0.87-0.73 1.94-0.73 1.94s0.37-0.23 1.26-0.42c0.87-0.19 1.63-0.61 2.1-0.97 0.47-0.35 1.08-1.22 1.08-1.22s-0.19 1.2 0 1.71c0.2 0.53 0.27 2 0.27 2s0.56-0.5 1.02-0.74c0.23-0.13 0.84-0.45 1.08-0.84 0.17-0.26 0.38-1.27 0.38-1.27s0.13 1.08 0.46 1.61c0.33 0.5 0.84 2.09 0.84 2.09s0.35-1.03 0.72-1.45 0.81-0.96 0.84-1.28-0.1-1.02-0.1-1.02l0.46 1.02m-13.7 0.73s0.57-1 1.12-1.32c0.55-0.31 1.29-0.89 1.5-0.96 0.19-0.06 1.08-0.55 1.08-0.55m1.18 6.2s1.3-0.66 1.69-0.9c0.81-0.48 1.39-1.34 1.39-1.34"/>
    <path id="path533" stroke-width=".3120" d="m339 289.2s-0.408-0.576-0.504-0.78c-0.108-0.18-0.276-0.576-0.276-0.576"/>
    <path id="path535" stroke-width=".4680" d="m333.9 309s2.447 1.513 2.375 2.773c-0.073 1.24-1.357 2.89-1.357 2.89"/>
   </g>
   <path id="path537" stroke-width=".3120" d="m327.5 283.6s-0.204-0.577-0.24-0.745c-0.035-0.156-0.143-0.348-0.143-0.348s1.056 0 1.02 0.325c-0.025 0.324-0.337 0.324-0.41 0.444-0.06 0.132-0.227 0.324-0.227 0.324z"/>
   <path id="path539" stroke-width=".06" d="m332.4 282-0.073-0.516s0.924 0 1.356 0.313c0.684 0.48 1.115 1.224 1.09 1.26-0.12 0.108-0.646-0.324-1.018-0.444 0 0-0.276 0.06-0.54 0.06-0.276 0-0.408-0.132-0.444-0.252-0.03-0.144 0.04-0.36 0.04-0.36l-0.41-0.06z"/>
   <path id="path541" stroke-width=".3120" d="m327.6 288.3 0.397-0.636 0.407 0.588-0.804 0.048m0.972-0.024 0.48-0.636 0.516 0.576-0.996 0.06m-0.43-3.948 0.984 0.348-0.888 0.456-0.096-0.804m1.188 0.324 0.876 0.217-0.71 0.55-0.166-0.77"/>
   <path id="path543" stroke-width=".4680" fill="#db4446" d="m314.1 283.4s0.576 0.408 1.02 0.48c0.444 0.06 0.912 0.06 0.984 0.06 0.06 0 0.204-0.647 0.132-1.09-0.24-1.44-1.56-1.766-1.56-1.766s0.397 0.877 0.205 1.284c-0.277 0.576-0.78 1.032-0.78 1.032zm-2.748 1.248s-0.516-0.925-1.596-0.806c-1.08 0.132-1.8 0.972-1.8 0.972s1.2-0.036 1.5 0.156c0.444 0.288 0.575 1.032 0.575 1.032s0.648-0.383 0.852-0.647c0.193-0.252 0.47-0.708 0.47-0.708zm-1.322 3.754s-0.924 0.132-1.428 0.708c-0.516 0.588-0.433 1.68-0.433 1.68s0.61-0.648 1.15-0.648c0.55 0 1.39 0.193 1.39 0.193s-0.26-0.672-0.26-0.96-0.4-0.973-0.4-0.973zm3.078 12.15s-0.502-0.54-1.39-0.385c-0.89 0.168-1.465 1.164-1.465 1.164s0.756-0.21 1.2-0.1c0.432 0.09 0.744 0.54 0.744 0.54s0.4-0.35 0.54-0.54c0.13-0.19 0.37-0.69 0.37-0.69zm-1.02 3.563s-0.744-0.12-1.392 0.396c-0.636 0.51-0.673 1.49-0.673 1.49s0.612-0.52 1.092-0.45c0.468 0.06 1.044 0.32 1.044 0.32s0.1-0.62 0.14-0.77c0.11-0.46-0.2-1.01-0.2-1.01zm1.74 3.29s-0.062 0.947 0.394 1.535c0.48 0.612 1.356 0.71 1.356 0.71s-0.288-0.637-0.336-0.96c-0.072-0.48 0.408-0.9 0.408-0.9s-0.443-0.457-0.875-0.458c-0.444 0-0.948 0.072-0.948 0.072zm8.803 8.45s-0.61-0.77-1.45-0.744c-0.853 0.03-1.742 0.82-1.742 0.82s1.06-0.09 1.34 0.26c0.28 0.36 0.54 0.8 0.54 0.8s0.48-0.25 0.69-0.42c0.21-0.16 0.64-0.73 0.64-0.73zm-2.605 3.372s-1.116-0.17-1.668 0.42c-0.54 0.575-0.505 1.63-0.505 1.63s0.672-0.73 1.284-0.67c0.61 0.06 1.29 0.384 1.29 0.384s-0.11-0.64-0.18-0.94c-0.06-0.29-0.23-0.83-0.23-0.83zm2.41 3.565s-0.552 0.767-0.144 1.38c0.408 0.612 1.26 0.9 1.26 0.9s-0.312-0.444-0.168-0.96c0.108-0.408 0.804-0.96 0.804-0.96l-1.752-0.36zm14.88 1.457s-0.972-0.228-1.524 0.096c-0.54 0.312-0.985 1.667-0.985 1.667s0.88-0.743 1.53-0.647c0.63 0.096 1.11 0.36 1.11 0.36s0.09-0.55 0.02-0.935c-0.04-0.228-0.17-0.54-0.17-0.54zm0.478 3.59s-0.744 0.766-0.48 1.414c0.276 0.65 0.743 1.33 0.743 1.33s-0.03-0.96 0.27-1.22c0.44-0.38 1.26-0.44 1.26-0.44s-0.65-0.57-0.85-0.65c-0.21-0.06-0.95-0.42-0.95-0.42zm3.732 1.128s-0.372 0.936 0.335 1.536c0.708 0.63 1.332 0.69 1.332 0.69s-0.552-0.97-0.383-1.47c0.18-0.54 0.648-0.86 0.648-0.86s-0.888-0.3-1.02-0.26c-0.132 0.03-0.912 0.39-0.912 0.39z"/>
   <g id="g545" fill="#c8b100">
    <path id="path547" stroke-width=".3120" d="m339.3 279.4-0.348 0.024c-0.012 0.036-0.168 0.288-0.312 0.42-0.312 0.3-0.78 0.336-1.032 0.084-0.132-0.132-0.192-0.313-0.168-0.493-0.204 0.108-0.42 0.108-0.612-0.012-0.312-0.18-0.384-0.6-0.168-0.94 0.036-0.07 0.072-0.17 0.132-0.21l-0.024-0.38-0.42 0.1-0.12 0.23c-0.264 0.3-0.648 0.37-0.84 0.21-0.096-0.08-0.168-0.31-0.156-0.32 0 0.02-0.108 0.11-0.204 0.14-0.648 0.16-0.9-1.26-0.923-1.62l-0.21 0.3s0.19 0.84 0.09 1.56c-0.1 0.71-0.35 1.43-0.35 1.43 0.89 0.23 2.23 0.96 3.56 1.98s2.37 2.14 2.8 2.91c0 0 0.69-0.38 1.41-0.61 0.72-0.22 1.63-0.23 1.63-0.23l0.26-0.25c-0.39 0.06-1.9 0.12-1.87-0.52 0-0.09 0.08-0.21 0.09-0.21-0.02 0.01-0.26-0.01-0.36-0.07-0.22-0.15-0.22-0.51 0.02-0.82l0.21-0.15 0.01-0.4-0.4 0.06c-0.04 0.05-0.13 0.11-0.18 0.16-0.33 0.27-0.78 0.3-1.03 0.03-0.16-0.14-0.21-0.34-0.13-0.55-0.2 0.05-0.39 0.04-0.54-0.06-0.32-0.18-0.38-0.62-0.14-0.96 0.11-0.17 0.34-0.37 0.37-0.38l-0.09-0.36h-0.01z"/>
    <path id="path549" stroke-width=".06" fill="#000000" d="m336.6 280.2c0.06-0.084 0.18-0.072 0.276 0s0.12 0.192 0.07 0.252c-0.06 0.072-0.18 0.072-0.287-0.012-0.084-0.06-0.12-0.18-0.06-0.24zm1.14 0.95-0.397-0.3c-0.072-0.05-0.084-0.146-0.048-0.194 0.04-0.04 0.14-0.04 0.21 0.01l0.39 0.31 0.39 0.3c0.06 0.05 0.09 0.15 0.05 0.19-0.05 0.05-0.15 0.05-0.22 0l-0.4-0.31m-2.09-1.43-0.31-0.18c-0.09-0.05-0.12-0.14-0.09-0.2s0.13-0.07 0.2-0.02l0.31 0.2 0.31 0.18c0.07 0.04 0.11 0.13 0.08 0.19-0.04 0.06-0.13 0.08-0.21 0.03l-0.32-0.18m-1.24-0.85c0.06-0.07 0.19-0.07 0.29 0 0.09 0.09 0.12 0.2 0.06 0.27-0.06 0.06-0.18 0.06-0.28-0.01s-0.12-0.18-0.08-0.25zm4.59 3.16c0.06-0.06 0.04-0.17-0.06-0.25-0.1-0.07-0.23-0.07-0.29 0-0.05 0.06-0.02 0.18 0.07 0.25s0.22 0.07 0.28 0zm0.68 0.79 0.27 0.26c0.06 0.06 0.16 0.09 0.22 0.04 0.05-0.04 0.05-0.13-0.01-0.19l-0.25-0.25-0.26-0.25c-0.06-0.06-0.17-0.08-0.22-0.03-0.06 0.04-0.05 0.13 0.01 0.19l0.25 0.25m1.14 0.97c0.06-0.07 0.04-0.18-0.06-0.25-0.1-0.08-0.22-0.08-0.28-0.01-0.06 0.08-0.04 0.18 0.06 0.27 0.09 0.06 0.21 0.07 0.27 0z"/>
    <g stroke-width=".3120">
     <path id="path551" d="m337.6 276.6-0.71 0.01-0.13 1.045 0.07 0.168 0.18-0.01 0.913-0.61-0.324-0.6"/>
     <path id="path553" d="m337.6 276.6-0.71 0.01-0.13 1.045 0.07 0.168 0.18-0.01 0.913-0.61-0.324-0.6"/>
     <path id="path555" d="m335.6 277.1-0.025 0.648 1.103 0.15 0.18-0.08-0.023-0.18-0.636-0.85-0.6 0.33"/>
     <path id="path557" d="m337.9 278.4-0.588 0.323-0.648-0.852-0.01-0.18 0.167-0.07 1.11 0.14-0.04 0.65"/>
     <path id="path559" d="m336.5 277.6c0.097-0.156 0.313-0.204 0.47-0.108 0.167 0.084 0.215 0.288 0.118 0.444-0.096 0.16-0.312 0.21-0.468 0.11-0.168-0.09-0.215-0.29-0.12-0.44zm-2.58-1.08c-0.023 0.01-0.155-0.553-0.31-0.853-0.097-0.228-0.468-0.516-0.468-0.516 0.036-0.06 0.504-0.228 1.044 0.108 0.455 0.372-0.037 1.044-0.037 1.044s-0.11 0.168-0.23 0.216z"/>
     <path id="path561" d="m335.2 276.9-0.504 0.443-0.816-0.72 0.072-0.096 0.03-0.18 1.1-0.083 0.1 0.64"/>
     <path id="path563" d="m333.8 276.5c0.06-0.18 0.216-0.276 0.336-0.24 0.132 0.048 0.18 0.216 0.12 0.396s-0.216 0.276-0.348 0.24c-0.132-0.048-0.18-0.216-0.108-0.396zm6.515 1.778-0.708-0.072-0.3 1.02 0.06 0.168 0.18 0.012 0.996-0.49-0.228-0.637"/>
     <path id="path565" d="m338.3 278.6-0.12 0.648 1.08 0.276 0.18-0.048 0.012-0.168-0.516-0.948-0.636 0.24"/>
     <path id="path567" d="m340.4 280.2-0.637 0.238-0.503-0.936 0.012-0.18 0.18-0.036 1.068 0.277-0.12 0.636"/>
     <path id="path569" d="m339.1 279.2c0.12-0.144 0.336-0.156 0.48-0.048 0.156 0.108 0.18 0.312 0.06 0.456s-0.336 0.156-0.492 0.048c-0.144-0.108-0.168-0.312-0.048-0.456zm3.587 1.286 0.132 0.66-1.044 0.36-0.192-0.05-0.01-0.167 0.44-0.972 0.69 0.17"/>
     <path id="path571" d="m342.5 282.4-0.672 0.155-0.372-0.996 0.05-0.18 0.18-0.024 1.02 0.42-0.2 0.625"/>
     <path id="path573" d="m340.6 280.5-0.215 0.623 1.02 0.408 0.192-0.02 0.036-0.17-0.36-0.99-0.672 0.16"/>
     <path id="path575" d="m341.8 281.7c0.143-0.132 0.143-0.336 0.023-0.468-0.132-0.132-0.348-0.132-0.492-0.024-0.13 0.14-0.14 0.34-0.01 0.47 0.12 0.13 0.35 0.15 0.48 0.03zm1.654 2.16c0 0.013 0.6 0.037 0.948 0.11 0.24 0.047 0.624 0.324 0.624 0.324 0.072-0.048 0.144-0.504-0.336-0.95-0.468-0.335-1.056 0.265-1.056 0.265s-0.144 0.144-0.18 0.252z"/>
     <path id="path577" d="m342.8 282.8-0.35 0.55 0.913 0.614 0.108-0.096 0.156-0.048-0.143-1.056-0.68 0.036"/>
     <path id="path579" d="m343.5 284c0.168-0.084 0.252-0.264 0.18-0.372s-0.264-0.12-0.432-0.024-0.24 0.264-0.168 0.372c0.06 0.108 0.252 0.12 0.42 0.024z"/>
    </g>
   </g>
   <g id="g581" stroke-width="0.61" transform="matrix(1.2 .0004817 -.0004817 1.2 0 0)">
    <ellipse id="ellipse583" rx="16.26" ry="18.3" cy="281" cx="250.4" fill="#ad1519"/>
    <ellipse id="ellipse585" rx="11.44" ry="13.42" cy="281" cx="250.4" fill="#005bbf"/>
    <g id="f" stroke-width=".34" fill="#c8b100">
     <path id="path588" stroke-linejoin="round" d="m245 271.7s-1.35 1.48-1.35 2.86c0 1.39 0.57 2.54 0.57 2.54-0.21-0.55-0.76-0.94-1.41-0.94-0.83 0-1.5 0.63-1.5 1.42 0 0.22 0.14 0.58 0.24 0.77l0.49 0.99c0.16-0.37 0.54-0.57 0.98-0.57 0.59 0 1.08 0.45 1.08 1.01 0 0.09-0.01 0.17-0.04 0.25l-1.22 0.01v1.03h1.09l-0.81 1.61 1.07-0.42 0.81 0.91 0.84-0.91 1.07 0.42-0.8-1.61h1.08v-1.03l-1.22-0.01c-0.02-0.08-0.02-0.16-0.02-0.25 0-0.56 0.47-1.01 1.06-1.01 0.44 0 0.82 0.2 0.98 0.57l0.49-0.99c0.1-0.19 0.24-0.55 0.24-0.77 0-0.79-0.67-1.42-1.49-1.42-0.66 0-1.21 0.39-1.41 0.94 0 0 0.57-1.15 0.57-2.54 0-1.38-1.39-2.86-1.39-2.86z"/>
     <path id="path590" d="m242.9 281.1h4.36v-1.03h-4.36v1.03z"/>
    </g>
    <use id="use592" xlink:href="#f" height="100%" width="100%" y="0" x="10.63"/>
    <use id="use594" xlink:href="#f" height="100%" width="100%" y="9.1400003" x="5.3099999"/>
   </g>
  </g>
 </g>
</svg>
