<?xml version="1.0" encoding="UTF-8" standalone="no"?>
<svg
   xmlns:dc="http://purl.org/dc/elements/1.1/"
   xmlns:cc="http://creativecommons.org/ns#"
   xmlns:rdf="http://www.w3.org/1999/02/22-rdf-syntax-ns#"
   xmlns:svg="http://www.w3.org/2000/svg"
   xmlns="http://www.w3.org/2000/svg"
   xmlns:sodipodi="http://sodipodi.sourceforge.net/DTD/sodipodi-0.dtd"
   xmlns:inkscape="http://www.inkscape.org/namespaces/inkscape"
   version="1.1"
   id="svg2"
   viewBox="0 0 899.75139 600.00003"
   height="169.33334mm"
   width="253.92984mm"
   inkscape:version="0.91 r"
   sodipodi:docname="ENG.svg">
  <sodipodi:namedview
     pagecolor="#ffffff"
     bordercolor="#666666"
     borderopacity="1"
     objecttolerance="10"
     gridtolerance="10"
     guidetolerance="10"
     inkscape:pageopacity="0"
     inkscape:pageshadow="2"
     inkscape:window-width="640"
     inkscape:window-height="480"
     id="namedview935"
     showgrid="false"
     fit-margin-top="0"
     fit-margin-left="0"
     fit-margin-right="0"
     fit-margin-bottom="0"
     inkscape:zoom="0.044327103"
     inkscape:cx="-1712.3919"
     inkscape:cy="-2489.5616"
     inkscape:window-x="0"
     inkscape:window-y="23"
     inkscape:window-maximized="0"
     inkscape:current-layer="layer1" />
  <defs
     id="defs4" />
  <metadata
     id="metadata7">
    <rdf:RDF>
      <cc:Work
         rdf:about="">
        <dc:format>image/svg+xml</dc:format>
        <dc:type
           rdf:resource="http://purl.org/dc/dcmitype/StillImage" />
        <dc:title></dc:title>
      </cc:Work>
    </rdf:RDF>
  </metadata>
  <g
     transform="translate(-4188.8863,916.65449)"
     id="layer1">
    <g
       transform="matrix(0.33333334,0,0,0.33333334,4188.8863,-916.65449)"
       id="isl">
      <path
         id="path7945"
         d="m 0,1100 700,0 0,700 -700,0"
         style="fill:#003897"
         inkscape:connector-curvature="0" />
      <path
         id="path7947"
         d="m 0,0 697.35824,0 0,699.69952 -697.35824,0"
         style="fill:#003897"
         inkscape:connector-curvature="0" />
      <path
         style="fill:#003897"
         d="m 1100,0 1599.2541,0 0,700 L 1100,700"
         id="path6184"
         inkscape:connector-curvature="0" />
      <path
         id="path7949"
         d="m 1100,1100 1599.2541,0 0,700 L 1100,1800"
         style="fill:#003897"
         inkscape:connector-curvature="0" />
      <path
         style="fill:#ffffff"
         d="m 700,0 400,0 0,1800 -400,0 M 0,700 l 2699.2541,0 0,400 L 0,1100"
         id="path6186"
         inkscape:connector-curvature="0" />
      <path
         style="fill:#d72828"
         d="m 800,0 200,0 0,1800 -200,0 M 0,800 l 2699.2541,0 0,200 L 0,1000"
         id="path6188"
         inkscape:connector-curvature="0" />
    </g>
  </g>
</svg>
