<?xml version="1.0" encoding="UTF-8" standalone="no"?>
<svg
   xmlns:dc="http://purl.org/dc/elements/1.1/"
   xmlns:cc="http://creativecommons.org/ns#"
   xmlns:rdf="http://www.w3.org/1999/02/22-rdf-syntax-ns#"
   xmlns:svg="http://www.w3.org/2000/svg"
   xmlns="http://www.w3.org/2000/svg"
   xmlns:xlink="http://www.w3.org/1999/xlink"
   xmlns:sodipodi="http://sodipodi.sourceforge.net/DTD/sodipodi-0.dtd"
   xmlns:inkscape="http://www.inkscape.org/namespaces/inkscape"
   id="svg2"
   height="600"
   width="900"
   version="1.1"
   viewBox="0 0 899.99993 601.18344"
   inkscape:version="0.91 r"
   sodipodi:docname="NIR_opt.svg">
  <defs
     id="defs211" />
  <sodipodi:namedview
     pagecolor="#ffffff"
     bordercolor="#666666"
     borderopacity="1"
     objecttolerance="10"
     gridtolerance="10"
     guidetolerance="10"
     inkscape:pageopacity="0"
     inkscape:pageshadow="2"
     inkscape:window-width="1313"
     inkscape:window-height="875"
     id="namedview209"
     showgrid="false"
     units="px"
     inkscape:zoom="0.69950477"
     inkscape:cx="335.42031"
     inkscape:cy="191.18675"
     inkscape:window-x="0"
     inkscape:window-y="23"
     inkscape:window-maximized="0"
     inkscape:current-layer="svg2" />
  <metadata
     id="metadata7">
    <rdf:RDF>
      <cc:Work
         rdf:about="">
        <dc:format>image/svg+xml</dc:format>
        <dc:type
           rdf:resource="http://purl.org/dc/dcmitype/StillImage" />
        <dc:title></dc:title>
      </cc:Work>
    </rdf:RDF>
  </metadata>
  <g
     id="layer1"
     transform="matrix(1.0019723,0,0,1.0014716,-3117.0215,-1637.406)">
    <g
       id="nir"
       transform="matrix(1.5,0,0,1.5,3110,1710)">
      <g
         id="g6"
         style="fill:#ffffff;fill-rule:evenodd">
        <rect
           id="rect1433"
           rx="2.45e-15"
           ry="4.28e-16"
           height="170"
           width="265"
           y="-50"
           x="0" />
        <rect
           id="use3168"
           rx="5.55e-15"
           ry="7.5500001e-16"
           height="60"
           width="600"
           y="120"
           x="0"
           style="fill:#cc0000;fill-rule:evenodd" />
        <rect
           id="rect7943"
           rx="2.45e-15"
           ry="4.28e-16"
           height="170"
           width="265"
           y="-50"
           x="335" />
      </g>
      <use
         id="use6771"
         xlink:href="#use3168"
         transform="matrix(0,0.667,-1.17,0,475,-50)"
         height="300"
         width="600"
         y="0"
         x="0" />
      <path
         id="path5103"
         d="m 322,91.6 c 1.93,-3.01 0.774,-4.96 -2.14,-5.56 0,0 -9.29,2.98 -19.3,3.31 -10,0.327 -22,-2.52 -22,-2.52 -2.14,1.34 -1.62,4.53 -0.556,6.51 0,0 10.5,3.49 22.5,3.15 7.6,-0.218 14.8,-2.16 18.8,-3.44 2.32,-0.738 2.68,-1.41 2.68,-1.44 z"
         inkscape:connector-curvature="0"
         style="fill:#ebeae3;fill-rule:evenodd;stroke:#000000;stroke-width:0.32600001px" />
      <g
         id="g13"
         style="fill:#ffffff">
        <rect
           id="rect7939"
           rx="2.45e-15"
           ry="4.28e-16"
           height="170"
           width="265"
           y="180"
           x="335"
           style="fill-rule:evenodd" />
        <rect
           id="rect7941"
           rx="2.45e-15"
           ry="4.28e-16"
           height="170"
           width="265"
           y="180"
           x="0"
           style="fill-rule:evenodd" />
        <path
           id="path3244"
           d="m -236,69.9 -22.3,-46.4 -51.3,3.86 29,-42.5 -29,-42.5 51.3,3.86 22.3,-46.4 22.3,46.4 51.3,-3.86 -29,42.5 29,42.5 -51.3,-3.86 z"
           transform="matrix(0.864,0,0,0.864,504,163)"
           inkscape:connector-curvature="0"
           style="stroke:#161111;stroke-width:1.15999997" />
      </g>
      <g
         id="g18"
         style="stroke:#000000">
        <path
           id="path34974"
           d="m 300,76.4 c 24.2,3.99 23.4,5.12 23.4,5.12 l 6.32,-18.9 c 0,0 0.666,-3.73 -1.06,-5.99 -1.726,-2.26 -6.59,-0.998 -6.59,-0.998 0,0 -0.666,-3.06 -2.8,-3.79 -2.13,-0.732 -10.1,2.86 -12.5,3.66 -2.46,0.799 -3.73,1.6 -7.19,1.53 -3.46,-0.0666 -9.65,-3.13 -10.8,-3.73 -1.13,-0.599 -2.8,-1.2 -4.33,-1.13 -1.53,0.0666 -3.13,0.466 -3.93,1.53 -0.799,1.06 -0.799,2.4 -0.799,2.4 0,0 -1.26,-0.799 -3.26,-0.799 -2,0 -3.13,0.266 -4.06,1.33 -0.932,1.06 -2.13,4.06 -2.13,4.06 l 2.26,5.12 0.133,7.06 4.73,7.45 22.6,-3.93 z"
           inkscape:connector-curvature="0"
           style="fill:#b02320;fill-rule:evenodd;stroke-width:0.815" />
        <path
           id="path30012"
           d="m 322,87.1 c 0,0 1.22,1.45 1.17,1.97 -0.0469,0.516 -0.563,0.985 -0.563,0.985 0,0 0.375,0.375 0.282,0.938 -0.0938,0.563 -0.845,0.61 -0.845,0.61 0,0 0.141,0.516 -0.328,0.751 -0.469,0.235 -2.39,0.657 -2.39,0.657 0,0 -9.38,-2.67 -19.4,-2.67 -10.02,0 -21.9,3.24 -21.9,3.24 0,0 -1.22,-0.422 -1.27,-1.22 -0.0469,-0.798 0.141,-1.36 0.141,-1.36 0,0 -0.668,0.0696 -0.845,-0.516 -0.247,-0.819 0.0938,-1.45 0.0938,-1.45 0,0 -0.465,0.15 0.0469,-0.938 0.375,-0.798 0.938,-1.08 0.938,-1.08 0,0 10.5,-3.75 22.5,-3.8 12,-0.0469 22.4,3.8 22.4,3.89 z"
           inkscape:connector-curvature="0"
           style="fill:#ebeae3;fill-rule:evenodd;stroke-width:0.32600001px" />
        <path
           id="path41763"
           d="m 273,63.4 c 0,0 -0.401,-1.36 0.481,-2.56 0.881,-1.2 2.48,-1.12 2.96,-0.881 0.481,0.24 0.401,0.801 1.04,0.962 0.641,0.16 1.12,-0.321 1.12,-0.321"
           inkscape:connector-curvature="0"
           style="fill:none;stroke-width:0.71700001" />
        <path
           id="path17396"
           d="m 331,66.6 -3.64,7.53 -1.43,0.251 c 0,0 -0.873,-0.524 -3.36,-0.351 -1.78,0.125 -2.31,0.577 -2.31,0.577 l 3.24,-7.5 c 0,0 0.252,1.61 0.627,2.56 0.477,1.2 2.28,2.33 2.28,2.33 0,0 0.25,-1.44 -0.226,-3.19 -0.527,-1.93 -1.76,-4.54 -1.76,-4.54 l 6.58,2.33 z"
           inkscape:connector-curvature="0"
           style="fill:#ffcc00;fill-opacity:0.94100001;fill-rule:evenodd;stroke-width:0.75" />
      </g>
      <g
         id="g24">
        <rect
           id="rect5511"
           height="17.299999"
           width="4.0700002"
           y="43.299999"
           x="298"
           style="fill:#121116;stroke:#121116;stroke-width:0.73000002;stroke-linejoin:round" />
        <path
           id="path24185"
           d="m 273,75.1 2.62,5.6 c 0,0 11.1,-4.34 24.3,-4.26 19.7,0.122 25.3,4.08 25.3,4.08 l 2.92,-6.93 -2.19,1.28 -2.25,1.4 -2.55,0.973 -3.1,-0.243 -2.74,-2.01 -1.4,-2.92 -2.31,2.13 -4.08,0.912 -4.01,-1.03 -3.53,-4.44 c 0,0 -2.63,4.94 -5.96,5.23 -4.81,0.426 -7.6,-2.31 -7.6,-2.31 0,0 -1.79,4.01 -4.74,4.74 -4.68,1.16 -8.58,-2.19 -8.64,-2.19 z"
           inkscape:connector-curvature="0"
           style="fill:#f6ca1f;fill-rule:evenodd;stroke:#000000;stroke-width:0.61900002" />
        <path
           id="path5529-0"
           d="m 300,34.2 c 7e-5,0.351 -0.296,0.635 -0.662,0.636 -0.366,7.54e-4 -0.663,-0.283 -0.665,-0.633 -10e-4,-0.351 0.294,-0.636 0.66,-0.639 0.366,-0.0021 0.665,0.28 0.668,0.631"
           inkscape:connector-curvature="0"
           style="fill:#f0ddcb;stroke:#121116;stroke-width:0.373;stroke-linejoin:round" />
      </g>
      <g
         id="g5545"
         transform="matrix(0.288,0,0,0.288,192,-31.5)"
         style="stroke-width:2.52999997">
        <path
           id="path5541-5"
           d="m 431,247 c 8e-5,3.61 -2.88,6.53 -6.44,6.54 -3.56,0.007 -6.45,-2.91 -6.47,-6.51 -0.014,-3.61 2.86,-6.55 6.41,-6.57 3.56,-0.0213 6.46,2.88 6.49,6.49"
           transform="matrix(0.836,0,0,0.836,20.1,0.83)"
           inkscape:connector-curvature="0"
           style="fill:#eeeeee;stroke:#1e1e1e;stroke-width:3.02999997;stroke-linejoin:round" />
        <path
           id="path5543-5"
           d="m 372,211 c 0,0 4.36,-0.0739 4.8,-1.85 0.443,-1.77 -0.296,-4.07 -0.296,-4.07 0,0 2.07,2.29 1.48,4.07 -0.591,1.77 -1.17,2.23 -2.66,2.59 -1.01,0.24 -2.51,-0.148 -3.33,-0.739 z"
           inkscape:connector-curvature="0"
           style="fill:#a3afb8;fill-rule:evenodd" />
      </g>
      <g
         id="g32"
         style="fill:#ffcc00">
        <g
           id="g34"
           style="fill-rule:evenodd">
          <path
             id="path34972"
             d="m 275,81.3 c 0,0 1.39,1.3 1.76,2.45 0.37,1.16 0.926,4.26 0.926,4.26 0,0 14.5,-4.03 21.7,-3.7 7.13,0.324 23.6,3.94 23.6,3.94 0,0 0.278,-1.76 0.602,-3.61 0.324,-1.85 1.67,-3.89 1.67,-3.89 0,0 -15.7,-4.91 -25.6,-4.44 -9.91,0.463 -14.9,1.53 -17.1,2.22 -2.22,0.694 -7.64,2.82 -7.5,2.78 z"
             inkscape:connector-curvature="0"
             style="stroke:#000000;stroke-width:0.32600001px" />
          <g
             id="g37">
            <path
               id="path5537"
               d="m 297,22.5 6.25,0 c 0,0 -1.54,1.05 -1.86,2.07 -0.27,0.875 -0.189,2.2 -0.189,2.2 0,0 1.71,0.474 2.46,-0.171 0.758,-0.644 2.35,-2.03 2.35,-2.03 l 0,7.81 c 0,0 -1.53,-1.56 -2.46,-2.05 -1.12,-0.584 -2.24,-0.663 -2.24,-0.663 0,0 0,1.35 0.53,2.1 0.53,0.758 2.65,3.58 2.65,3.58 l -8.94,0.341 c 0,0 2.12,-2.29 2.99,-3.92 0.568,-1.06 0.341,-2.1 0.341,-2.1 0,0 -1.52,0.133 -2.27,0.663 -0.758,0.53 -2.08,2.05 -2.08,2.05 l 1e-5,-7.81 c 0,0 1.06,1.39 1.82,2.03 0.788,0.667 2.43,0.171 2.43,0.171 0,0 0.136,-1.21 -0.265,-2.2 -0.465,-1.15 -1.52,-2.07 -1.52,-2.07 z"
               stroke-miterlimit="10"
               inkscape:connector-curvature="0"
               style="stroke:#000000;stroke-width:0.73100001;stroke-miterlimit:10" />
            <g
               id="g40">
              <path
                 id="path3325"
                 d="m 296,47.8 c 0,0 -4.45,-0.0536 -8.25,-2.3 -3.8,-2.2464 -7.64,-4.61 -13.3,-3.27 -1.16,0.274 -5.41,2.14 -7.29,8.2 -1.32,4.25 0.214,9.38 1.55,11.7 1.34,2.3 3.5,4.64 3.5,4.64 l 2.3,-1.56 c 0,0 -5.85,-4.96 -5.15,-11.4 0.697,-6.43 3.91,-7.93 3.91,-7.93 0,0 3.97,-3.11 9.27,-0.161 5.31,2.95 10.5,4.29 10.5,4.29 0,0 3.78,0.972 4.21,0.918 0.429,-0.0536 -1.37,-3.17 -1.27,-3.12 z"
                 inkscape:connector-curvature="0"
                 style="stroke:#121116;stroke-width:0.73100001" />
              <path
                 id="path16425"
                 d="m 272,71.9 -2.36,-4.65 7.09,-2.77 c 0,0 -1.71,2.28 -2.12,3.91 -0.498,1.99 -0.326,3.67 -0.326,3.67 0,0 0.652,-0.489 1.47,-1.79 0.618,-0.989 1.63,-4.56 1.63,-4.56 l 3.18,10.2 c 0.0245,0.0273 -1.63,-1.63 -2.8,-1.83 -1.31,-0.222 -2.9,0.201 -2.9,0.201 l -1.87,0.57 -0.978,-2.93 z"
                 inkscape:connector-curvature="0"
                 style="stroke:#000000;stroke-width:0.75" />
              <path
                 id="path4296"
                 d="m 304,47.7 c 0,0 4.45,-0.0536 8.25,-2.3 3.8,-2.2464 7.64,-4.61 13.3,-3.27 1.16,0.274 5.41,2.14 7.29,8.2 1.32,4.25 -0.214,9.38 -1.55,11.7 -1.34,2.3 -2.25,3.66 -2.25,3.66 l -2.76,-0.992 c 0,0 5.07,-4.54 4.37,-11 -0.697,-6.43 -3.91,-7.93 -3.91,-7.93 0,0 -3.97,-3.11 -9.27,-0.161 -5.31,2.95 -10.5,4.29 -10.5,4.29 0,0 -4.5,0.971 -5.07,1.03 1.27,-2.2 2.23,-3.28 2.12,-3.23 z"
                 inkscape:connector-curvature="0"
                 style="stroke:#121116;stroke-width:0.73100001" />
            </g>
          </g>
        </g>
        <rect
           id="rect5267"
           height="17.299999"
           width="1.86"
           y="43.299999"
           x="302"
           style="stroke:#121116;stroke-width:0.73100001;stroke-linejoin:round" />
        <rect
           id="rect5269"
           height="17.299999"
           width="2.2"
           y="43.200001"
           x="296"
           style="stroke:#121116;stroke-width:0.73100001;stroke-linejoin:round" />
      </g>
      <g
         id="g5431"
         transform="matrix(0.326,0,0,0.326,178,-39.5)">
        <g
           id="g48"
           style="stroke-width:2.24000001">
          <g
             id="g3168"
             transform="translate(-0.375,-0.25)">
            <path
               id="path2193"
               d="m 424,254 c -3.56,0.007 -6.45,-2.91 -6.47,-6.51 -0.014,-3.61 2.86,-6.55 6.41,-6.57 3.56,-0.0213 6.46,2.88 6.49,6.51 1.8e-4,3.63 -2.88,6.56 -6.44,6.57 z"
               inkscape:connector-curvature="0"
               style="fill:#eeeeee;stroke:#1e1e1e;stroke-width:2.24000001;stroke-linejoin:round" />
            <path
               id="path2195"
               d="m 421,251 c 0,0 5.21,-0.0884 5.75,-2.21 0.53,-2.12 -0.354,-4.86 -0.354,-4.86 0,0 2.47,2.74 1.77,4.86 -0.707,2.12 -1.4,2.67 -3.18,3.09 -1.21,0.287 -3.01,-0.177 -3.98,-0.884 z"
               inkscape:connector-curvature="0"
               style="fill:#a3afb8;fill-rule:evenodd" />
          </g>
          <g
             id="g3172"
             transform="translate(-16.1,7.08)">
            <path
               id="path3174"
               d="m 424,254 c -3.56,0.007 -6.45,-2.91 -6.47,-6.51 -0.014,-3.61 2.86,-6.55 6.41,-6.57 3.56,-0.0213 6.46,2.88 6.49,6.51 1.8e-4,3.63 -2.88,6.56 -6.44,6.57 z"
               inkscape:connector-curvature="0"
               style="fill:#eeeeee;stroke:#1e1e1e;stroke-width:2.24000001;stroke-linejoin:round" />
            <path
               id="path3176"
               d="m 421,251 c 0,0 5.21,-0.0884 5.75,-2.21 0.53,-2.12 -0.354,-4.86 -0.354,-4.86 0,0 2.47,2.74 1.77,4.86 -0.707,2.12 -1.4,2.67 -3.18,3.09 -1.21,0.287 -3.01,-0.177 -3.98,-0.884 z"
               inkscape:connector-curvature="0"
               style="fill:#a3afb8;fill-rule:evenodd" />
          </g>
          <g
             id="g3178"
             transform="translate(17.8,-4.55)">
            <path
               id="path3180"
               d="m 424,254 c -3.56,0.007 -6.45,-2.91 -6.47,-6.51 -0.014,-3.61 2.86,-6.55 6.41,-6.57 3.56,-0.0213 6.46,2.88 6.49,6.51 1.8e-4,3.63 -2.88,6.56 -6.44,6.57 z"
               inkscape:connector-curvature="0"
               style="fill:#eeeeee;stroke:#1e1e1e;stroke-width:2.24000001;stroke-linejoin:round" />
            <path
               id="path3182"
               d="m 421,251 c 0,0 5.21,-0.0884 5.75,-2.21 0.53,-2.12 -0.354,-4.86 -0.354,-4.86 0,0 2.47,2.74 1.77,4.86 -0.707,2.12 -1.4,2.67 -3.18,3.09 -1.21,0.287 -3.01,-0.177 -3.98,-0.884 z"
               inkscape:connector-curvature="0"
               style="fill:#a3afb8;fill-rule:evenodd" />
          </g>
          <g
             id="g3184"
             transform="translate(38.3,-0.422)">
            <path
               id="path3186"
               d="m 424,254 c -3.56,0.007 -6.45,-2.91 -6.47,-6.51 -0.014,-3.61 2.86,-6.55 6.41,-6.57 3.56,-0.0213 6.46,2.88 6.49,6.51 1.8e-4,3.63 -2.88,6.56 -6.44,6.57 z"
               inkscape:connector-curvature="0"
               style="fill:#eeeeee;stroke:#1e1e1e;stroke-width:2.24000001;stroke-linejoin:round" />
            <path
               id="path3188"
               d="m 421,251 c 0,0 5.21,-0.0884 5.75,-2.21 0.53,-2.12 -0.354,-4.86 -0.354,-4.86 0,0 2.47,2.74 1.77,4.86 -0.707,2.12 -1.4,2.67 -3.18,3.09 -1.21,0.287 -3.01,-0.177 -3.98,-0.884 z"
               inkscape:connector-curvature="0"
               style="fill:#a3afb8;fill-rule:evenodd" />
          </g>
          <g
             id="g3190"
             transform="translate(53.9,12.5)">
            <path
               id="path3192"
               d="m 424,254 c -3.56,0.007 -6.45,-2.91 -6.47,-6.51 -0.014,-3.61 2.86,-6.55 6.41,-6.57 3.56,-0.0213 6.46,2.88 6.49,6.51 1.8e-4,3.63 -2.88,6.56 -6.44,6.57 z"
               inkscape:connector-curvature="0"
               style="fill:#eeeeee;stroke:#1e1e1e;stroke-width:2.24000001;stroke-linejoin:round" />
            <path
               id="path3194"
               d="m 421,251 c 0,0 5.21,-0.0884 5.75,-2.21 0.53,-2.12 -0.354,-4.86 -0.354,-4.86 0,0 2.47,2.74 1.77,4.86 -0.707,2.12 -1.4,2.67 -3.18,3.09 -1.21,0.287 -3.01,-0.177 -3.98,-0.884 z"
               inkscape:connector-curvature="0"
               style="fill:#a3afb8;fill-rule:evenodd" />
          </g>
          <g
             id="g3196"
             transform="translate(60.7,33.6)">
            <path
               id="path3199"
               d="m 424,254 c -3.56,0.007 -6.45,-2.91 -6.47,-6.51 -0.014,-3.61 2.86,-6.55 6.41,-6.57 3.56,-0.0213 6.46,2.88 6.49,6.51 1.8e-4,3.63 -2.88,6.56 -6.44,6.57 z"
               inkscape:connector-curvature="0"
               style="fill:#eeeeee;stroke:#1e1e1e;stroke-width:2.24000001;stroke-linejoin:round" />
            <path
               id="path3201"
               d="m 421,251 c 0,0 5.21,-0.0884 5.75,-2.21 0.53,-2.12 -0.354,-4.86 -0.354,-4.86 0,0 2.47,2.74 1.77,4.86 -0.707,2.12 -1.4,2.67 -3.18,3.09 -1.21,0.287 -3.01,-0.177 -3.98,-0.884 z"
               inkscape:connector-curvature="0"
               style="fill:#a3afb8;fill-rule:evenodd" />
          </g>
          <g
             id="g3203"
             transform="translate(58.2,55)">
            <path
               id="path3205"
               d="m 424,254 c -3.56,0.007 -6.45,-2.91 -6.47,-6.51 -0.014,-3.61 2.86,-6.55 6.41,-6.57 3.56,-0.0213 6.46,2.88 6.49,6.51 1.8e-4,3.63 -2.88,6.56 -6.44,6.57 z"
               inkscape:connector-curvature="0"
               style="fill:#eeeeee;stroke:#1e1e1e;stroke-width:2.24000001;stroke-linejoin:round" />
            <path
               id="path3207"
               d="m 421,251 c 0,0 5.21,-0.0884 5.75,-2.21 0.53,-2.12 -0.354,-4.86 -0.354,-4.86 0,0 2.47,2.74 1.77,4.86 -0.707,2.12 -1.4,2.67 -3.18,3.09 -1.21,0.287 -3.01,-0.177 -3.98,-0.884 z"
               inkscape:connector-curvature="0"
               style="fill:#a3afb8;fill-rule:evenodd" />
          </g>
          <g
             id="g3209"
             transform="translate(48.7,73.7)">
            <path
               id="path3211"
               d="m 424,254 c -3.56,0.007 -6.45,-2.91 -6.47,-6.51 -0.014,-3.61 2.86,-6.55 6.41,-6.57 3.56,-0.0213 6.46,2.88 6.49,6.51 1.8e-4,3.63 -2.88,6.56 -6.44,6.57 z"
               inkscape:connector-curvature="0"
               style="fill:#eeeeee;stroke:#1e1e1e;stroke-width:2.24000001;stroke-linejoin:round" />
            <path
               id="path3213"
               d="m 421,251 c 0,0 5.21,-0.0884 5.75,-2.21 0.53,-2.12 -0.354,-4.86 -0.354,-4.86 0,0 2.47,2.74 1.77,4.86 -0.707,2.12 -1.4,2.67 -3.18,3.09 -1.21,0.287 -3.01,-0.177 -3.98,-0.884 z"
               inkscape:connector-curvature="0"
               style="fill:#a3afb8;fill-rule:evenodd" />
          </g>
          <g
             id="g3215"
             transform="translate(-31.3,12.7)">
            <path
               id="path3217"
               d="m 424,254 c -3.56,0.007 -6.45,-2.91 -6.47,-6.51 -0.014,-3.61 2.86,-6.55 6.41,-6.57 3.56,-0.0213 6.46,2.88 6.49,6.51 1.8e-4,3.63 -2.88,6.56 -6.44,6.57 z"
               inkscape:connector-curvature="0"
               style="fill:#eeeeee;stroke:#1e1e1e;stroke-width:2.24000001;stroke-linejoin:round" />
            <path
               id="path3219"
               d="m 421,251 c 0,0 5.21,-0.0884 5.75,-2.21 0.53,-2.12 -0.354,-4.86 -0.354,-4.86 0,0 2.47,2.74 1.77,4.86 -0.707,2.12 -1.4,2.67 -3.18,3.09 -1.21,0.287 -3.01,-0.177 -3.98,-0.884 z"
               inkscape:connector-curvature="0"
               style="fill:#a3afb8;fill-rule:evenodd" />
          </g>
        </g>
        <g
           id="g3227"
           transform="matrix(0.836,0,0,0.836,20.5,56.6)"
           style="stroke-width:2.68000007">
          <path
             id="path3229"
             d="m 424,254 c -3.56,0.007 -6.45,-2.91 -6.47,-6.51 -0.014,-3.61 2.86,-6.55 6.41,-6.57 3.56,-0.0213 6.46,2.88 6.49,6.51 1.8e-4,3.63 -2.88,6.56 -6.44,6.57 z"
             inkscape:connector-curvature="0"
             style="fill:#eeeeee;stroke:#1e1e1e;stroke-width:2.68000007;stroke-linejoin:round" />
          <path
             id="path3231"
             d="m 421,251 c 0,0 5.21,-0.0884 5.75,-2.21 0.53,-2.12 -0.354,-4.86 -0.354,-4.86 0,0 2.47,2.74 1.77,4.86 -0.707,2.12 -1.4,2.67 -3.18,3.09 -1.21,0.287 -3.01,-0.177 -3.98,-0.884 z"
             inkscape:connector-curvature="0"
             style="fill:#a3afb8;fill-rule:evenodd" />
        </g>
        <g
           id="g3233"
           transform="matrix(0.836,0,0,0.836,20.5,67.5)"
           style="stroke-width:2.68000007">
          <path
             id="path3235"
             d="m 424,254 c -3.56,0.007 -6.45,-2.91 -6.47,-6.51 -0.014,-3.61 2.86,-6.55 6.41,-6.57 3.56,-0.0213 6.46,2.88 6.49,6.51 1.8e-4,3.63 -2.88,6.56 -6.44,6.57 z"
             inkscape:connector-curvature="0"
             style="fill:#eeeeee;stroke:#1e1e1e;stroke-width:2.68000007;stroke-linejoin:round" />
          <path
             id="path3237"
             d="m 421,251 c 0,0 5.21,-0.0884 5.75,-2.21 0.53,-2.12 -0.354,-4.86 -0.354,-4.86 0,0 2.47,2.74 1.77,4.86 -0.707,2.12 -1.4,2.67 -3.18,3.09 -1.21,0.287 -3.01,-0.177 -3.98,-0.884 z"
             inkscape:connector-curvature="0"
             style="fill:#a3afb8;fill-rule:evenodd" />
        </g>
        <g
           id="g3239"
           transform="matrix(0.904,0,0,0.904,-8.35,62.9)"
           style="stroke-width:2.48000002">
          <path
             id="path3241"
             d="m 424,254 c -3.56,0.007 -6.45,-2.91 -6.47,-6.51 -0.014,-3.61 2.86,-6.55 6.41,-6.57 3.56,-0.0213 6.46,2.88 6.49,6.51 1.8e-4,3.63 -2.88,6.56 -6.44,6.57 z"
             inkscape:connector-curvature="0"
             style="fill:#eeeeee;stroke:#1e1e1e;stroke-width:2.48000002;stroke-linejoin:round" />
          <path
             id="path3243"
             d="m 421,251 c 0,0 5.21,-0.0884 5.75,-2.21 0.53,-2.12 -0.354,-4.86 -0.354,-4.86 0,0 2.47,2.74 1.77,4.86 -0.707,2.12 -1.4,2.67 -3.18,3.09 -1.21,0.287 -3.01,-0.177 -3.98,-0.884 z"
             inkscape:connector-curvature="0"
             style="fill:#a3afb8;fill-rule:evenodd" />
        </g>
        <g
           id="g3245"
           transform="translate(-48.9,52.6)"
           style="stroke-width:2.24000001">
          <path
             id="path3247"
             d="m 424,254 c -3.41,0.007 -6.18,-2.78 -6.19,-6.24 -0.0134,-3.46 2.74,-6.27 6.14,-6.29 3.41,-0.0204 6.19,2.76 6.22,6.24 1.8e-4,3.48 -2.76,6.28 -6.17,6.29 z"
             inkscape:connector-curvature="0"
             style="fill:#eeeeee;stroke:#1e1e1e;stroke-width:2.1500001;stroke-linejoin:round" />
          <path
             id="path3249"
             d="m 421,251 c 0,0 5.21,-0.0884 5.75,-2.21 0.53,-2.12 -0.354,-4.86 -0.354,-4.86 0,0 2.47,2.74 1.77,4.86 -0.707,2.12 -1.4,2.67 -3.18,3.09 -1.21,0.287 -3.01,-0.177 -3.98,-0.884 z"
             inkscape:connector-curvature="0"
             style="fill:#a3afb8;fill-rule:evenodd" />
        </g>
        <g
           id="g3251"
           transform="matrix(0.939,0,0,0.939,-23.6,97)"
           style="stroke-width:2.3900001">
          <path
             id="path3253"
             d="m 431,247 c 8e-5,3.61 -2.88,6.53 -6.44,6.54 -3.56,0.007 -6.45,-2.91 -6.47,-6.51 -0.014,-3.61 2.86,-6.55 6.41,-6.57 3.56,-0.0213 6.46,2.88 6.49,6.49"
             inkscape:connector-curvature="0"
             style="fill:#eeeeee;stroke:#1e1e1e;stroke-width:2.3900001;stroke-linejoin:round" />
          <path
             id="path3255"
             d="m 421,251 c 0,0 5.21,-0.0884 5.75,-2.21 0.53,-2.12 -0.354,-4.86 -0.354,-4.86 0,0 2.47,2.74 1.77,4.86 -0.707,2.12 -1.4,2.67 -3.18,3.09 -1.21,0.287 -3.01,-0.177 -3.98,-0.884 z"
             inkscape:connector-curvature="0"
             style="fill:#a3afb8;fill-rule:evenodd" />
        </g>
        <g
           id="g92"
           style="stroke-width:2.24000001">
          <g
             id="g3257"
             transform="translate(-67.3,12.5)">
            <path
               id="path3259"
               d="m 424,254 c -3.56,0.007 -6.45,-2.91 -6.47,-6.51 -0.014,-3.61 2.86,-6.55 6.41,-6.57 3.56,-0.0213 6.46,2.88 6.49,6.51 1.8e-4,3.63 -2.88,6.56 -6.44,6.57 z"
               inkscape:connector-curvature="0"
               style="fill:#eeeeee;stroke:#1e1e1e;stroke-width:2.24000001;stroke-linejoin:round" />
            <path
               id="path3261"
               d="m 421,251 c 0,0 5.21,-0.0884 5.75,-2.21 0.53,-2.12 -0.354,-4.86 -0.354,-4.86 0,0 2.47,2.74 1.77,4.86 -0.707,2.12 -1.4,2.67 -3.18,3.09 -1.21,0.287 -3.01,-0.177 -3.98,-0.884 z"
               inkscape:connector-curvature="0"
               style="fill:#a3afb8;fill-rule:evenodd" />
          </g>
          <g
             id="g3263"
             transform="translate(-83.3,6.22)">
            <path
               id="path3265"
               d="m 424,254 c -3.56,0.007 -6.45,-2.91 -6.47,-6.51 -0.014,-3.61 2.86,-6.55 6.41,-6.57 3.56,-0.0213 6.46,2.88 6.49,6.51 1.8e-4,3.63 -2.88,6.56 -6.44,6.57 z"
               inkscape:connector-curvature="0"
               style="fill:#eeeeee;stroke:#1e1e1e;stroke-width:2.24000001;stroke-linejoin:round" />
            <path
               id="path3267"
               d="m 421,251 c 0,0 5.21,-0.0884 5.75,-2.21 0.53,-2.12 -0.354,-4.86 -0.354,-4.86 0,0 2.47,2.74 1.77,4.86 -0.707,2.12 -1.4,2.67 -3.18,3.09 -1.21,0.287 -3.01,-0.177 -3.98,-0.884 z"
               inkscape:connector-curvature="0"
               style="fill:#a3afb8;fill-rule:evenodd" />
          </g>
          <g
             id="g3269"
             transform="translate(-98.6,-0.99)">
            <path
               id="path3271"
               d="m 424,254 c -3.56,0.007 -6.45,-2.91 -6.47,-6.51 -0.014,-3.61 2.86,-6.55 6.41,-6.57 3.56,-0.0213 6.46,2.88 6.49,6.51 1.8e-4,3.63 -2.88,6.56 -6.44,6.57 z"
               inkscape:connector-curvature="0"
               style="fill:#eeeeee;stroke:#1e1e1e;stroke-width:2.24000001;stroke-linejoin:round" />
            <path
               id="path3273"
               d="m 421,251 c 0,0 5.21,-0.0884 5.75,-2.21 0.53,-2.12 -0.354,-4.86 -0.354,-4.86 0,0 2.47,2.74 1.77,4.86 -0.707,2.12 -1.4,2.67 -3.18,3.09 -1.21,0.287 -3.01,-0.177 -3.98,-0.884 z"
               inkscape:connector-curvature="0"
               style="fill:#a3afb8;fill-rule:evenodd" />
          </g>
          <g
             id="g3275"
             transform="translate(-116,-4.82)">
            <path
               id="path3277"
               d="m 424,254 c -3.56,0.007 -6.45,-2.91 -6.47,-6.51 -0.014,-3.61 2.86,-6.55 6.41,-6.57 3.56,-0.0213 6.46,2.88 6.49,6.51 1.8e-4,3.63 -2.88,6.56 -6.44,6.57 z"
               inkscape:connector-curvature="0"
               style="fill:#eeeeee;stroke:#1e1e1e;stroke-width:2.24000001;stroke-linejoin:round" />
            <path
               id="path3279"
               d="m 421,251 c 0,0 5.21,-0.0884 5.75,-2.21 0.53,-2.12 -0.354,-4.86 -0.354,-4.86 0,0 2.47,2.74 1.77,4.86 -0.707,2.12 -1.4,2.67 -3.18,3.09 -1.21,0.287 -3.01,-0.177 -3.98,-0.884 z"
               inkscape:connector-curvature="0"
               style="fill:#a3afb8;fill-rule:evenodd" />
          </g>
          <g
             id="g3281"
             transform="translate(-137,0.137)">
            <path
               id="path3283"
               d="m 424,254 c -3.56,0.007 -6.45,-2.91 -6.47,-6.51 -0.014,-3.61 2.86,-6.55 6.41,-6.57 3.56,-0.0213 6.46,2.88 6.49,6.51 1.8e-4,3.63 -2.88,6.56 -6.44,6.57 z"
               inkscape:connector-curvature="0"
               style="fill:#eeeeee;stroke:#1e1e1e;stroke-width:2.24000001;stroke-linejoin:round" />
            <path
               id="path3285"
               d="m 421,251 c 0,0 5.21,-0.0884 5.75,-2.21 0.53,-2.12 -0.354,-4.86 -0.354,-4.86 0,0 2.47,2.74 1.77,4.86 -0.707,2.12 -1.4,2.67 -3.18,3.09 -1.21,0.287 -3.01,-0.177 -3.98,-0.884 z"
               inkscape:connector-curvature="0"
               style="fill:#a3afb8;fill-rule:evenodd" />
          </g>
          <g
             id="g3287"
             transform="translate(-152,14.8)">
            <path
               id="path3289"
               d="m 424,254 c -3.56,0.007 -6.45,-2.91 -6.47,-6.51 -0.014,-3.61 2.86,-6.55 6.41,-6.57 3.56,-0.0213 6.46,2.88 6.49,6.51 1.8e-4,3.63 -2.88,6.56 -6.44,6.57 z"
               inkscape:connector-curvature="0"
               style="fill:#eeeeee;stroke:#1e1e1e;stroke-width:2.24000001;stroke-linejoin:round" />
            <path
               id="path3291"
               d="m 421,251 c 0,0 5.21,-0.0884 5.75,-2.21 0.53,-2.12 -0.354,-4.86 -0.354,-4.86 0,0 2.47,2.74 1.77,4.86 -0.707,2.12 -1.4,2.67 -3.18,3.09 -1.21,0.287 -3.01,-0.177 -3.98,-0.884 z"
               inkscape:connector-curvature="0"
               style="fill:#a3afb8;fill-rule:evenodd" />
          </g>
          <g
             id="g3293"
             transform="translate(-158,35.3)">
            <path
               id="path3295"
               d="m 424,254 c -3.56,0.007 -6.45,-2.91 -6.47,-6.51 -0.014,-3.61 2.86,-6.55 6.41,-6.57 3.56,-0.0213 6.46,2.88 6.49,6.51 1.8e-4,3.63 -2.88,6.56 -6.44,6.57 z"
               inkscape:connector-curvature="0"
               style="fill:#eeeeee;stroke:#1e1e1e;stroke-width:2.24000001;stroke-linejoin:round" />
            <path
               id="path3297"
               d="m 421,251 c 0,0 5.21,-0.0884 5.75,-2.21 0.53,-2.12 -0.354,-4.86 -0.354,-4.86 0,0 2.47,2.74 1.77,4.86 -0.707,2.12 -1.4,2.67 -3.18,3.09 -1.21,0.287 -3.01,-0.177 -3.98,-0.884 z"
               inkscape:connector-curvature="0"
               style="fill:#a3afb8;fill-rule:evenodd" />
          </g>
          <g
             id="g3299"
             transform="translate(-155,56.7)">
            <path
               id="path3301"
               d="m 424,254 c -3.56,0.007 -6.45,-2.91 -6.47,-6.51 -0.014,-3.61 2.86,-6.55 6.41,-6.57 3.56,-0.0213 6.46,2.88 6.49,6.51 1.8e-4,3.63 -2.88,6.56 -6.44,6.57 z"
               inkscape:connector-curvature="0"
               style="fill:#eeeeee;stroke:#1e1e1e;stroke-width:2.24000001;stroke-linejoin:round" />
            <path
               id="path3303"
               d="m 421,251 c 0,0 5.21,-0.0884 5.75,-2.21 0.53,-2.12 -0.354,-4.86 -0.354,-4.86 0,0 2.47,2.74 1.77,4.86 -0.707,2.12 -1.4,2.67 -3.18,3.09 -1.21,0.287 -3.01,-0.177 -3.98,-0.884 z"
               inkscape:connector-curvature="0"
               style="fill:#a3afb8;fill-rule:evenodd" />
          </g>
          <g
             id="g3305"
             transform="translate(-145,76.1)">
            <path
               id="path3307"
               d="m 424,254 c -3.56,0.007 -6.45,-2.91 -6.47,-6.51 -0.014,-3.61 2.86,-6.55 6.41,-6.57 3.56,-0.0213 6.46,2.88 6.49,6.51 1.8e-4,3.63 -2.88,6.56 -6.44,6.57 z"
               inkscape:connector-curvature="0"
               style="fill:#eeeeee;stroke:#1e1e1e;stroke-width:2.24000001;stroke-linejoin:round" />
            <path
               id="path3309"
               d="m 421,251 c 0,0 5.21,-0.0884 5.75,-2.21 0.53,-2.12 -0.354,-4.86 -0.354,-4.86 0,0 2.47,2.74 1.77,4.86 -0.707,2.12 -1.4,2.67 -3.18,3.09 -1.21,0.287 -3.01,-0.177 -3.98,-0.884 z"
               inkscape:connector-curvature="0"
               style="fill:#a3afb8;fill-rule:evenodd" />
          </g>
        </g>
        <g
           id="g3313"
           transform="matrix(0.606,-0.162,0.259,0.966,-28.1,179)"
           style="stroke-width:2.82999992">
          <path
             id="path3317"
             d="m 421,251 c 0,0 5.21,-0.0884 5.75,-2.21 0.53,-2.12 -0.354,-4.86 -0.354,-4.86 0,0 2.47,2.74 1.77,4.86 -0.707,2.12 -1.4,2.67 -3.18,3.09 -1.21,0.287 -3.01,-0.177 -3.98,-0.884 z"
             inkscape:connector-curvature="0"
             style="fill:#a3afb8;fill-rule:evenodd" />
        </g>
      </g>
      <g
         id="g123">
        <path
           id="path5513-3"
           d="m 300,44.4 c -3.34,0.0062 -6.06,-2.48 -6.07,-5.55 -0.0133,-3.07 2.68,-5.57 6.03,-5.59 3.34,-0.0182 6.07,2.45 6.1,5.55 2.4e-4,3.09 -2.71,5.59 -6.05,5.59 z"
           inkscape:connector-curvature="0"
           style="fill:#ffcc00;stroke:#121116;stroke-width:0.73100001;stroke-linejoin:round" />
        <g
           id="g126"
           style="stroke:#000000">
          <g
             id="g128">
            <path
               id="path19336"
               d="m 294,60.5 10.4,-0.0858 c 0,0 -1.22,0.729 -2.27,2.6 -1.05,1.871 -0.901,3.05 -0.901,3.05 0,0 1.59,-0.0214 2.7,-0.837 1.12,-0.815 2.36,-2.34 2.36,-2.34 l -0.0429,9.61 c 0,0 -0.751,-1.22 -2,-1.95 -1.24,-0.729 -3,-0.729 -3,-0.729 l -3.56,0 c 0,0 -1.63,0.0962 -2.36,0.579 -1.03,0.681 -2.32,2 -2.32,2 l -0.172,-9.07 c 0,0 0.515,1.59 2.19,2.23 1.67,0.644 2.62,0.558 2.62,0.558 0,0 0,-2.04 -0.858,-3.09 -0.858,-1.05 -2.81,-2.47 -2.81,-2.51 z"
               inkscape:connector-curvature="0"
               style="fill:#ffcc00;fill-rule:evenodd;stroke-width:0.61900002" />
            <path
               id="path21276"
               d="m 300,68 c 0,0 1.53,3.56 3.3,5.13 1.03,0.914 4.14,1.6 5.54,1.24 3.15,-0.805 5.32,-3.33 5.32,-3.33 0,0 -0.113,2.76 1.86,4.29 1.97,1.52 3.55,1.92 5.19,1.47 1.64,-0.451 6.26,-3.89 6.26,-3.89 l 0.959,0.846 c 0,0 -2.65,2.58 -5.44,3.94 -1.44,0.704 -5.79,0.313 -7.2,-0.816 -1.41,-1.129 -2.25,-3.86 -2.25,-3.86 0,0 -0.868,1.76 -2.73,2.38 -1.86,0.621 -4.42,0.594 -6.8,-0.101 -1.6,-0.467 -3.68,-2.67 -4.07,-3.41 -0.395,-0.733 -0.282,-1.13 -0.282,-1.13 0,0 -1.17,3.36 -3.61,4.27 -2.3,0.865 -4.93,0.872 -7.16,0.231 -2.26,-0.648 -2.43,-1.91 -2.43,-1.91 0,0 -0.169,3.55 -5.08,4.57 -4.911,1.02 -8.8,-2.6 -8.8,-2.6 l 0.677,-1.02 c 0,0 2.76,3.1 7,2.82 4.23,-0.282 5.64,-5.7 5.64,-5.7 0,0 1.86,2.82 6.83,2.88 4.96,0.0564 6.38,-6.43 6.38,-6.43 l 0.903,0.113 z"
               inkscape:connector-curvature="0"
               style="fill:#f6ca1f;fill-rule:evenodd;stroke-width:0.58700001" />
            <g
               id="g13496"
               transform="matrix(0.326,0,0,0.326,178,-39.5)"
               style="fill:#ffcc00">
              <g
                 id="g133"
                 style="fill-rule:evenodd;stroke-width:2.20000005">
                <path
                   id="path11548"
                   d="m 339,336 c 0,0 0.114,-5.3 1.25,-6.89 1.62,-2.26 3.81,-2.35 4.94,-2.04 1.38,0.388 2.82,1.65 2.59,5.33 -0.235,3.68 -1.25,5.48 -0.157,6.89 1.1,1.41 1.25,2.35 3.37,2.04 2.12,-0.313 3.06,-1.02 2.59,-2.98 -0.47,-1.96 -1.1,0.157 -1.49,-1.49 -0.392,-1.65 2.05,-8.75 1.65,-13.2 -0.392,-4.31 -2.04,-7.76 -5.33,-8.62 -3.09,-0.81 -5.72,-0.783 -8.62,1.33 -2.78,2.03 -6.35,8.7 -6.35,8.7 l -0.0783,14.3 5.8,-0.313 -0.157,-3.06 z"
                   inkscape:connector-curvature="0" />
                <path
                   id="path12519"
                   d="m 328,340 c 0,0 -2.22,-4.82 -3.9,-5.82 -2.38,-1.43 -4.43,-0.636 -5.34,0.099 -1.11,0.907 -1.93,2.63 -0.248,5.92 1.68,3.28 3.34,4.53 2.89,6.26 -0.444,1.73 -0.213,2.65 -2.28,3.21 -2.06,0.556 -3.21,0.284 -3.56,-1.7 -0.349,-1.98 1.07,-0.293 0.772,-1.96 -0.296,-1.66 -5.36,-7.21 -6.75,-11.4 -1.36,-4.11 -1.22,-7.92 1.45,-10 2.51,-1.98 4.93,-3 8.43,-2.21 3.36,0.753 9.29,5.45 9.29,5.45 l 5.75,13 -5.44,2.02 -1.07,-2.86 z"
                   inkscape:connector-curvature="0" />
                <path
                   id="path11546"
                   d="m 327,298 c 0,0 -5.64,9.48 -4.39,16.8 1.25,7.29 8.77,23 8.77,23 l 0.0783,2.12 4.06,-0.439 -0.924,-2.15 c 0,0 2.03,-18.8 0.783,-24.7 -0.924,-4.4 -8.3,-14.5 -8.38,-14.6 z"
                   inkscape:connector-curvature="0" />
                <path
                   id="path12521"
                   d="m 336,341 c 0,0 2.82,3.37 6.19,5.01 3.68,1.79 5.2,1.8 6.66,0.705 1.07,-0.806 0.705,-4.23 -0.548,-5.17 -1.253,-0.94 -2.68,-0.462 -2.9,0.47 -0.377,1.57 -0.89,1.47 -2.04,0.862 -1.67,-0.887 -5.56,-3.29 -5.56,-3.29 l -1.8,1.41 z"
                   inkscape:connector-curvature="0" />
                <path
                   id="path13492"
                   d="m 331,342 c 0,0 -1.19,4.23 -3.59,7.11 -2.62,3.15 -4,3.78 -5.78,3.38 -1.31,-0.295 -2.38,-3.57 -1.62,-4.94 0.757,-1.37 2.25,-1.52 2.84,-0.761 0.99,1.28 1.41,0.975 2.21,-0.05 1.16,-1.5 3.72,-5.28 3.72,-5.28 l 2.22,0.547 z"
                   inkscape:connector-curvature="0" />
              </g>
              <path
                 id="path13494"
                 d="m 342,342 c -2.1e-4,1.25 -3.95,2.27 -8.83,2.27 -4.88,0.002 -8.85,-1.01 -8.87,-2.26 -0.019,-1.25 3.92,-2.27 8.8,-2.28 4.88,-0.007 8.87,1 8.9,2.25"
                 transform="matrix(0.986,-0.165,0.165,0.986,-51.9,58.1)"
                 inkscape:connector-curvature="0"
                 style="stroke-width:2.20000005;stroke-linejoin:round" />
            </g>
            <g
               id="g13504"
               transform="matrix(0.305,0.114,-0.114,0.305,251,-70.6)"
               style="fill:#ffcc00;stroke-width:2.20000005">
              <g
                 id="g142"
                 style="fill-rule:evenodd">
                <path
                   id="path13506"
                   d="m 339,336 c 0,0 0.114,-5.3 1.25,-6.89 1.62,-2.26 3.81,-2.35 4.94,-2.04 1.38,0.388 2.82,1.65 2.59,5.33 -0.235,3.68 -1.25,5.48 -0.157,6.89 1.1,1.41 1.25,2.35 3.37,2.04 2.12,-0.313 3.06,-1.02 2.59,-2.98 -0.47,-1.96 -1.1,0.157 -1.49,-1.49 -0.392,-1.65 2.05,-8.75 1.65,-13.2 -0.392,-4.31 -2.04,-7.76 -5.33,-8.62 -3.09,-0.81 -5.72,-0.783 -8.62,1.33 -2.78,2.03 -6.35,8.7 -6.35,8.7 l -0.0783,14.3 5.8,-0.313 -0.157,-3.06 z"
                   inkscape:connector-curvature="0" />
                <path
                   id="path13508"
                   d="m 328,340 c 0,0 -2.22,-4.82 -3.9,-5.82 -2.38,-1.43 -4.43,-0.636 -5.34,0.099 -1.11,0.907 -1.93,2.63 -0.248,5.92 1.68,3.28 3.34,4.53 2.89,6.26 -0.444,1.73 -0.213,2.65 -2.28,3.21 -2.06,0.556 -3.21,0.284 -3.56,-1.7 -0.349,-1.98 1.07,-0.293 0.772,-1.96 -0.296,-1.66 -5.36,-7.21 -6.75,-11.4 -1.36,-4.11 -1.22,-7.92 1.45,-10 2.51,-1.98 4.93,-3 8.43,-2.21 3.36,0.753 9.29,5.45 9.29,5.45 l 5.75,13 -5.44,2.02 -1.07,-2.86 z"
                   inkscape:connector-curvature="0" />
                <path
                   id="path13510"
                   d="m 327,298 c 0,0 -5.64,9.48 -4.39,16.8 1.25,7.29 8.77,23 8.77,23 l 0.0783,2.12 4.06,-0.439 -0.924,-2.15 c 0,0 2.03,-18.8 0.783,-24.7 -0.924,-4.4 -8.3,-14.5 -8.38,-14.6 z"
                   inkscape:connector-curvature="0" />
                <path
                   id="path13512"
                   d="m 336,341 c 0,0 2.82,3.37 6.19,5.01 3.68,1.79 5.2,1.8 6.66,0.705 1.07,-0.806 0.705,-4.23 -0.548,-5.17 -1.253,-0.94 -2.68,-0.462 -2.9,0.47 -0.377,1.57 -0.89,1.47 -2.04,0.862 -1.67,-0.887 -5.56,-3.29 -5.56,-3.29 l -1.8,1.41 z"
                   inkscape:connector-curvature="0" />
                <path
                   id="path13514"
                   d="m 331,342 c 0,0 -1.19,4.23 -3.59,7.11 -2.62,3.15 -4,3.78 -5.78,3.38 -1.31,-0.295 -2.38,-3.57 -1.62,-4.94 0.757,-1.37 2.25,-1.52 2.84,-0.761 0.99,1.28 1.41,0.975 2.21,-0.05 1.16,-1.5 3.72,-5.28 3.72,-5.28 l 2.22,0.547 z"
                   inkscape:connector-curvature="0" />
              </g>
              <path
                 id="path13516"
                 d="m 342,342 c -2.1e-4,1.25 -3.95,2.27 -8.83,2.27 -4.88,0.002 -8.85,-1.01 -8.87,-2.26 -0.019,-1.25 3.92,-2.27 8.8,-2.28 4.88,-0.007 8.87,1 8.9,2.25"
                 transform="matrix(0.986,-0.165,0.165,0.986,-51.9,58.1)"
                 inkscape:connector-curvature="0"
                 style="stroke-linejoin:round" />
            </g>
          </g>
          <path
             id="path27095"
             d="m 274,81.2 c 0,0 0.304,1.28 1.03,0.608 0.73,-0.669 10.8,-4.62 24.9,-4.62 14.2,0 23.5,3.89 24,4.14 0.547,0.243 0.791,0.547 1.28,0 0.487,-0.547 -0.487,-1.4 -0.487,-1.4 0,0 -9.85,-4.2 -25.2,-4.14 -15.4,0.0608 -25.4,4.44 -25.4,4.44 0,0 -0.669,0.487 -0.182,0.973 z"
             inkscape:connector-curvature="0"
             style="fill:#cca715;fill-rule:evenodd;stroke-width:0.32600001px" />
        </g>
      </g>
      <g
         id="g151"
         style="fill-rule:evenodd">
        <path
           id="path27097"
           d="m 292,87.1 c 0,0 0.452,-1.26 1.24,-1.5 0.63,-0.193 1.62,0.426 1.62,0.426 0,0 -1.2,-0.11 -1.57,0.103 -0.339,0.193 -0.441,0.764 -0.441,0.764 0,0 0.257,-0.456 1.18,-0.411 0.918,0.0441 1.02,0.0441 1.02,0.0441 0,0 -1.56,0.118 -1.92,0.566 -0.36,0.448 1.47,0.654 1.47,0.654 0,0 -2.8,0.0147 -3.17,-0.154 -0.367,-0.169 -0.603,-0.742 -1.23,-0.566 -0.625,0.176 -1.26,0.735 -1.26,0.735 0,0 0.713,-1.2 1.16,-1.21 0.448,-0.0073 0.713,-0.0294 1.12,0.154 0.404,0.184 0.779,0.389 0.779,0.389 z"
           inkscape:connector-curvature="0" />
        <path
           id="path30014"
           d="m 282,89.3 c 0,0 0.212,-1.32 0.943,-1.7 0.583,-0.306 1.67,0.119 1.67,0.119 0,0 -1.2,0.113 -1.53,0.392 -0.297,0.252 -0.292,0.833 -0.292,0.833 0,0 0.168,-0.495 1.08,-0.622 0.911,-0.127 1.01,-0.146 1.01,-0.146 0,0 -1.51,0.404 -1.78,0.911 -0.271,0.507 1.57,0.371 1.57,0.371 0,0 -2.75,0.532 -3.14,0.434 -0.392,-0.0982 -0.729,-0.618 -1.31,-0.329 -0.581,0.289 -1.11,0.956 -1.11,0.956 0,0 0.479,-1.31 0.918,-1.4 0.439,-0.0901 0.695,-0.161 1.13,-0.0549 0.431,0.106 0.837,0.239 0.837,0.239 z"
           inkscape:connector-curvature="0" />
        <path
           id="path30016"
           d="m 301,86.6 c 0,0 0.524,-1.23 1.33,-1.42 0.64,-0.156 1.6,0.52 1.6,0.52 0,0 -1.19,-0.179 -1.58,0.0116 -0.349,0.173 -0.484,0.737 -0.484,0.737 0,0 0.283,-0.44 1.2,-0.343 0.914,0.0972 1.02,0.103 1.02,0.103 0,0 -1.56,0.0271 -1.95,0.454 -0.385,0.427 1.43,0.738 1.43,0.738 0,0 -2.8,-0.148 -3.15,-0.338 -0.357,-0.19 -0.559,-0.776 -1.19,-0.636 -0.634,0.14 -1.3,0.66 -1.3,0.66 0,0 0.781,-1.15 1.23,-1.14 0.448,0.0186 0.713,0.012 1.11,0.219 0.393,0.207 0.755,0.434 0.755,0.434 z"
           inkscape:connector-curvature="0" />
        <path
           id="path30018"
           d="m 310,87.6 c 0,0 0.664,-1.16 1.48,-1.26 0.654,-0.0804 1.52,0.702 1.52,0.702 0,0 -1.16,-0.317 -1.57,-0.172 -0.367,0.131 -0.567,0.676 -0.567,0.676 0,0 0.333,-0.404 1.23,-0.201 0.897,0.203 0.998,0.221 0.998,0.221 0,0 -1.55,-0.155 -1.99,0.223 -0.433,0.379 1.33,0.9 1.33,0.9 0,0 -2.76,-0.473 -3.09,-0.703 -0.332,-0.23 -0.464,-0.836 -1.11,-0.771 -0.646,0.065 -1.37,0.504 -1.37,0.504 0,0 0.91,-1.06 1.35,-0.985 0.443,0.0708 0.707,0.0951 1.07,0.346 0.366,0.251 0.699,0.519 0.699,0.519 z"
           inkscape:connector-curvature="0" />
        <path
           id="path30020"
           d="m 319,89.2 c 0,0 0.618,-0.883 1.28,-0.904 0.531,-0.0167 1.17,0.676 1.17,0.676 0,0 -0.909,-0.34 -1.25,-0.253 -0.304,0.0781 -0.505,0.502 -0.505,0.502 0,0 0.297,-0.3 1,-0.0711 0.706,0.229 0.786,0.251 0.786,0.251 0,0 -1.24,-0.239 -1.61,0.034 -0.375,0.273 1.01,0.821 1.01,0.821 0,0 -2.18,-0.582 -2.43,-0.791 -0.25,-0.209 -0.312,-0.706 -0.835,-0.701 -0.524,0.0049 -1.14,0.304 -1.14,0.304 0,0 0.809,-0.781 1.16,-0.692 0.351,0.0893 0.561,0.128 0.837,0.357 0.276,0.229 0.524,0.468 0.524,0.468 z"
           inkscape:connector-curvature="0" />
      </g>
      <g
         id="g158">
        <path
           id="path30022"
           d="m 291,81.1 c 0.211,1.05 -1.02,2.18 -2.75,2.52 -1.73,0.347 -3.3,-0.222 -3.51,-1.27 -0.211,-1.05 1.02,-2.18 2.75,-2.52 1.73,-0.347 3.3,0.222 3.51,1.27 z"
           inkscape:connector-curvature="0"
           style="fill:#0f6545;stroke:#000000;stroke-width:0.435;stroke-linejoin:round" />
        <path
           id="path30993"
           d="m 287,80.9 c 0.0509,0.254 -0.217,0.521 -0.597,0.598 -0.381,0.0763 -0.731,-0.0677 -0.781,-0.321 -0.0509,-0.254 0.217,-0.521 0.597,-0.598 0.381,-0.0763 0.731,0.0677 0.781,0.321 z"
           inkscape:connector-curvature="0"
           style="fill:#cecfc1" />
        <path
           id="path32945"
           d="m 315,82.3 c -0.319,1.02 -1.94,1.42 -3.63,0.889 -1.68,-0.529 -2.79,-1.78 -2.47,-2.8 0.319,-1.02 1.94,-1.42 3.63,-0.889 1.68,0.529 2.79,1.78 2.47,2.8 z"
           inkscape:connector-curvature="0"
           style="fill:#0f6545;stroke:#000000;stroke-width:0.435;stroke-linejoin:round" />
        <path
           id="path32947"
           d="m 312,80.3 c -0.0776,0.247 -0.441,0.353 -0.811,0.237 -0.37,-0.116 -0.608,-0.411 -0.53,-0.658 0.0775,-0.247 0.441,-0.353 0.811,-0.237 0.37,0.116 0.608,0.411 0.53,0.658 z"
           inkscape:connector-curvature="0"
           style="fill:#cecfc1" />
        <rect
           id="rect32949"
           height="3.1900001"
           width="6.3400002"
           y="78.699997"
           x="297"
           style="fill:#1f2d86;stroke:#000000;stroke-width:0.61900002;stroke-linejoin:round" />
        <path
           id="path32951"
           d="m 299,79.4 c 0,0.145 -0.27,0.262 -0.602,0.262 -0.333,0 -0.602,-0.117 -0.602,-0.262 0,-0.145 0.27,-0.262 0.602,-0.262 0.333,0 0.602,0.117 0.602,0.262 z"
           inkscape:connector-curvature="0"
           style="fill:#707c8b" />
        <path
           id="path33926"
           d="m 279,81.9 1.05,3.09 -1.94,1.05 c 0,0 -0.89,0.628 -1.78,0.157 -0.89,-0.471 -1.42,-1.88 -0.943,-2.46 0.938,-1.15 3.61,-1.89 3.61,-1.83 z"
           inkscape:connector-curvature="0"
           style="fill:#9f1209;fill-rule:evenodd;stroke:#000000;stroke-width:0.32600001px" />
        <path
           id="path34899"
           d="m 277,84.1 c 3.5e-4,0.521 -0.398,0.943 -0.89,0.943 -0.492,0 -0.891,-0.422 -0.89,-0.943 -3.6e-4,-0.521 0.398,-0.943 0.89,-0.943 0.492,0 0.891,0.422 0.89,0.943 z"
           inkscape:connector-curvature="0"
           style="fill:#8f322f" />
        <path
           id="path33928"
           d="m 276,83.7 c 0.0274,0.166 -0.0115,0.331 -0.102,0.431 -0.0904,0.1 -0.219,0.121 -0.336,0.0549 -0.118,-0.0663 -0.207,-0.21 -0.234,-0.376 -0.0274,-0.166 0.0115,-0.331 0.102,-0.431 0.0904,-0.1 0.219,-0.121 0.336,-0.0549 0.118,0.0663 0.207,0.21 0.234,0.376 z"
           inkscape:connector-curvature="0"
           style="fill:#e2a494" />
        <path
           id="path34906"
           d="m 321,82.3 -1.04,2.75 2.47,1.29 c 0,0 1.09,0.487 1.78,-0.117 0.588,-0.516 0.722,-1.71 0.252,-2.32 -0.445,-0.572 -3.49,-1.63 -3.46,-1.61 z"
           inkscape:connector-curvature="0"
           style="fill:#9f1209;fill-rule:evenodd;stroke:#000000;stroke-width:0.32600001px" />
        <path
           id="path34910"
           d="m 324,84.5 c 0,0.338 -0.353,0.613 -0.789,0.613 -0.436,0 -0.789,-0.274 -0.789,-0.613 0,-0.338 0.353,-0.613 0.789,-0.613 0.436,0 0.789,0.274 0.789,0.613 z"
           inkscape:connector-curvature="0"
           style="fill:#aa675d" />
        <path
           id="path34908"
           d="m 323,84.4 c 1.9e-4,0.162 -0.0701,0.312 -0.184,0.393 -0.114,0.0811 -0.255,0.0811 -0.369,0 -0.114,-0.0811 -0.185,-0.231 -0.184,-0.393 -1.8e-4,-0.162 0.0702,-0.312 0.184,-0.393 0.114,-0.0811 0.255,-0.0811 0.369,0 0.114,0.0811 0.185,0.231 0.184,0.393 z"
           inkscape:connector-curvature="0"
           style="fill:#e2a494" />
      </g>
      <g
         id="g34927"
         transform="matrix(0.326,0,0,0.326,178,-39.5)"
         style="fill:#f5d8bc">
        <path
           id="path34917"
           d="m 392,364 c 7.1e-4,0.721 -0.612,1.31 -1.37,1.31 -0.756,0 -1.37,-0.585 -1.37,-1.31 -7.1e-4,-0.721 0.612,-1.31 1.37,-1.31 0.756,0 1.37,0.585 1.37,1.31 z"
           inkscape:connector-curvature="0" />
        <path
           id="path34919"
           d="m 392,364 c 7.1e-4,0.721 -0.612,1.31 -1.37,1.31 -0.756,0 -1.37,-0.585 -1.37,-1.31 -7.1e-4,-0.721 0.612,-1.31 1.37,-1.31 0.756,0 1.37,0.585 1.37,1.31 z"
           transform="translate(8.27,0.477)"
           inkscape:connector-curvature="0" />
        <path
           id="path34921"
           d="m 392,364 c 7.1e-4,0.721 -0.612,1.31 -1.37,1.31 -0.756,0 -1.37,-0.585 -1.37,-1.31 -7.1e-4,-0.721 0.612,-1.31 1.37,-1.31 0.756,0 1.37,0.585 1.37,1.31 z"
           transform="matrix(1.26,0,0,1.26,-96.6,-89.7)"
           inkscape:connector-curvature="0" />
        <path
           id="path34923"
           d="m 392,364 c 7.1e-4,0.721 -0.612,1.31 -1.37,1.31 -0.756,0 -1.37,-0.585 -1.37,-1.31 -7.1e-4,-0.721 0.612,-1.31 1.37,-1.31 0.756,0 1.37,0.585 1.37,1.31 z"
           transform="translate(8.07,9.09)"
           inkscape:connector-curvature="0" />
        <path
           id="path34925"
           d="m 392,364 c 7.1e-4,0.721 -0.612,1.31 -1.37,1.31 -0.756,0 -1.37,-0.585 -1.37,-1.31 -7.1e-4,-0.721 0.612,-1.31 1.37,-1.31 0.756,0 1.37,0.585 1.37,1.31 z"
           transform="translate(0.0879,8.06)"
           inkscape:connector-curvature="0" />
      </g>
      <g
         id="g34936"
         transform="matrix(0.318,-0.0735,0.0735,0.318,141,-7.19)"
         style="fill:#f5d8bc">
        <path
           id="path34938"
           d="m 392,364 c 7.1e-4,0.721 -0.612,1.31 -1.37,1.31 -0.756,0 -1.37,-0.585 -1.37,-1.31 -7.1e-4,-0.721 0.612,-1.31 1.37,-1.31 0.756,0 1.37,0.585 1.37,1.31 z"
           inkscape:connector-curvature="0" />
        <path
           id="path34940"
           d="m 392,364 c 7.1e-4,0.721 -0.612,1.31 -1.37,1.31 -0.756,0 -1.37,-0.585 -1.37,-1.31 -7.1e-4,-0.721 0.612,-1.31 1.37,-1.31 0.756,0 1.37,0.585 1.37,1.31 z"
           transform="translate(8.27,0.477)"
           inkscape:connector-curvature="0" />
        <path
           id="path34942"
           d="m 392,364 c 7.1e-4,0.721 -0.612,1.31 -1.37,1.31 -0.756,0 -1.37,-0.585 -1.37,-1.31 -7.1e-4,-0.721 0.612,-1.31 1.37,-1.31 0.756,0 1.37,0.585 1.37,1.31 z"
           transform="matrix(1.26,0,0,1.26,-96.6,-89.7)"
           inkscape:connector-curvature="0" />
        <path
           id="path34944"
           d="m 392,364 c 7.1e-4,0.721 -0.612,1.31 -1.37,1.31 -0.756,0 -1.37,-0.585 -1.37,-1.31 -7.1e-4,-0.721 0.612,-1.31 1.37,-1.31 0.756,0 1.37,0.585 1.37,1.31 z"
           transform="translate(8.07,9.09)"
           inkscape:connector-curvature="0" />
        <path
           id="path34946"
           d="m 392,364 c 7.1e-4,0.721 -0.612,1.31 -1.37,1.31 -0.756,0 -1.37,-0.585 -1.37,-1.31 -7.1e-4,-0.721 0.612,-1.31 1.37,-1.31 0.756,0 1.37,0.585 1.37,1.31 z"
           transform="translate(0.0879,8.06)"
           inkscape:connector-curvature="0" />
      </g>
      <g
         id="g34948"
         transform="matrix(0.304,-0.118,0.118,0.304,119,17.7)"
         style="fill:#f5d8bc">
        <path
           id="path34950"
           d="m 392,364 c 7.1e-4,0.721 -0.612,1.31 -1.37,1.31 -0.756,0 -1.37,-0.585 -1.37,-1.31 -7.1e-4,-0.721 0.612,-1.31 1.37,-1.31 0.756,0 1.37,0.585 1.37,1.31 z"
           inkscape:connector-curvature="0" />
        <path
           id="path34952"
           d="m 392,364 c 7.1e-4,0.721 -0.612,1.31 -1.37,1.31 -0.756,0 -1.37,-0.585 -1.37,-1.31 -7.1e-4,-0.721 0.612,-1.31 1.37,-1.31 0.756,0 1.37,0.585 1.37,1.31 z"
           transform="translate(8.27,0.477)"
           inkscape:connector-curvature="0" />
        <path
           id="path34954"
           d="m 392,364 c 7.1e-4,0.721 -0.612,1.31 -1.37,1.31 -0.756,0 -1.37,-0.585 -1.37,-1.31 -7.1e-4,-0.721 0.612,-1.31 1.37,-1.31 0.756,0 1.37,0.585 1.37,1.31 z"
           transform="matrix(1.26,0,0,1.26,-96.6,-89.7)"
           inkscape:connector-curvature="0" />
        <path
           id="path34956"
           d="m 392,364 c 7.1e-4,0.721 -0.612,1.31 -1.37,1.31 -0.756,0 -1.37,-0.585 -1.37,-1.31 -7.1e-4,-0.721 0.612,-1.31 1.37,-1.31 0.756,0 1.37,0.585 1.37,1.31 z"
           transform="translate(8.07,9.09)"
           inkscape:connector-curvature="0" />
        <path
           id="path34958"
           d="m 392,364 c 7.1e-4,0.721 -0.612,1.31 -1.37,1.31 -0.756,0 -1.37,-0.585 -1.37,-1.31 -7.1e-4,-0.721 0.612,-1.31 1.37,-1.31 0.756,0 1.37,0.585 1.37,1.31 z"
           transform="translate(0.0879,8.06)"
           inkscape:connector-curvature="0" />
      </g>
      <g
         id="g34960"
         transform="matrix(0.341,0.0836,-0.0836,0.341,214,-76.1)"
         style="fill:#f5d8bc">
        <path
           id="path34962"
           d="m 392,364 c 7.1e-4,0.721 -0.612,1.31 -1.37,1.31 -0.756,0 -1.37,-0.585 -1.37,-1.31 -7.1e-4,-0.721 0.612,-1.31 1.37,-1.31 0.756,0 1.37,0.585 1.37,1.31 z"
           inkscape:connector-curvature="0" />
        <path
           id="path34964"
           d="m 392,364 c 7.1e-4,0.721 -0.612,1.31 -1.37,1.31 -0.756,0 -1.37,-0.585 -1.37,-1.31 -7.1e-4,-0.721 0.612,-1.31 1.37,-1.31 0.756,0 1.37,0.585 1.37,1.31 z"
           transform="translate(8.27,0.477)"
           inkscape:connector-curvature="0" />
        <path
           id="path34966"
           d="m 392,364 c 7.1e-4,0.721 -0.612,1.31 -1.37,1.31 -0.756,0 -1.37,-0.585 -1.37,-1.31 -7.1e-4,-0.721 0.612,-1.31 1.37,-1.31 0.756,0 1.37,0.585 1.37,1.31 z"
           transform="matrix(1.26,0,0,1.26,-96.6,-89.7)"
           inkscape:connector-curvature="0" />
        <path
           id="path34968"
           d="m 392,364 c 7.1e-4,0.721 -0.612,1.31 -1.37,1.31 -0.756,0 -1.37,-0.585 -1.37,-1.31 -7.1e-4,-0.721 0.612,-1.31 1.37,-1.31 0.756,0 1.37,0.585 1.37,1.31 z"
           transform="translate(8.07,9.09)"
           inkscape:connector-curvature="0" />
        <path
           id="path34970"
           d="m 392,364 c 7.1e-4,0.721 -0.612,1.31 -1.37,1.31 -0.756,0 -1.37,-0.585 -1.37,-1.31 -7.1e-4,-0.721 0.612,-1.31 1.37,-1.31 0.756,0 1.37,0.585 1.37,1.31 z"
           transform="translate(0.0879,8.06)"
           inkscape:connector-curvature="0" />
      </g>
      <g
         id="g196"
         style="fill:none;stroke:#000000">
        <path
           id="path40792"
           d="m 322,55.6 c 0,0 -1.28,1.2 -2.8,1.2 -1.52,0 -2.4,-0.641 -2.88,-0.962 -0.481,-0.321 0.16,-1.28 0.16,-1.28"
           inkscape:connector-curvature="0"
           style="stroke-width:0.75" />
        <path
           id="path42739"
           d="m 296,58 c 0,0 -2.32,-0.401 -3.29,-0.721 -0.962,-0.321 -0.721,-0.962 -1.84,-0.881 -1.12,0.0801 -2.24,0.881 -2,2 0.24,1.119 1.04,1.28 1.84,1.04 0.801,-0.24 0.561,-1.6 -0.481,-1.52 -1.04,0.0801 -0.16,0.962 -0.16,0.962"
           inkscape:connector-curvature="0"
           style="stroke-width:0.685" />
        <path
           id="path43710"
           d="m 280,56.2 c 0,0 0.641,0.962 2.32,0.801 1.68,-0.16 2.32,-1.04 2.4,-1.44 0.0801,-0.401 0,-1.12 -0.321,-1.44 -0.321,-0.321 -1.44,-0.481 -1.44,-0.481"
           inkscape:connector-curvature="0"
           style="stroke-width:0.65200001" />
      </g>
      <g
         id="redhand"
         style="stroke:#161111">
        <path
           id="path3484"
           d="m 312,169 c 1.55,-1.53 4.05,-3.22 5.44,-6.91 1.3,-3.45 1.93,-9.77 3.12,-13 1.55,-5.5 4.67,-10.9 0.956,-10.5 -3.54,0.349 -4.68,3.77 -6.02,6.27 -0.621,0.932 -2.05,2.93 -2.32,4.06 -0.0543,-1.9 -1.02,-7.45 -1.21,-13 -0.183,-5.21 -0.0356,-10.6 -0.175,-12.7 -0.171,-2.67 -0.153,-5.18 -0.78,-7.16 -0.292,-0.921 -1.65,-1.81 -2.34,-1.77 -1.43,0.0105 -2.29,1.25 -2.48,2.42 -0.139,0.921 -0.1,0.585 -0.194,1.77 -0.119,1.51 0.0286,3.45 -0.0799,5.15 -0.117,1.84 0.123,3.88 0.0229,5.59 -0.202,3.45 -0.451,6.6 -0.553,7.25 0,-1.28 -0.584,-7.32 -0.78,-13 -0.0741,-2.17 -0.125,-4.32 -0.163,-6.31 -0.0306,-1.61 0.0394,-3.33 -0.134,-4.59 -0.296,-2.14 -0.988,-3.11 -2.54,-3.11 -1.05,0 -2.55,0.762 -3.02,3.14 -0.258,1.28 -0.269,2.85 -0.227,4.57 0.0393,1.59 0.124,3.31 0.0989,5.04 -0.0968,6.53 -0.213,13.4 -0.479,15.5 -0.0429,-0.67 -0.696,-4.09 -0.872,-8.66 -0.0694,-1.8 -0.167,-3.97 -0.264,-6.05 -0.116,-2.48 -0.106,-4.34 -0.168,-5.99 -0.0181,-1 -0.416,-3.88 -2.34,-3.71 -1.01,-0.124 -2.08,0.581 -2.51,3.31 -0.24,1.52 -0.234,4.13 -0.274,6.15 -0.0757,3.82 -0.241,7.17 -0.0576,10.6 0.115,2.12 0.097,3.76 0.121,4.81 0.0253,0.278 -0.542,-1.79 -0.829,-4.59 -0.281,-2.74 -0.529,-6.23 -0.507,-5.43 0,-1.42 -0.068,-3.53 -0.196,-5.27 -0.0999,-1.36 -0.0375,-2.86 -1.51,-2.74 -1.5,0.122 -2.41,0.627 -2.72,3.19 -0.201,1.66 -0.256,5.25 -0.299,6.55 0.161,3.31 -0.723,11 -1.12,13.2 -0.109,1.55 -0.723,3.57 -0.982,5.74 -0.558,4.66 -0.027,10.1 0.59,12.9 1.23,4.41 4.43,6.39 4.27,9.38 -0.161,2.99 0,8.27 0,10.6 0,2.36 2.05,2.49 6.3,1.57 6.95,-1.5 10.7,1.5 16.5,-0.709 -0.728,-6.54 0.69,-10.5 0.653,-12.8 z"
           inkscape:connector-curvature="0"
           style="fill:#cc0000" />
        <path
           id="path3488"
           d="m 308,154 c 1.44,-3.97 3.25,-5.52 5,-6.39"
           inkscape:connector-curvature="0"
           style="fill:#cc0000" />
        <g
           id="g204"
           style="fill:none;stroke-width:1px">
          <path
             id="path3953"
             d="m 292,149 c 2.16,-0.853 4.41,-1.47 6.61,-2.22 2.69,-0.759 5.29,-1.85 8.07,-2.28 1.34,-0.273 2.68,-0.536 4.05,-0.628"
             inkscape:connector-curvature="0" />
          <path
             id="path3960"
             d="m 288,171 c 0.302,-0.2 0.594,0.118 0.885,0.178 0.407,0.125 0.834,0.251 1.26,0.178 0.845,-0.0142 1.69,-0.0152 2.53,0.003 1,-0.0369 1.83,-0.0733 2.64,-0.64"
             inkscape:connector-curvature="0" />
          <path
             id="path3962"
             d="m 302,171 c 0.29,0.238 0.62,0.425 0.969,0.563 0.537,0.237 1.12,0.268 4.6,-0.0124 2.16,0.138 4.07,-1.73 4.61,-2.23"
             inkscape:connector-curvature="0" />
        </g>
      </g>
    </g>
  </g>
</svg>
