<svg xmlns:rdf="http://www.w3.org/1999/02/22-rdf-syntax-ns#" xmlns="http://www.w3.org/2000/svg" viewBox="0 0 899.99998 599.99993" height="169.3mm" width="254mm" version="1.1" xmlns:cc="http://creativecommons.org/ns#" xmlns:xlink="http://www.w3.org/1999/xlink" xmlns:dc="http://purl.org/dc/elements/1.1/">
	<g transform="translate(-955.8 916.6)">
		<g transform="matrix(1.5 0 0 1.5 955.8 -916.6)">
			<rect height="400" width="360" y="0" x="240" fill="#f00"/>
			<rect height="400" width="240" y="0" x="0" fill="#060"/>
			<g stroke-linejoin="round" fill-rule="evenodd" stroke="#000" stroke-linecap="round" stroke-width=".5730" fill="#ff0">
				<path d="m318.2 262c-30.2-0.9-168.7-87.3-169.6-101.1l7.65-12.76c13.74 19.97 155.4 104.1 169.3 101.1l-7.23 12.82"/>
				<path d="m154.6 146.4c-2.71 7.294 36.15 31.32 82.9 59.75s87.06 46.01 90.05 43.49c0.1826-0.3254 1.47-2.541 1.352-2.523-0.56 0.844-1.923 1.11-4.051 0.4974-12.63-3.643-45.58-18.76-86.37-43.51-40.8-24.74-76.29-47.54-81.81-57.23-0.3836-0.6712-0.657-1.896-0.6015-2.849l-0.134-0.002-1.175 2.053-0.1614 0.3219h-0.00088zm164.4 116c-0.5124 0.9296-1.468 0.9604-3.282 0.7611-11.3-1.251-45.59-17.92-86.16-42.21-47.21-28.26-86.2-54.01-81.97-60.74l1.151-2.035 0.2266 0.0706c-3.804 11.4 76.95 57.58 81.7 60.52 46.72 28.95 86.12 45.85 89.6 41.46l-1.268 2.181v-0.002z"/>
				<path d="m240.2 169.2c30.24-0.239 67.55-4.132 89.02-12.69l-4.626-7.517c-12.69 7.025-50.21 11.64-84.65 12.34-40.74-0.3748-69.49-4.168-83.9-13.84l-4.367 8.004c26.48 11.21 53.62 13.59 88.52 13.7"/>
				<path d="m330.4 156.7c-0.739 1.182-14.74 6.011-35.37 9.575-13.99 2.132-32.23 3.956-55 3.978-21.63 0.0203-39.3-1.52-52.68-3.333-21.66-3.396-32.83-8.12-36.96-9.79 0.3951-0.7858 0.6491-1.337 1.03-2.071 11.9 4.736 23.12 7.592 36.28 9.616 13.29 1.8 30.75 3.362 52.28 3.342 22.66-0.0229 40.71-1.984 54.62-4.053 21.16-3.412 32.71-7.803 34.33-9.842l1.494 2.579h-0.002zm-4.06-7.623c-2.293 1.842-13.72 5.893-33.82 9.103-13.42 1.923-30.47 3.643-52.26 3.664-20.7 0.0203-37.62-1.375-50.48-3.249-20.41-2.666-31.28-7.475-35.2-8.878 0.3898-0.6738 0.7867-1.342 1.194-2.014 3.048 1.535 13.53 5.791 34.23 8.722 12.72 1.804 29.66 3.148 50.26 3.126 21.69-0.0221 38.55-1.776 51.88-3.688 20.2-2.78 31.08-7.947 32.73-9.241l1.473 2.451v0.002z"/>
				<path d="m140.9 205.7c18.6 10 59.9 15.04 98.99 15.39 35.59 0.0564 81.96-5.502 99.3-14.69l-0.4771-10.01c-5.425 8.477-55.11 16.61-99.21 16.28-44.09-0.3325-85.04-7.143-98.69-15.96l0.0794 8.991"/>
				<path d="m340.1 204.2 0.00088 2.387c-2.606 3.116-18.95 7.826-39.44 11.14-15.6 2.391-35.93 4.194-61.26 4.194-24.07 0-43.26-1.716-58.15-4.001-23.53-3.426-38.58-9.426-41.6-11.22l0.0132-2.785c9.075 6.033 33.66 10.45 41.92 11.8 14.79 2.27 33.87 3.973 57.82 3.973 25.22 0 45.43-1.791 60.93-4.166 14.7-2.124 35.64-7.646 39.77-11.32h0.00088zm0.01-8.492 0.00088 2.387c-2.606 3.114-18.95 7.824-39.44 11.14-15.6 2.391-35.93 4.194-61.26 4.194-24.07 0-43.26-1.714-58.15-4.001-23.53-3.425-38.58-9.424-41.6-11.22l0.0132-2.785c9.075 6.032 33.66 10.45 41.92 11.8 14.79 2.272 33.87 3.976 57.82 3.976 25.22 0 45.43-1.792 60.93-4.169 14.7-2.124 35.64-7.646 39.77-11.32l0.00088 0.002z"/>
				<path d="m239.8 260.3c-42.77-0.2549-79.42-11.66-87.16-13.54l5.643 8.834c13.67 5.75 49.42 14.32 81.93 13.37 32.5-0.9481 60.91-3.466 80.93-13.21l5.786-9.156c-13.64 6.425-60.07 13.64-87.12 13.7"/>
				<path stroke-width="0.55" d="m323.3 253.7c-0.8502 1.299-1.717 2.582-2.596 3.829-9.442 3.329-24.32 6.824-30.6 7.844-12.82 2.642-32.66 4.594-50.27 4.603-37.89-0.5547-68.9-7.972-83.5-14.3l-1.177-2.024 0.1922-0.3043 1.997 0.7744c25.95 9.283 55.09 12.99 82.7 13.65 17.54 0.0617 35.1-2.01 49.29-4.549 21.77-4.362 30.57-7.65 33.28-9.14l0.687-0.3854h-0.00088zm5.017-8.275c0.022 0.0256 0.0441 0.0503 0.0653 0.0776-0.6358 1.073-1.291 2.165-1.962 3.262-5.036 1.8-18.7 5.799-38.66 8.589-13.15 1.791-21.32 3.526-47.48 4.034-49.02-1.247-80.75-10.83-88.29-13.2l-1.117-2.143c28.41 7.415 57.42 12.59 89.41 13.12 23.93-0.5098 34.11-2.272 47.15-4.05 23.27-3.619 35-7.45 38.52-8.556-0.0441-0.0635-0.0961-0.1305-0.1543-0.1993l2.523-0.9428-0.002 0.002z"/>
				<path d="m328.8 197.8c0.1387 28.14-14.26 53.39-25.86 64.52-16.41 15.76-38.16 25.9-63.57 26.36-28.37 0.5212-55.12-17.97-62.3-26.1-14.03-15.88-25.45-36.06-25.82-63.24 1.738-30.71 13.79-52.1 31.27-66.77s40.74-21.81 60.12-21.3c22.36 0.59 48.48 11.56 66.52 33.33 11.82 14.27 16.94 29.75 19.63 53.19zm-89.19-96.34c54.48 0 99.3 44.34 99.3 98.7s-44.81 98.7-99.3 98.7c-54.48 0-98.92-44.34-98.92-98.7s44.44-98.7 98.92-98.7"/>
				<path d="m239.9 101.1c54.53 0 99.01 44.48 99.01 99.02s-44.48 99.02-99.01 99.02-99.01-44.48-99.01-99.02 44.48-99.02 99.01-99.02zm-96.83 99.02c0 53.26 43.74 96.84 96.83 96.84 53.1 0 96.83-43.58 96.83-96.84s-43.74-96.84-96.83-96.84c-53.1 0-96.83 43.58-96.83 96.84z"/>
				<path d="m240 109.3c49.73 0 90.69 40.82 90.69 90.7s-40.96 90.7-90.69 90.7-90.69-40.82-90.69-90.7 40.96-90.7 90.69-90.7zm-88.52 90.7c0 48.68 39.98 88.52 88.52 88.52s88.52-39.84 88.52-88.52c0-48.69-39.98-88.52-88.52-88.52s-88.52 39.84-88.52 88.52z"/>
				<path d="m244 100.7h-8.485l0.01 199h8.515z"/>
				<path d="m243.1 99.55h2.16l0.0185 201.2h-2.162l-0.0159-201.2zm-8.421 0.0018h2.177l0.003 201.2h-2.178v-201.2z"/>
				<path d="m339 203.9v-7.355l-5.99-5.58-34-9-49-5-59 3-42 10-8.48 6.28v7.357l21.48-9.637 51-8h49l36 4 25 6z"/>
				<path d="m240 184.8c23.38-0.0432 46.07 2.215 64.06 5.719 18.57 3.712 31.64 8.356 36.1 13.57l-0.005 2.582c-5.388-6.49-22.97-11.25-36.52-13.97-17.86-3.474-40.39-5.717-63.65-5.674-24.54 0.0459-47.39 2.37-64.98 5.803-14.12 2.802-32.95 8.368-35.3 13.86v-2.689c1.291-3.8 15.31-9.479 34.98-13.42 17.73-3.457 40.62-5.742 65.3-5.786zm0.01-8.492c23.38-0.0423 46.07 2.217 64.06 5.719 18.57 3.714 31.64 8.356 36.1 13.57l-0.005 2.582c-5.388-6.488-22.97-11.25-36.52-13.97-17.86-3.476-40.39-5.718-63.65-5.674-24.54 0.0441-47.28 2.37-64.88 5.801-13.63 2.583-33.23 8.37-35.41 13.86v-2.691c1.291-3.759 15.6-9.641 34.98-13.42 17.73-3.457 40.62-5.74 65.3-5.786z"/>
				<path d="m239.5 133c36.85-0.1843 68.99 5.152 83.7 12.68l5.364 9.279c-12.78-6.888-47.46-14.05-89-12.98-33.85 0.2081-70.03 3.727-88.18 13.41l6.404-10.71c14.9-7.724 50.02-11.64 81.72-11.68"/>
				<path d="m240 140.6c21.02-0.0556 41.32 1.13 57.48 4.044 15.04 2.799 29.38 7.001 31.44 9.26l1.59 2.81c-4.988-3.257-17.4-6.884-33.34-9.906-16.01-3.008-36.3-4.005-57.2-3.95-23.72-0.0811-42.15 1.171-57.97 3.929-16.73 3.13-28.33 7.602-31.2 9.726l1.558-2.97c5.563-2.838 14.39-6.259 29.22-8.93 16.36-2.988 34.98-3.884 58.42-4.013h-0.00088zm-0.009-8.484c20.11-0.0529 39.97 1.068 55.45 3.851 12.21 2.377 24.28 6.087 28.7 9.389l2.326 3.695c-3.954-4.395-18.84-8.559-31.97-10.89-15.36-2.649-34.4-3.698-54.51-3.866-21.11 0.0591-40.62 1.352-55.75 4.108-14.44 2.748-23.76 6.002-27.7 8.542l2.045-3.087c5.441-2.865 14.23-5.495 25.3-7.646 15.25-2.776 34.88-4.036 56.11-4.095z"/>
				<path d="m289.2 241.3c-18.22-3.401-36.47-3.895-49.22-3.745-61.41 0.7197-81.24 12.61-83.66 16.21l-4.589-7.482c15.63-11.33 49.07-17.69 88.59-17.04 20.52 0.336 38.22 1.699 53.12 4.584l-4.236 7.473"/>
				<path stroke-width="0.55" d="m239.6 236.5c17.08 0.2549 33.85 0.9604 50.03 3.978l-1.172 2.069c-15.03-2.775-31.06-3.836-48.8-3.75-22.66-0.1773-45.58 1.939-65.54 7.667-6.297 1.752-16.72 5.801-17.78 9.146l-1.166-1.923c0.336-1.977 6.636-6.081 18.41-9.39 22.86-6.546 44.24-7.649 66.02-7.799v0.002zm0.7752-8.596c17.7 0.3307 35.98 1.149 53.74 4.668l-1.221 2.154c-16.04-3.185-31.37-4.247-52.42-4.57-22.74 0.0414-46.85 1.662-68.78 8.037-7.079 2.062-19.3 6.52-19.7 10.05l-1.166-2.066c0.2654-3.206 10.84-7.388 20.36-10.16 22.1-6.424 46.28-8.076 69.19-8.117z"/>
				<path d="m327.6 247.4-7.4 11.4-21.2-18.8-55-37-62-34-32.2-11 6.9-12.7 2.3-1.3l20 5 66 34 38 24 32 23 13 15z"/>
				<path d="m148.6 158.3c5.646-3.829 47.14 14.66 90.56 40.83 43.3 26.25 84.68 55.92 80.94 61.47l-1.228 1.932-0.5635 0.4445c0.1208-0.0864 0.7434-0.8476-0.0609-2.906-1.845-6.07-31.2-29.49-79.89-58.9-47.48-28.31-87.04-45.37-91-40.49l1.247-2.389h-0.00089zm180.4 88.93c3.57-7.052-34.92-36.04-82.63-64.27-48.81-27.67-83.99-43.95-90.42-39.1l-1.428 2.599c-0.0124 0.1429 0.052-0.1773 0.3536-0.4101 1.168-1.02 3.105-0.9507 3.979-0.9666 11.06 0.1658 42.67 14.71 87.01 40.13 19.43 11.32 82.07 51.49 81.83 62.79 0.0168 0.971 0.0803 1.171-0.2848 1.652l1.594-2.424v-0.002z"/>
			</g>
			<path d="m180.6 211c0 16.27 6.663 30.99 17.46 41.74 10.82 10.78 25.51 17.58 41.81 17.58 16.38 0 31.25-6.652 42.02-17.39s17.44-25.55 17.45-41.88h-0.002v-79.19l-118.7-0.1411 0.0123 79.28h0.002z" stroke="#000" stroke-width=".6704" fill="#fff"/>
			<path d="m182.8 211.1v0.045c0 15.56 6.441 29.72 16.78 40.01 10.35 10.3 24.61 16.71 40.21 16.71 15.68 0 29.91-6.361 40.22-16.63 10.31-10.26 16.7-24.43 16.7-40.04h-0.002v-76.83l-113.8-0.0185-0.0697 76.75m91.02-53.75 0.004 48.89-0.0414 5.172h0.00088c0 1.361-0.082 2.912-0.2408 4.233-0.9251 7.729-4.48 14.47-9.745 19.71-6.164 6.136-14.67 9.941-24.05 9.941-9.327 0-17.64-3.938-23.83-10.1-6.35-6.32-10.03-14.99-10.03-23.95l-0.0132-54.02 67.94 0.1226 0.002 0.002z" stroke="#000" stroke-width=".5073" fill="#f00"/>
			<g id="f">
				<g id="b" stroke-width=".5" stroke="#000" fill="#ff0">
					<path d="m190.2 154.4c0.1349-5.521 4.052-6.828 4.081-6.847 0.0282-0.0185 4.231 1.408 4.217 6.899l-8.298-0.0512"/>
					<path d="m186.8 147.7-0.6817 6.345 4.141 0.009c0.0397-5.249 3.974-6.122 4.069-6.103 0.0891-0.005 3.989 1.161 4.093 6.103h4.151l-0.7496-6.393-15.02 0.0379v0.002z"/>
					<path d="m185.8 154.1h16.95c0.3572 0 0.6491 0.3528 0.6491 0.784 0 0.4304-0.2919 0.7814-0.6491 0.7814h-16.95c-0.3572 0-0.6491-0.351-0.6491-0.7814 0-0.4313 0.2919-0.784 0.6491-0.784z"/>
					<path d="m192 154c0.0185-3.313 2.262-4.25 2.274-4.248 0.00088 0 2.342 0.9666 2.361 4.248h-4.634"/>
					<path d="m186.2 145h16.24c0.3422 0 0.6226 0.3184 0.6226 0.7047 0 0.3872-0.2804 0.7047-0.6226 0.7047h-16.24c-0.3422 0-0.6226-0.3157-0.6226-0.7047 0-0.3863 0.2804-0.7047 0.6226-0.7047z"/>
					<path d="m186.6 146.5h15.54c0.3272 0 0.5953 0.3166 0.5953 0.7038 0 0.388-0.2681 0.7047-0.5953 0.7047h-15.54c-0.3272 0-0.5953-0.3166-0.5953-0.7047 0-0.3872 0.2681-0.7038 0.5953-0.7038z"/>
					<path d="m191.6 135.9 1.227 0.002v0.8714h0.8951v-0.8908l1.257 0.004v0.8872h0.8978v-0.8908h1.258l-0.002 2.012c0 0.3157-0.254 0.5204-0.5485 0.5204h-4.411c-0.2963 0-0.5697-0.2372-0.5706-0.5265l-0.003-1.988h0.00088z"/>
					<path d="m196.2 138.6 0.2769 6.451-4.303-0.0159 0.2849-6.452 3.741 0.0168"/>
					<path id="e" d="m190.9 141.6 0.1314 3.478-4.126 0.002 0.1164-3.479h3.879-0.00089z"/>
					<use xlink:href="#e" height="100%" width="100%" y="0" x="10.609"/>
					<path id="d" d="m186.3 139 1.199 0.003v0.8722h0.8775v-0.8925l1.229 0.004v0.889h0.8793v-0.8925l1.23 0.002-0.002 2.012c0 0.314-0.2487 0.5186-0.5362 0.5186h-4.317c-0.2893 0-0.5582-0.2355-0.5591-0.5256l-0.003-1.989h0.00088z"/>
					<use xlink:href="#d" height="100%" width="100%" y="0" x="10.609"/>
					<path fill="#000" d="m193.9 140.6c-0.0265-0.6271 0.8766-0.6341 0.866 0v1.536h-0.866v-1.536"/>
					<path id="c" fill="#000" d="m188.6 142.8c-0.003-0.6059 0.8369-0.6182 0.8264 0v1.187h-0.826v-1.187"/>
					<use xlink:href="#c" height="100%" width="100%" y="0" x="10.641"/>
				</g>
				<use xlink:href="#b" height="100%" width="100%" y="46.319801" x="0"/>
				<use xlink:href="#b" transform="matrix(.7046 -.7096 .7096 .7046 -35.34 275.1)" height="100%" width="100%" y="0" x="0"/>
			</g>
			<use xlink:href="#b" height="100%" width="100%" y="0" x="45.713799"/>
			<use xlink:href="#f" transform="matrix(-1 0 0 1 479.8 0)" height="100%" width="100%" y="0" x="0"/>
			<g id="a" fill="#fff">
				<path fill="#039" d="m232.6 202.4v0.005c0 2.212 0.8493 4.227 2.212 5.689 1.365 1.467 3.245 2.378 5.302 2.378 2.067 0 3.944-0.9049 5.303-2.365 1.358-1.459 2.202-3.472 2.202-5.693v-10.77l-14.99-0.0123-0.0273 10.77"/>
				<circle cy="195.7" cx="236.1" r="1.486"/>
				<circle cy="195.7" cx="244.4" r="1.486"/>
				<circle cy="199.7" cx="240.2" r="1.486"/>
				<circle cy="203.9" cx="236.1" r="1.486"/>
				<circle cy="203.9" cx="244.4" r="1.486"/>
			</g>
			<use xlink:href="#a" height="100%" width="100%" y="-26.016001" x="0"/>
			<use xlink:href="#a" height="100%" width="100%" y="0" x="-20.799"/>
			<use xlink:href="#a" height="100%" width="100%" y="0" x="20.745001"/>
			<use xlink:href="#a" height="100%" width="100%" y="25.784" x="0"/>
		</g>
	</g>
</svg>
