<svg id="svg2" xmlns:rdf="http://www.w3.org/1999/02/22-rdf-syntax-ns#" xmlns="http://www.w3.org/2000/svg" viewBox="0 0 899.99999 600.00002" height="600" width="900" version="1.1" xmlns:cc="http://creativecommons.org/ns#" xmlns:dc="http://purl.org/dc/elements/1.1/">
 <metadata id="metadata7">
  <rdf:RDF>
   <cc:Work rdf:about="">
    <dc:format>image/svg+xml</dc:format>
    <dc:type rdf:resource="http://purl.org/dc/dcmitype/StillImage"/>
    <dc:title/>
   </cc:Work>
  </rdf:RDF>
 </metadata>
 <g id="layer1" transform="translate(-4189 65.9)">
  <g id="wal" transform="matrix(1.205 0 0 1.205 4142 -65.9)">
   <rect id="rect6932" height="249" width="746.8" y="249" x="38.98" fill="#00ab39"/>
   <rect id="rect6934" height="249" width="746.8" y="0" x="38.98" fill="#fff"/>
   <g id="g6936" stroke-width="1.8" transform="translate(1.72 .97)" stroke="#000">
    <path id="path6938" fill="#d21034" d="m541.6 28.56c-0.011 0.0194-0.019 0.0431-0.031 0.0625 0.033-0.0182 0.061-0.0443 0.094-0.0625h-0.063zm-0.031 0.0625c-52.24 28.89-99 58.95-145 97.25-22.06 19.27-15.83 34.63-16.69 51.94 0.711 11.62-2.511 22.43-9.656 28.94-16.35 3.306-32.72 6.632-49.06 9.938-1.566-4.524-3.121-9.042-4.687-13.56 1.495-6.94 7.232-10.35 19.31-6 0.952-8.923-6.227-12.56-14.62-15.66-2.885-2.246-6.468-3.971-6-11.69-1.412-17.47 26.62 1.25 26.88 1.25 0.261 0-0.934-17.63-13.81-21.16-7.022-2.485-9.994-9.892-7.313-15.38 5.618-11.21 16.19 0.878 24.28 1.312-0.304-7.316-2.387-12.53-8.688-18.44-3.392-2.087-11.72-3.657-11.94-7.156-0.176-4.752 7.808-6.784 18.78-5.469-2.288-6.66-9.668-10.97-19.81-14.09-2-3.479-4-6.958-6-10.44-2.841-5.26-4.115-5.402 2.469-15.38 5.915-3.827 13.77-9.237 19.69-13.06-2.176-0.261-4.357-0.5203-6.532-0.7812 0.869-7.131 0.969-9.531 2.625-21.38-6.346 8.672-14.28 7.121-21.41 10.69 0 0-20.33 3.609-26.88 12.25-0.261 0-51.12-2.594-51.12-2.594-10.84 1.509-20.1 4.582-21.91 15.12-24.79 2.502-50.76 0.2888-69.66 24 12.87-0.6088 24.14-3.674 38.59-1.813 0 0 12.32 0.233 14.88 13.28 0.261 0.522 4.188 0.532 4.188 0.532 1.566 1.217 3.121 2.439 4.687 3.656 0.609-1.652 1.204-3.317 1.813-4.969 1.392 0.9568 2.795 1.918 4.187 2.875 0.434-1.826 0.879-3.642 1.313-5.468 1.392 0.9565 2.764 1.918 4.156 2.874 0.087-2.174 0.195-4.357 0.281-6.531 1.827 1.304 3.643 2.602 5.469 3.906v-8.594s20.19-0.0472 26.34 12.78c0.262 0.261-56.66 10.46-111.7 5.75 5.306-2.609 10.6-5.235 15.91-7.844-20.3-3.78-39.1-7.47-56.82-21.36 6.677 25.14 41.18 54.66 48.25 54.53 0 0.261-6.781-12.25-6.781-12.25 19.92 0.87 39.84 1.725 59.75 2.594 2.175 6.61 1.213 14.02 6.531 19.84 0 0-3.299 10.92 4.031 15.38 0.262 0.521 8.75-22.16 8.75-22.16s2.6 6.101 5.219 10.16c3.795-19.51 25.03-22.69 25.03-22.69s4.438 10.18 4.438 10.44c-6.636 0.96-14.89 14.49-10.44 21.91-4.45 0.085-12.35 13.19-9.906 20.34-3.741 3.723-13.06 8.686-10.69 24.28-7.334 1.572-11.68 14.99-9.406 29.22-11.35 10.56-8.563 29.96 1.563 37.81-4.203 3.74-6.791 6.616-6.781 11.22-3.996-1.485-7.68-0.244-9.407 2.375-4.898-5.021-11.93-9.418-16.94-4.719-1.296-5.94-9.032-12.47-17.5-11.72 0.496-6.264-2.755-14.02-11.72-16.72 0 0-1.814-29.36-10.72-38.88-0.873-5.326 0.51-8.948 7.844-13.31 7.323-3.906 8.879-6.935 8.344-18 2.887-7.396 5.08-14.94-3.906-20.06 0.27 8.795-2.43 13.03-6 16.94-4.266-0.621-5.756 4.358-8.626 6.532-4.016-5.414 8.472-13.8-0.781-25.84-0.521-0.523-6.459-15.72-21.12-15.38 6.971 4.082 9.92 10.95 9.906 18-4.624 13.04-6.973 23.13-2.343 38.09-6.093-9.128-9.549-26.48-14.59-29.5-4.422-0.862-6.582-11.32-23.75-8.343 7.406 1.992 9.757 7.647 11.75 12.78-4.541 2.342-2.285 8.519 1.031 12.78-0.6296 10.02 5.37 15.87 14.34 19.59-1.478 13.65-2.96 27.28-4.438 40.94-3.564-0.454-9.05 13.42-11.22 13.84-3.489 2.171-9.581 8.01-2.594 9.656-2.076 7.492-4.001 12.01-15.16 13.56 0 0 11.79 6.991 21.56-4.969 10.47-0.262 7.03-12.75 12.09-18.25 0-0.26 2.874-2.066 7.062-13.06 1.832 9.819 11.91 39.89 34.69 54.81 19.86 21.26 36.18 41.33 36 69.66 7.75-7.208 12.38-18.62 15.94-29.5 10.78-3.748 26.19-5.179 39.94-4.562-2.358 4.961-4.997 9.721-1.594 12.94-9.593 3.294-11.7 10.26-7.843 17.22-10.11 6.867-10.78 11.28-10.94 22.69-18.71 23.98-30.25 23.19-48.78 16.97-6.086-3.572-15.5-8.714-19.84-6-8.004-5.334-19.51-6.126-21.41 6 6.006-4.978 9.592-4.018 14.38 0.782-0.962 2.436-1.766 4.862 1.812 6.25-1.566 1.739-3.121 3.48-4.687 5.218-8.613-1.324-20.19-1.25-23.22 11.22 4.424-3.665 14.24-4.525 22.16-1.031 1.479 0.522 2.959 1.04 4.438 1.562 0.174 2 0.358 4 0.531 6 0 0-11.73-1.811-14.88 17.22 11-11.7 18.78-8.625 18.78-8.625 4.239 6.205 19.84 5.271 31.06-4.937 15.76-8.812 20.36 3.851 30.53-4.438 8.436-6.292 18.42-2.108 25.28 5.219 7.915 2.969 16.2 5.413 22.72 0 0 0 7.963-5.081 15.91 3.125 0.087-9.253-6.47-14.17-15.38-14.34l-2.625-2.625c-8.349-1.74-17.73-1.034-25.03-5.218 3.442-13.07 8.457-24.9 18.25-34.97 12.09-12.96 20.99-18.85 36.25-38.69-0.589 11.21 8.003 23.68 12.53 35.06 0 0 9.116-14.56 10.44-26.38 0.26 0 11.42-5.81 16.19-10.75 10.06 6.237 26.45-4.994 37.03-14.28 6.524 2.47 11.48 2.292 19.06 0-6.088 12.39 3.521 23.88 18.78 28.69 1.411 10.94 12.46 13.23 29.22 13.31 0.706 6.436 10.69 7.312 10.69 7.312-6.308 2.94-9.596 5.886-9.376 12.53-6.464 0.044-11.36 1.671-13.06 9.125-8.876 0.152-17.92 0.833-25.56 5.219-8.176-1.269-18.12-4.657-24.53-11.22-3.306-2.783-4.131-6.796-9.906-8.344-3.66-4.326-8.039-3.36-9.406 0.782-3.783-2.955-17.97-4.328-20.34 9.125 6.624-4.848 12.56-6.696 16.72-0.781-2.264 4.106 5.516 6.455 12.25 8.093 4.776 0.296 13.25 4.647 15.91 12-6.16 1.869-15.5 1.253-21.66-3.406-5.476-4.582-12.87-4.036-16.94-1.031-5.64-3.596-19.07 3.193-19.59 14.06 5.658-5.184 10.81-7.691 15.94-4.406-2.553 0.606-1.583 0.855-1.313 2.344 4.348 2.522 8.684 5.04 13.03 7.562-6.394 1.687-12.4 4.238-9.625 16.16 0 0 5.208-10.3 16.94-6.5 0.261-0.26 1.617 3.678 4.969 1.032 5.076-5.776 16.68-8.362 26.88-9.375 8.18-0.977 16.35-3.387 23.47 1.281 6.341-3.262 13.4-5.456 20.62-0.25 8.523 2.696 14.75 12.63 25.56 8.094 5.379-3.723 11.99-3.912 18.78 3.656 0.082-9.543-7.069-12.74-17.22-14.88-2.349-1.393-4.683-2.795-7.031-4.187-6.522-0.958-13.07 0.198-19.59-2.876 34.13-8.824 58.06-27.86 74.91-55.03 5.392 1.913 10.76 3.805 16.16 5.719 3.825 0.245 4.117 1.574 12 3.938 0.297-11.61-4.689-23.58-25.56-24.78l-27.41-10.44c-5.818-6.135-8.447-19.15-1.032-26.88 7.258-6.463 8.525-5.689 13.31-13.56 5.822-0.53 11.31 5.469 16.69 5.469 2.554 7.587 17.27 14.29 26.62 12 5.859 5.187 17.01 8.07 29.22 3.906 6.93 6.067 15.96 8.6 26.59 3.906 2.823 2.824 8.783 5.069 15.66 3.657 0.522 0 3.473 7.541 10.97 10.19-3.268 3.176-1.259 16.97 2.093 21.91-2.288 5.302-3.008 10.96-1.062 16.44-7.559 4.86-9.098 8.475-5.719 16.69-9.899 15.91-21.74 17.72-32.88 12.81-4.002-2.522-7.998-5.071-12-7.594-4.261-4.175-8.52-8.325-12.78-12.5-2.17-2.037-6.66-2.677-7.594 1.813 0 0-16.4-3.658-17.72 10.19 6.798-6.62 16.44-0.792 16.44-0.531s-2.296 1.823-0.531 4.469c0.397-0.331 11.97 4.32 22.28 8.75 5.6 2.122 6.831 2.786 9.281 4.094-2.685-1.23-5.858-2.623-9.281-4.094-6.275-2.379-12.39-4.279-14.19-3.813-5.84-0.545-12.03-1.27-14.87 3.125-6.278 2.656-16.08 4.783-15.66 16.44 4.239-6.94 10.06-6.647 17.47-6-0.174 0.522-0.326 1.04-0.5 1.562 8.05 3.667 6.523-0.998 14.03-1.687 6.277-0.576 15.17 1.672 19.88 3.25-5.913 1.739-13.95 1.009-17.75 5.219-0.696 1.392-3.131 0.823-2.062 4.156 0 0-11.53-0.298-14.62 15.66 11.73-7.509 20.62-7.281 20.88-7.281 0.261 0 3.656 0.781 3.656 0.781s14.08-9.406 14.34-9.406c0.262 0 13.64-5.923 19.81 0.781 5.389 2.649 11.15 2.818 16.72-0.531 10.97-4.77 21.23-5.104 31.31 1.594l9.124 5.468c1.304-0.869 2.603-1.755 3.907-2.625 0 0 10.33-2.917 17.91 6.281-3.132-15.91-14.5-16.44-14.5-16.44-0.87-0.783-1.756-1.561-2.625-2.344-5.392-2.087-10.76-4.194-16.16-6.281-2.354-5.826-8.268-10.46-2.375-17.47 6.02-29.93 13.22-52.4 1.562-82.72 10.87 4.696 19 19.22 32.62 14.09 0-12.18-44.82-35.29-79.06-53.88 56.09-2.87 123.5-44.28 97.59-96.91 4.088-12.7 8.162-25.4 12.25-38.09 5.77 11.62 17.45 20.48 27.94 24.25-8.641-16.5-13.6-66.93-8.625-101.8-22.6 27.92-47.56 52.7-74.09 77.87 13.05 3.05 24.45 0.904 37.06-0.656-3.566 7.305-7.029 14.63-10.59 21.94-34.47-20.19-74.95-5.038-75.25 21.91 1.179 31.42 40.03 35.88 62.44 24.94-4.442 28.65-70.28 18.09-70.28 18.09-23.39-8.064-45.61-6.683-70.19-6.5 5.106-15.71 33.46-29.65 55.06-23.5-30.24-33.91 4.275-76.01 45.91-88.97-45.38-14.97-6.304-49.56 27.66-74.34 0 0-97.66 41.1-106.6 40.97-27.78-2.087-20.21-34.97-9.625-52.66zm-306.6 39.47c2.273 0.0119 4.945 0.2339 7.062 0.75 4.404 1.073 9.763 1.689 9.688 3-2.039 3.412-7.047 7.529-11.97 7.281-4.921-0.2476-7.766-3.198-9.406-10.59 0.503-0.2725 2.352-0.4494 4.625-0.4374zm411.1 115.9c6.403-0.088 14.07 2.621 21.56 10.56-3.6 10.37-34.84 15.7-36.94 0.344-0.633-4.641 6.016-10.78 15.38-10.91z"/>
    <path id="path6940" stroke-linejoin="round" fill="none" d="m267.3 158.7 4.737 6.891m-0.215 0.217s0 9.259 1.938 9.476m-4.307 4.952c0.215 0.216 4.954 8.184 4.954 8.184m-13.57 2.153c0.215 0 6.031 6.677 6.031 6.677m5.051-5.18c0 0.215 5.501 10.56 5.932 10.56m-13.14-3.447s1.938 12.49 3.66 12.06m-11.8 10.83 5.556 8.339m4.738-17.23s3.015 11.84 5.383 10.77m2.364-17.88c0.216 0.215 5.606 7.974 7.112 6.897m-1.291 3.014 5.168 10.34m-13.78-2.37c0.215 0.432 4.307 12.28 4.307 12.28m-14.21-6.03s3.877 13.14 7.323 10.98m-8.83 6.462s0.215 6.891 3.661 7.321m2.37-10.77c0 0.215 3.445 4.954 3.445 4.954m6.398-13.15 2.862 4.534m6.246-12.92 4.308 5.383m-24.29-67.14c0.215 5.815 9.437-2.048 13.1-7.002m-17.02 27.19s10.12-7.107 17.88-17.88m-21.11 34.89c7.107-1.938 20.18-17.75 22.77-26.15m-24.28 41.87c1.94 0.861 26.37-16.73 27.01-29.65m-27.66 43.22c0-0.215 22.33-5.693 31.59-30.24m-32.79 48.83s35.66-21.38 37.6-37.1m240.8 73.01s-2.299 18.45-20.82 21.25m26.64 11.7c0.215-0.216 17.66-19.38 13.14-25.2m27.35 6.676s-0.215 13.35-11.2 22.61m32.95-18.74s0.432 16.15-6.46 22.61m26.49-12.92s-7.727 15.13-10.53 16.63m10.19 10.17s10.17 2.534 13.4-4.143m-10.76 26.08s9.399 1.697 13.71-7.347m-14.71 24.28s7.607 6.391 12.78-2.007m-122-122.4s-0.862 32.74 45.22 39.41c51.47 14.22 75.81 6.677 78.82 64.39-1.938 21.97-4.668 46.78-20.6 37.3m-152.3-111.4s7.323 13.14 16.15 12.28c11.63-3.446 15.94 3.661 15.94 3.661m-63.53-2.8s19.38 9.476 35.96-5.815m-33.81-7.753c1.722 22.61-26.06 35.54-37.04 33.38m38.36 53.27c0.216 0 15.05-8.905 12.04-15.15m-41.57 1.94c0.431-0.432 24.98-2.801 29.5-11.63m-40.92-24.55c0-0.215 34.84 0.097 37.21 6.557m9.09-27.23s-34.03 58.15 28.86 58.15m-64.82-59.01s-7.323 21.75-17.66 29.07m-18.52-36.61s12.64 24.45-0.071 36.51m-32.88-29.62c0.215 0.43 4.091 34.67-4.524 44.36m-11.84-43.29s1.291 21.75-5.169 29.5c-6.462 7.753 1.513 23.86 1.513 23.86m-78.5 10.46s4.624 8.114 11.09 5.313m-3.231-23.04s10.34 4.522 13.78 2.799m-2.584-39.41s-15.29 4.307-9.476 22.4c8.829 7.108 17.44 6.03 17.44 6.03m-38.12 48.46c-0.215 0 1.723 14.22 11.63 3.446 6.891-14.43 28.64-55.13 33.6-69.13m10.12-6.675s-10.55-8.184-10.12 3.23c-0.217 7.106 3.229 8.829 3.229 8.829 0.43 5.169 4.954 12.49 8.614 5.815 1.508-6.461-1.076-9.261-1.076-9.261m6.03-11.63c-9.476-0.646-14.64 20.24 3.662 7.11m6.245-14.22s-2.368 3.232-6.03-0.215c-1.939-3.445-8.829 15.51 3.231 16.15 2.153-5.6 8.83-7.107 8.83-7.107m5.6-17.88s-5.385 2.584-7.323 2.153c-6.461 1.508-5.17 16.58 3.014 15.72 2.799-3.23 5.815-7.753 5.815-7.753m-52.29-29.83c-0.216 0-21.37 33.27 11.79 42.1m256.7-92.18s-12.92 10.98-0.862 28.64c-40.06-0.645-61.59 17.88-63.32 30.36-51.04-3.66-41.78 11.42-58.36 16.37-22.18-18.52-54.7-8.183-52.55 10.34-14.86-20.89-37.69-10.77-40.49-5.599-2.8 5.169-1.723-25.63-1.723-25.63s-14.86 6.677-25.2 18.95c0.217-8.183 0-21.54 0-25.84-12.42 2.512-24.41 2.654-37.26 2.369m-33.6-9.476s18.52 10.34 41.35-3.661m-42.86-33.6s14.43 12.92 41.57 8.829m-32.52-38.55s3.229 10.55 34.24 11.2m-23.74-35.6s11.68 14.28 27.4 12.13m-17.44-32.52s4.522 7.753 21.75 9.045m-11.63-31.66s9.046 9.907 19.38 8.184m34.43-88.7s4.006-4.005 10.68-2.003m-13.57 23.14s-12.46-0.4451-11.57-5.34c0.892-5.563 13.13-9.568 13.13-9.568s16.24-10.46 18.69-14.02m-73.43 56.97 15.8 30.26 7.565-11.35 4.006 7.788 6.453-11.35 11.13 7.12-4.228-13.8 9.345-0.667s-2.448-6.676-10.9-8.011c2.226-1.78 10.01-6.898 10.01-6.898s-4.449-5.118-11.35-5.341c2.225-2.448 5.34-8.456 5.118-8.456s-6.899-1.558-6.899-1.558 15.8 5.118 28.04-2.003m-30.25-24.47c0.222 0.2225-0.891 6.23-4.229 9.791m-56.74 6.898s9.774-2.69 17.09-1.165c7.245 1.489 16.96 4.058 16.96 4.058s11.57-1.558 15.35-4.228m-73.66 7.788s-1.334 4.673-1.779 7.788c0 2.225-7.122 5.118-7.122 5.118m13.35-22.48s6.23 7.788 6.452 12.24c0.223 4.45-4.672 7.788-4.672 7.788m-66.09 33.16-6.454-10.46 5.786-2.003m117.2 156.7c-5.168-6.676 3.876-109.2 23.04-135.9-6.676 48.24 15.51 97.56 21.1 97.34m-102.4-126s8.722 3.338 26.81-10.98m24.44 34.68 12.98 0.161m389.5-80.51s-216.2 101-219.3 106.4c36.5-11.02 191.3-36.82 195.1-34.62-9.126 2.203-197 45.32-205.8 55.7 46.89-1.574 145.1 15.1 160.5 31.15-33.36-7.552-133.1-22.34-163.6-15.74 22.34 5.351 107.9 60.74 107.9 69.55-12.9-12.27-115.8-54.76-119.9-50.66 23.6 14.16 56.96 66.71 56.96 79.62-6.923-11.01-66.4-74.9-69.86-70.81 6.294 8.813 18.77 84.22 12.39 87.72 0-9.126-23.09-75.13-24.98-77.02-4.721 1.258-34.15 80.53-28.32 87.9-3.776-26.43 0.628-81.6 7.866-79.4-12.9 1.888-54.08 56.18-49.67 64.68 1.259-13.53 3.1-22.51 26.39-67.51-25.8 1.572-79.3 35.25-88.43 47.2 7.239-21.4 52.56-57.59 72.38-60.11m93.32-78.75c22.85-12.68 93.46-38.56 140.6-57.54m-184.9 125.8s15.58-0.222 31.15-42.5c15.35-57.85 137.1-122.4 139.5-134.4m-376.7 235.1s-3.615 7.703-8.066 9.929m25.52 1.744s-4.829 9.382-5.942 13.83m22.65-9.243s4.052 12.8 0.714 18.81m-47.24-52.05c-12.24 6.899 6.964 50.49 65.04 54.72m-9.346-23.59s-1.557 7.788 9.346 23.36c-3.115 17.36 13.2 31 19.65 33.22m-33.67-213c0-0.223 1.78-4.673 1.78-4.673l1.984 5.144 3.193-0.0834 2.107-5.158 1.73 5.177h3.173l1.957-5.748 2.957 5.443 2.511 0.1274 1.978-6.63 4.077 4.749 1.481-0.5734 1.27-6.631 4.028 4.638 1.155-0.6775 1.868-6.535 3.346 4.86 1.684-0.5492 1.563-5.493 3.11 5.048m-50.53 8.149 24.27-0.361c7.723-0.115 20.44-10.82 34.68-7.481m-110.1 59.77s4.005 8.679 9.569 3.783m-18.91 2.003s-7.789 20.92 1.557 25.81m-12.68-48.95s0 4.895 10.24-2.67m-42.07 112.6s8.233 2.448 6.898 8.679m-3.788-104.8s5.118 2.448 10.01-5.117m44.28 245.9c8.01-0.445 9.735 3.172 17.02 3.172 8.396 0.256 16.58-3.172 27.26-6.065m68.76 19.36c-0.223 0-3.783 7.565-0.667 11.35m-113.5-10.68s12.68-10.46 19.36-4.005c6.454 2.226 10.01 1.78 10.01 1.78m-22.69-27.59s3.115 8.01-7.344 6.898m-3.115 11.57s6.675 4.229-0.89 9.791m4.895 7.566s9.123 1.336 3.782 8.678m290.9-64.12s24.78 2.564 25.92 4.415c2.849-2.991 24.97-20.91-2.225-23.47-4.555 18.65-23.26 19.34-23.69 19.06zm-8.828 12.39c9.255 7.404 5.463 11.84 34.51-7.666m-47.76 16.92s13.67 14.67 23.64-3.134m-49.7 8.402-18.51 9.682m-33.32 13.67s11.25-9.683 16.52-4.557c5.268 5.126 27.62-4.413 27.62-4.413m-35.74-33.04s3.846 7.689-3.56 8.686m-11.11 15.38s3.901 7.23-3.646 9.223m12.33 10.43s11.68 0.569 7.547 9.397m101.7-10.96s-6.408 5.411-1.708 11.54m94.69-50.41s7.404 3.559-1.424 9.683m-7.404 12.82s5.553 5.839 1.851 10.68m13.67 11.68s7.688 2.136 6.835 8.544m100.8-14.24s-6.408 4.698-2.99 10.82m-111.5-198c15.38-1.851 37.45 32.32 48.7 39.02m67.27-87.42s7.79 6.799 0.9361 23.2m13.5-49.37c2.167 1.686 10.54 6.154 16.07 16.5m5.312-67.66c0 0.142-10.82 29.19-10.82 29.19m22.92-30.62s-2.136 25.92-5.268 31.18m-42.96 47.22c-3.6 10.37-34.84 15.68-36.94 0.3254-1.066-7.816 18.5-19.87 36.94-0.3254z"/>
    <path id="path6942" stroke-linejoin="round" d="m234.8 68.18 12.02 2.225s-8.46 11.35-12.02-2.225z"/>
   </g>
  </g>
 </g>
</svg>
